<!-- Created with Inkscape (http://www.inkscape.org/) -->
<svg height="410.31" version="1.1" viewBox="0 0 92.451057 108.56035" width="349.42"
    xmlns="http://www.w3.org/2000/svg">
 <path d="m3.7469 22.052h85.423v82.688h-85.423z" fill="#ff7f2a" fill-rule="evenodd" stroke="#23ff00"
     stroke-linecap="round" stroke-linejoin="round" stroke-width="7.0284" />
 <path
     d="m53.58 50.862a13.678 11.604 0 0 1 6.8736 -10.066 13.678 11.604 0 0 1 13.713 0.0508 13.678 11.604 0 0 1 6.7698 10.117l-13.678-0.10126z"
     fill="#00ffb2" stroke="#91265d" stroke-width="2.9546" />
 <path
     d="m12.674 47.879a13.587 13.152 0 0 1 13.587 -13.152 13.587 13.152 0 0 1 13.587 13.152 13.587 13.152 0 0 1 -13.587 13.152 13.587 13.152 0 0 1 -13.587 -13.152z"
     fill="#00ffb2" stroke="#91265d" stroke-width="3.1349" />
 <path
     d="m21.959 48.836a3.7418 4.5274 0.21868 0 1 1.8935 -3.9215 3.7418 4.5274 0.21868 0 1 3.7511 0.03161 3.7418 4.5274 0.21868 0 1 1.8386 3.953l-3.7415-0.05128z"
     fill="#008080" />
 <path
     d="m58.749 13.413a14.08 13.59 0 0 0 -7.0753 -11.789 14.08 13.59 0 0 0 -14.115 0.0594 14.08 13.59 0 0 0 -6.9684 11.849l14.079-0.1186z"
     fill="#ce00ff" stroke="#000" stroke-width=".26031" />
 <path d="m17.36 13.177h55.94v5.671h-55.94z" fill="#ce00ff" stroke="#000" stroke-width=".26031" />
 <path
     d="m63.338 47.859a3.7418 4.5274 0.21868 0 1 1.8935 -3.9215 3.7418 4.5274 0.21868 0 1 3.7511 0.03161 3.7418 4.5274 0.21868 0 1 1.8386 3.9529l-3.7415-0.05128z"
     fill="#008080" />
 <path d="m31.534 82.473h30.417v6.4028h-30.417z" fill="#00ffb2" stroke="#91265d"
     stroke-linecap="round" stroke-linejoin="round" stroke-width="3.1541" />
</svg>
