<?xml version="1.0" encoding="UTF-8" standalone="no"?>
<!-- Created with Inkscape (http://www.inkscape.org/) -->

<svg xmlns:cc="http://creativecommons.org/ns#" xmlns:dc="http://purl.org/dc/elements/1.1/"
    xmlns:inkscape="http://www.inkscape.org/namespaces/inkscape"
    xmlns:rdf="http://www.w3.org/1999/02/22-rdf-syntax-ns#"
    xmlns:sodipodi="http://sodipodi.sourceforge.net/DTD/sodipodi-0.dtd" height="411.35413" id="svg2"
    version="1.1" width="349.4213" xmlns="http://www.w3.org/2000/svg"
    inkscape:version="0.92.1 r15371" sodipodi:docname="faces.svg">
  <defs
     id="defs4">
    <inkscape:perspective id="perspective4194" inkscape:persp3d-origin="372.04724 : 350.78739 : 1"
       inkscape:vp_x="0 : 526.18109 : 1"
       inkscape:vp_y="0 : 1000 : 0"
       inkscape:vp_z="744.09448 : 526.18109 : 1" sodipodi:type="inkscape:persp3d" />
  </defs>
  <sodipodi:namedview
     bordercolor="#666666"
     borderopacity="1.0" fit-margin-bottom="0" fit-margin-left="0" fit-margin-right="0"
      fit-margin-top="0" id="base" pagecolor="#ffffff"
     showgrid="false"
     showguides="true" units="in" inkscape:current-layer="layer1" inkscape:cx="3014.9287"
      inkscape:cy="56.393545" inkscape:document-units="px"
     inkscape:guide-bbox="true" inkscape:pageopacity="0.0" inkscape:pageshadow="2"
      inkscape:window-height="1016" inkscape:window-maximized="1" inkscape:window-width="1920"
     inkscape:window-x="0"
     inkscape:window-y="27" inkscape:zoom="0.175" />
  <metadata
     id="metadata7">
    <rdf:RDF>
      <cc:Work
         rdf:about="">
        <dc:format>image/svg+xml</dc:format>
        <dc:type
           rdf:resource="http://purl.org/dc/dcmitype/StillImage" />
        <dc:title></dc:title>
      </cc:Work>
    </rdf:RDF>
  </metadata>
  <g
     id="layer1" transform="translate(-124.16621,-139.5221)" inkscape:groupmode="layer"
      inkscape:label="Layer 1">
      <path
          style="fill:#ffff00;fill-opacity:1;stroke:#ff0000;stroke-width:6.16699982;stroke-linejoin:round;stroke-miterlimit:4;stroke-dasharray:none;stroke-opacity:1"
          d="m -1213.6685,155.68723 h 2.8572 v 60 h -2.8572 z"
       id="rect4032" inkscape:connector-curvature="0" />
      <path
          style="fill:#ffff00;fill-opacity:1;stroke:#ff0000;stroke-width:6.34084272;stroke-linejoin:round;stroke-miterlimit:4;stroke-dasharray:none;stroke-opacity:1"
          d="m -1085.7714,264.91284 h 2.8178 v 64.31705 h -2.8178 z"
       id="rect4032-3"
       transform="matrix(0.9968278,0.07958857,-0.39865814,0.91709961,0,0)"
          inkscape:connector-curvature="0" inkscape:transform-center-x="-17.557979"
          inkscape:transform-center-y="-29.754404" />
      <path
          style="fill:#ffff00;fill-opacity:1;stroke:#ff0000;stroke-width:6.34084272;stroke-linejoin:round;stroke-miterlimit:4;stroke-dasharray:none;stroke-opacity:1"
          d="m 1264.9015,61.003754 h 2.8177 V 125.3208 h -2.8177 z"
       id="rect4032-3-6"
       transform="matrix(-0.9968278,0.07958857,0.39865814,0.91709961,0,0)"
          inkscape:connector-curvature="0" inkscape:transform-center-x="17.557986"
          inkscape:transform-center-y="-29.754405" />
      <path
          style="fill:#e5ff80;fill-rule:evenodd;stroke:#ff008a;stroke-width:27;stroke-linecap:round;stroke-linejoin:round;stroke-miterlimit:4;stroke-dasharray:none;stroke-opacity:1"
          d="m -1374.0538,228.70535 h 322.8571 V 551.5625 h -322.8571 z"
       id="rect2985" inkscape:connector-curvature="0" />
    <path
        style="fill:#49ff00;fill-opacity:1;stroke:#ff0785;stroke-width:12.20051861;stroke-miterlimit:4;stroke-dasharray:none;stroke-opacity:1"
        d="m -81.822357,312.42545 a 52.022858,52.022858 0 0 1 -26.142593,45.12859 52.022858,52.022858 0 0 1 -52.15336,-0.22757 52.022858,52.022858 0 0 1 -25.74778,-45.355 l 52.02088,0.45398 z"
       id="path3775-6-7"
       transform="matrix(-0.82833218,0,0,-0.63699249,-1265.8383,532.79544)"
        inkscape:connector-curvature="0" />
    <path
        style="fill:#49ff00;fill-opacity:1;stroke:#ff0785;stroke-width:12.20051861;stroke-miterlimit:4;stroke-dasharray:none;stroke-opacity:1"
        d="m -81.822357,312.42545 a 52.022858,52.022858 0 0 1 -26.142593,45.12859 52.022858,52.022858 0 0 1 -52.15336,-0.22757 52.022858,52.022858 0 0 1 -25.74778,-45.355 l 52.02088,0.45398 z"
       id="path3775-6-7-5"
       transform="matrix(-0.79752001,0,0,-0.61329774,-1382.0703,526.01541)"
        inkscape:connector-curvature="0"
       inkscape:transform-center-x="-56.393182" inkscape:transform-center-y="-20.358299" />
      <path
       style="fill:#ff0000;fill-opacity:1;stroke:none"
          d="m -1275.1016,468.69833 h 125.7143 v 23.57143 h -125.7143 z"
       id="rect3846" inkscape:connector-curvature="0" />
    <path
       style="fill:#008080;fill-opacity:1;stroke:none"
        d="m 234.35539,310.40512 a 14.142136,17.677668 0 0 1 -7.10672,15.33496 14.142136,17.677668 0 0 1 -14.17761,-0.0773 14.142136,17.677668 0 0 1 -6.9994,-15.41189 l 14.1416,0.15426 z"
       id="path4101"
       transform="matrix(0.79752001,0,0,0.79752001,-1452.5456,66.372835)"
        inkscape:connector-curvature="0" />
    <path
       style="fill:#008080;fill-opacity:1;stroke:none"
        d="m 234.35539,310.40512 a 14.142136,17.677668 0 0 1 -7.10672,15.33496 14.142136,17.677668 0 0 1 -14.17761,-0.0773 14.142136,17.677668 0 0 1 -6.9994,-15.41189 l 14.1416,0.15426 z"
       id="path4101-2"
       transform="matrix(0.82833218,0,0,0.82833218,-1337.2982,55.394587)"
        inkscape:connector-curvature="0" />
      <path
          style="fill:#ff7f2a;fill-rule:evenodd;stroke:#23ff00;stroke-width:26.56415939;stroke-linecap:round;stroke-linejoin:round;stroke-miterlimit:4;stroke-dasharray:none;stroke-opacity:1"
          d="M 137.44829,225.07619 H 460.30544 V 537.59416 H 137.44829 Z"
       id="rect2985-9" inkscape:connector-curvature="0" />
    <path
        style="fill:#00ffb2;fill-opacity:1;stroke:#91265d;stroke-width:12.20051861;stroke-miterlimit:4;stroke-dasharray:none;stroke-opacity:1"
        d="m -81.822357,312.42545 a 52.022858,52.022858 0 0 1 -26.142593,45.12859 52.022858,52.022858 0 0 1 -52.15336,-0.22757 52.022858,52.022858 0 0 1 -25.74778,-45.355 l 52.02088,0.45398 z"
       id="path3775-6-7-1"
       transform="matrix(-0.99374041,0,0,-0.84304058,244.48548,597.35267)"
        inkscape:connector-curvature="0" />
    <path
        style="fill:#00ffb2;fill-opacity:1;stroke:#91265d;stroke-width:12.20056152;stroke-miterlimit:4;stroke-dasharray:none;stroke-opacity:1"
        d="m -81.822357,312.42545 a 52.022858,52.022858 0 0 1 -52.022853,52.02285 52.022858,52.022858 0 0 1 -52.02286,-52.02285 52.022858,52.022858 0 0 1 52.02286,-52.02286 52.022858,52.022858 0 0 1 52.022853,52.02286 z"
       id="path3775-6-7-5-2"
       transform="matrix(-0.98708574,0,0,-0.95547535,90.422502,621.20789)"
        inkscape:connector-curvature="0"
       inkscape:transform-center-x="-69.797498" inkscape:transform-center-y="-31.716814" />
    <path
       style="fill:#008080;fill-opacity:1;stroke:none"
        d="m 234.35539,310.40512 a 14.142136,17.677668 0 0 1 -7.10672,15.33496 14.142136,17.677668 0 0 1 -14.17761,-0.0773 14.142136,17.677668 0 0 1 -6.9994,-15.41189 l 14.1416,0.15426 z"
       id="path4101-6"
       transform="matrix(-0.99999471,-0.00314849,0.00325265,-0.96797092,439.62636,627.50842)"
        inkscape:connector-curvature="0" />
    <path
        style="fill:#ce00ff;fill-opacity:1;stroke:#000000;stroke-width:0.29966298;stroke-miterlimit:4;stroke-dasharray:none;stroke-opacity:1"
        d="m 888.5714,111.6479 a 50.714287,5 0 0 1 -25.485,4.33738 50.714287,5 0 0 1 -50.84151,-0.0219 50.714287,5 0 0 1 -25.10013,-4.35914 l 50.71236,0.0436 z"
       id="path4190"
       transform="matrix(1.0492958,0,0,-10.273077,-587.04587,1339.3948)"
        inkscape:connector-curvature="0" />
      <path
       style="fill:#ce00ff;fill-opacity:1;stroke:#000000;stroke-width:0.98385775;stroke-opacity:1"
          d="M 188.89978,191.53494 H 400.32835 V 212.9687 H 188.89978 Z"
       id="rect4186" inkscape:connector-curvature="0" />
    <path
       style="fill:#008080;fill-opacity:1;stroke:none"
        d="m 234.35539,310.40512 a 14.142136,17.677668 0 0 1 -7.10672,15.33496 14.142136,17.677668 0 0 1 -14.17761,-0.0773 14.142136,17.677668 0 0 1 -6.9994,-15.41189 l 14.1416,0.15426 z"
       id="path4101-6-6"
       transform="matrix(-0.99999471,-0.00314849,0.00325265,-0.96797092,596.0206,623.8165)"
        inkscape:connector-curvature="0" />
      <path
          style="fill:#00ffb2;fill-opacity:1;stroke:#91265d;stroke-width:11.9208374;stroke-linecap:round;stroke-linejoin:round;stroke-miterlimit:4;stroke-dasharray:none;stroke-opacity:1"
          d="m 242.47119,453.44162 h 114.96048 v 24.1994 H 242.47119 Z"
       id="rect4234" inkscape:connector-curvature="0" />
    <path
        style="fill:none;stroke:#ffdc00;stroke-width:13.57492542;stroke-linecap:butt;stroke-linejoin:miter;stroke-miterlimit:4;stroke-dasharray:none;stroke-opacity:1"
       d="m 1228.5714,202.36218 c -0.4297,3.65294 -5.1361,1.22293 -6.0714,-0.71428 -2.5347,-5.24972 2.6198,-10.48465 7.5,-11.42858 8.7294,-1.68845 16.027,6.06196 16.7857,14.28571 1.1134,12.06867 -9.5287,21.67255 -21.0714,22.14287 -15.3846,0.62686 -27.3584,-13.00128 -27.5,-27.85712 -0.1783,-18.69456 16.4759,-33.06429 34.6428,-32.85717 22.0025,0.25084 38.7817,19.95162 38.2143,41.42854 -0.6686,25.3098 -23.4279,44.5063 -48.2142,43.57147 -28.6168,-1.07931 -50.2357,-26.90466 -48.9287,-54.99997 1.4853,-31.92367 30.3817,-55.96848 61.7857,-54.28576 35.2306,1.88776 61.7037,33.85891 59.6429,68.57138 -2.2878,38.53743 -37.3363,67.44077 -75.3571,65.00006"
        id="path4275-2-3"
       transform="matrix(0.38325934,0,0,0.57780617,-106.51236,592.14493)"
        inkscape:connector-curvature="0" />
    <path
        style="fill:none;stroke:#ffdc00;stroke-width:12.34646034;stroke-linecap:butt;stroke-linejoin:miter;stroke-miterlimit:4;stroke-dasharray:none;stroke-opacity:1"
       d="m 1228.5714,202.36218 c -0.4297,3.65294 -5.1361,1.22293 -6.0714,-0.71428 -2.5347,-5.24972 2.6198,-10.48465 7.5,-11.42858 8.7294,-1.68845 16.027,6.06196 16.7857,14.28571 1.1134,12.06867 -9.5287,21.67255 -21.0714,22.14287 -15.3846,0.62686 -27.3584,-13.00128 -27.5,-27.85712 -0.1783,-18.69456 16.4759,-33.06429 34.6428,-32.85717 22.0025,0.25084 38.7817,19.95162 38.2143,41.42854 -0.6686,25.3098 -23.4279,44.5063 -48.2142,43.57147 -28.6168,-1.07931 -50.2357,-26.90466 -48.9287,-54.99997 1.4853,-31.92367 30.3817,-55.96848 61.7857,-54.28576 35.2306,1.88776 61.7037,33.85891 59.6429,68.57138 -2.2878,38.53743 -37.3363,67.44077 -75.3571,65.00006"
        id="path4275-2"
       transform="matrix(0.58641825,0,0,0.44459839,-439.5176,627.52204)"
        inkscape:connector-curvature="0" />
    <path
        style="fill:none;stroke:#ffdc00;stroke-width:7.19999981;stroke-linecap:butt;stroke-linejoin:miter;stroke-miterlimit:4;stroke-dasharray:none;stroke-opacity:1"
       d="m 1228.5714,202.36218 c -0.4297,3.65294 -5.1361,1.22293 -6.0714,-0.71428 -2.5347,-5.24972 2.6198,-10.48465 7.5,-11.42858 8.7294,-1.68845 16.027,6.06196 16.7857,14.28571 1.1134,12.06867 -9.5287,21.67255 -21.0714,22.14287 -15.3846,0.62686 -27.3584,-13.00128 -27.5,-27.85712 -0.1783,-18.69456 16.4759,-33.06429 34.6428,-32.85717 22.0025,0.25084 38.7817,19.95162 38.2143,41.42854 -0.6686,25.3098 -23.4279,44.5063 -48.2142,43.57147 -28.6168,-1.07931 -50.2357,-26.90466 -48.9287,-54.99997 1.4853,-31.92367 30.3817,-55.96848 61.7857,-54.28576 35.2306,1.88776 61.7037,33.85891 59.6429,68.57138 -2.2878,38.53743 -37.3363,67.44077 -75.3571,65.00006"
        id="path4275"
       transform="matrix(0.90616679,0,0,0.6927506,-940.59906,558.41319)"
        inkscape:connector-curvature="0" />
      <path
          style="fill:#ff80b2;fill-rule:evenodd;stroke:#fffb00;stroke-width:24.46650314;stroke-linecap:round;stroke-linejoin:round;stroke-miterlimit:4;stroke-dasharray:none;stroke-opacity:1"
          d="M 116.83286,756.14294 H 409.3953 V 1048.7054 H 116.83286 Z"
       id="rect2985-9-2" inkscape:connector-curvature="0" />
    <path
        style="fill:none;stroke:#252f59;stroke-width:4.0999999;stroke-linecap:round;stroke-linejoin:round;stroke-miterlimit:4;stroke-dasharray:none;stroke-opacity:1"
        d="m 1069.2857,331.29074 a 22.857143,12.5 0 0 1 22.8571,-12.5 22.857143,12.5 0 0 1 22.8572,12.5"
       id="path4534"
       transform="matrix(1.0114538,0,0,0.46778412,-841.45721,683.21087)"
        inkscape:connector-curvature="0" />
    <path
        style="fill:#ff0785;fill-opacity:1;stroke:#ff0785;stroke-width:12.20036507;stroke-linecap:round;stroke-linejoin:round;stroke-miterlimit:4;stroke-dasharray:none;stroke-opacity:1"
        d="m -81.822357,312.42545 a 52.022858,52.022858 0 0 1 -26.142593,45.12859 52.022858,52.022858 0 0 1 -52.15336,-0.22757 52.022858,52.022858 0 0 1 -25.74778,-45.355 l 52.02088,0.45398 z"
       id="path3775-6-7-5-9-2"
       transform="matrix(-0.45510114,0,0,-0.45264601,172.38295,1128.5525)"
        inkscape:connector-curvature="0"
       inkscape:transform-center-x="-32.180533" inkscape:transform-center-y="-15.025492" />
    <path
        style="fill:#00ffff;fill-opacity:1;stroke:#252f59;stroke-width:12.20056152;stroke-miterlimit:4;stroke-dasharray:none;stroke-opacity:1"
        d="m -81.822357,312.42545 a 52.022858,52.022858 0 0 1 -52.022853,52.02285 52.022858,52.022858 0 0 1 -52.02286,-52.02285 52.022858,52.022858 0 0 1 52.02286,-52.02286 52.022858,52.022858 0 0 1 52.022853,52.02286 z"
       id="path3775-6-7-5-2-1"
       transform="matrix(-0.89446432,0,0,-0.89446432,73.895937,1128.5982)"
        inkscape:connector-curvature="0"
       inkscape:transform-center-x="-63.248175" inkscape:transform-center-y="-29.69156" />
    <path
        style="fill:#00ffff;fill-opacity:1;stroke:#252f59;stroke-width:12.20056152;stroke-miterlimit:4;stroke-dasharray:none;stroke-opacity:1"
        d="m -81.822357,312.42545 a 52.022858,52.022858 0 0 1 -52.022853,52.02285 52.022858,52.022858 0 0 1 -52.02286,-52.02285 52.022858,52.022858 0 0 1 52.02286,-52.02286 52.022858,52.022858 0 0 1 52.022853,52.02286 z"
       id="path3775-6-7-5-2-1-2"
       transform="matrix(-0.89446432,0,0,-0.89446432,212.1982,1127.993)"
        inkscape:connector-curvature="0"
       inkscape:transform-center-x="-63.24818" inkscape:transform-center-y="-29.691566" />
      <path
          style="fill:#ff0785;fill-opacity:1;stroke:#ff0785;stroke-width:0;stroke-miterlimit:4;stroke-dasharray:none;stroke-opacity:1"
          d="m 172.04416,984.14099 h 176.05527 v 23.30141 H 172.04416 Z"
       id="rect4457" inkscape:connector-curvature="0" />
    <path
        style="fill:#ff0785;fill-opacity:1;stroke:#ff0785;stroke-width:12.20036507;stroke-linecap:round;stroke-linejoin:round;stroke-miterlimit:4;stroke-dasharray:none;stroke-opacity:1"
        d="m -81.822357,312.42545 a 52.022858,52.022858 0 0 1 -26.142593,45.12859 52.022858,52.022858 0 0 1 -52.15336,-0.22757 52.022858,52.022858 0 0 1 -25.74778,-45.355 l 52.02088,0.45398 z"
       id="path3775-6-7-5-9-2-7"
       transform="matrix(-0.45510114,0,0,-0.45264601,224.13885,1128.3583)"
        inkscape:connector-curvature="0"
       inkscape:transform-center-x="-32.180535" inkscape:transform-center-y="-15.025499" />
      <path
          style="fill:#483737;fill-rule:evenodd;stroke:#feff00;stroke-width:26.58774567;stroke-linecap:round;stroke-linejoin:round;stroke-miterlimit:4;stroke-dasharray:none;stroke-opacity:1"
          d="M 648.22766,827.06067 H 971.08481 V 1140.1339 H 648.22766 Z"
       id="rect2985-9-2-3" inkscape:connector-curvature="0" />
    <path
        style="fill:#916f6f;fill-opacity:1;stroke:#ffd200;stroke-width:12.20056152;stroke-miterlimit:4;stroke-dasharray:none;stroke-opacity:1"
        d="m -81.822357,312.42545 a 52.022858,52.022858 0 0 1 -52.022853,52.02285 52.022858,52.022858 0 0 1 -52.02286,-52.02285 52.022858,52.022858 0 0 1 52.02286,-52.02286 52.022858,52.022858 0 0 1 52.022853,52.02286 z"
       id="path3775-6-7-5-2-1-4"
       transform="matrix(-0.98708574,0,0,-0.9571729,600.84459,1225.6278)"
        inkscape:connector-curvature="0"
       inkscape:transform-center-x="-69.797498" inkscape:transform-center-y="-31.773161" />
      <path
          style="fill:#ffaaaa;fill-opacity:1;stroke:#da3083;stroke-width:14.5740242;stroke-linecap:round;stroke-linejoin:round;stroke-miterlimit:4;stroke-dasharray:none;stroke-opacity:1"
          d="m 709.15613,1055.8049 h 194.28572 v 40.1731 H 709.15613 Z"
       id="rect4457-8" inkscape:connector-curvature="0" />
      <path
          style="fill:#d62142;fill-opacity:1;stroke:#000000;stroke-width:3.86703992;stroke-miterlimit:4;stroke-dasharray:none;stroke-opacity:1"
          d="m 825.90613,798.97406 h 87.34776 v 14.54544 h -87.34776 z"
       id="rect4619" inkscape:connector-curvature="0" />
      <path
       style="fill:#ff6600;fill-opacity:1;stroke:none"
          d="m 766.52191,745.44836 h 11.25665 v 7.23792 h -11.25665 z"
       id="rect4621" inkscape:connector-curvature="0" />
    <path
        style="fill:#d62142;fill-opacity:1;stroke:#000000;stroke-width:1.04402685;stroke-miterlimit:4;stroke-dasharray:none;stroke-opacity:1"
        d="m 888.5714,111.6479 a 50.714287,5 0 0 1 -25.485,4.33738 50.714287,5 0 0 1 -50.84151,-0.0219 50.714287,5 0 0 1 -25.10013,-4.35914 l 50.71236,0.0436 z"
       id="path4190-0"
       transform="matrix(1.125507,0,0,-12.189496,-169.27522,2174.2969)"
        inkscape:connector-curvature="0" />
    <path
       style="fill:#ff6600;fill-opacity:1;stroke:none"
        d="m 2068.7923,317.98129 a 13.637059,12.121831 0 0 1 -13.637,12.12183 13.637059,12.121831 0 0 1 -13.6371,-12.12183 13.637059,12.121831 0 0 1 13.6371,-12.12183 13.637059,12.121831 0 0 1 13.637,12.12183 z"
       id="path4623"
       transform="matrix(1,0,0,0.96969581,-1321.9513,617.15124)" inkscape:connector-curvature="0" />
    <path
        style="fill:#916f6f;fill-opacity:1;stroke:#ffd200;stroke-width:12.20056152;stroke-miterlimit:4;stroke-dasharray:none;stroke-opacity:1"
        d="m -81.822357,312.42545 a 52.022858,52.022858 0 0 1 -52.022853,52.02285 52.022858,52.022858 0 0 1 -52.02286,-52.02285 52.022858,52.022858 0 0 1 52.02286,-52.02286 52.022858,52.022858 0 0 1 52.022853,52.02286 z"
       id="path3775-6-7-5-2-1-4-3"
       transform="matrix(-0.98708574,0,0,-0.9571729,759.07468,1222.5824)"
        inkscape:connector-curvature="0"
       inkscape:transform-center-x="-69.797498" inkscape:transform-center-y="-31.773161" />
    <path
       style="fill:#ff6600;fill-opacity:1;stroke:none"
        d="m 2068.7923,317.98129 a 13.637059,12.121831 0 0 1 -13.637,12.12183 13.637059,12.121831 0 0 1 -13.6371,-12.12183 13.637059,12.121831 0 0 1 13.6371,-12.12183 13.637059,12.121831 0 0 1 13.637,12.12183 z"
       id="path4623-6"
       transform="matrix(1,0,0,0.96969581,-1163.7212,614.1059)" inkscape:connector-curvature="0" />
    <path
        style="fill:none;stroke:#ff00c4;stroke-width:5.21570635;stroke-linecap:butt;stroke-linejoin:miter;stroke-miterlimit:4;stroke-dasharray:none;stroke-opacity:1"
        d="m -800.08769,-345.28542 v -87.23423 l 12.85077,-15.65742 280.88121,3.35515 13.76871,20.13099 -0.11483,80.3841"
       id="path4837"
       inkscape:connector-curvature="0"
       inkscape:export-filename="/home/stanislav/AndroidStudioProjects/RoboPoetry/app/src/main/res/drawable/face4.png"
       inkscape:export-xdpi="167.2" inkscape:export-ydpi="167.2" sodipodi:nodetypes="cccccc" />
    <path
        style="fill:#ff00a8;fill-opacity:1;stroke:#252b49;stroke-width:12.20051861;stroke-miterlimit:4;stroke-dasharray:none;stroke-opacity:1"
        d="m -81.822357,312.42545 a 52.022858,52.022858 0 0 1 -26.142593,45.12859 52.022858,52.022858 0 0 1 -52.15336,-0.22757 52.022858,52.022858 0 0 1 -25.74778,-45.355 l 52.02088,0.45398 z"
       id="path3775-6-7-1-6-4"
       transform="matrix(0,-0.74351251,0.59675361,0,-692.73991,-410.69835)"
        inkscape:connector-curvature="0" />
    <path
        style="fill:#ff00a8;fill-opacity:1;stroke:#252b49;stroke-width:12.20051861;stroke-miterlimit:4;stroke-dasharray:none;stroke-opacity:1"
        d="m -81.822357,312.42545 a 52.022858,52.022858 0 0 1 -26.142593,45.12859 52.022858,52.022858 0 0 1 -52.15336,-0.22757 52.022858,52.022858 0 0 1 -25.74778,-45.355 l 52.02088,0.45398 z"
       id="path3775-6-7-1-6-4-5"
       transform="matrix(0,0.74351251,-0.66464695,0,-574.78954,-211.70517)"
        inkscape:connector-curvature="0" />
      <path
          style="fill:#ff00ff;fill-rule:evenodd;stroke:#000000;stroke-width:23.58694458;stroke-linecap:round;stroke-linejoin:round;stroke-miterlimit:4;stroke-dasharray:none;stroke-opacity:1"
          d="m -776.30914,-411.3428 h 263.21875 v 302.21768 h -263.21875 z"
       id="rect2985-9-2-3-1" inkscape:connector-curvature="0" />
    <path
        style="fill:#ffbaba;fill-opacity:1;stroke:#030200;stroke-width:12.20056152;stroke-miterlimit:4;stroke-dasharray:none;stroke-opacity:1"
        d="m -81.822357,312.42545 a 52.022858,52.022858 0 0 1 -52.022853,52.02285 52.022858,52.022858 0 0 1 -52.02286,-52.02285 52.022858,52.022858 0 0 1 52.02286,-52.02286 52.022858,52.022858 0 0 1 52.022853,52.02286 z"
       id="path3775-6-7-5-2-1-4-6-3"
       transform="matrix(-0.81823853,0,0,-0.81823853,-686.5382,-86.349911)"
        inkscape:connector-curvature="0"
       inkscape:transform-center-x="-57.858189" inkscape:transform-center-y="-27.161259" />
    <path
        style="fill:#ff00a8;fill-opacity:1;stroke:#252b49;stroke-width:12.20051861;stroke-miterlimit:4;stroke-dasharray:none;stroke-opacity:1"
        d="m -81.822357,312.42545 a 52.022858,52.022858 0 0 1 -26.142593,45.12859 52.022858,52.022858 0 0 1 -52.15336,-0.22757 52.022858,52.022858 0 0 1 -25.74778,-45.355 l 52.02088,0.45398 z"
       id="path3775-6-7-1-6"
       transform="matrix(-1.0702295,0,0,-0.31526706,-785.32795,-59.839991)"
        inkscape:connector-curvature="0" />
    <path
        style="fill:#ffbaba;fill-opacity:1;stroke:#030200;stroke-width:12.20056152;stroke-miterlimit:4;stroke-dasharray:none;stroke-opacity:1"
        d="m -81.822357,312.42545 a 52.022858,52.022858 0 0 1 -52.022853,52.02285 52.022858,52.022858 0 0 1 -52.02286,-52.02285 52.022858,52.022858 0 0 1 52.02286,-52.02286 52.022858,52.022858 0 0 1 52.022853,52.02286 z"
       id="path3775-6-7-5-2-1-4-6"
       transform="matrix(-0.78570153,0,0,-0.78570153,-815.12456,-96.534301)"
        inkscape:connector-curvature="0"
       inkscape:transform-center-x="-55.557478" inkscape:transform-center-y="-26.081197" />
    <path
       style="fill:#008000;fill-opacity:1;stroke:none"
        d="m 2068.7923,317.98129 a 13.637059,12.121831 0 0 1 -13.637,12.12183 13.637059,12.121831 0 0 1 -13.6371,-12.12183 13.637059,12.121831 0 0 1 13.6371,-12.12183 13.637059,12.121831 0 0 1 13.637,12.12183 z"
       id="path4623-9"
       transform="matrix(0.79598105,0,0,0.79598105,-2345.6337,-596.00619)"
        inkscape:connector-curvature="0" />
    <path
       style="fill:#008000;fill-opacity:1;stroke:none"
        d="m 2068.7923,317.98129 a 13.637059,12.121831 0 0 1 -13.637,12.12183 13.637059,12.121831 0 0 1 -13.6371,-12.12183 13.637059,12.121831 0 0 1 13.6371,-12.12183 13.637059,12.121831 0 0 1 13.637,12.12183 z"
       id="path4623-9-7"
       transform="matrix(0.82894372,0,0,0.82894372,-2280.4278,-606.50562)"
        inkscape:connector-curvature="0" />
    <path
       style="fill:#800080;stroke:#000000;stroke-width:0.89201158px;stroke-linecap:butt;stroke-linejoin:miter;stroke-opacity:1"
       d="m -778.41528,-422.22832 257.43607,1.33724 -37.64394,129.7129 z"
       id="path4752"
       inkscape:connector-curvature="0"
       inkscape:export-filename="/home/stanislav/AndroidStudioProjects/RoboPoetry/app/src/main/res/drawable/face4.png"
       inkscape:export-xdpi="167.2" inkscape:export-ydpi="167.2" sodipodi:nodetypes="cccc" />
    <path
       style="fill:#f41149;fill-opacity:1;stroke:none"
        d="M 205,403.43362 A 17.142857,25.357143 0 0 1 187.85715,428.79077 17.142857,25.357143 0 0 1 170.71429,403.43362 17.142857,25.357143 0 0 1 187.85715,378.07648 17.142857,25.357143 0 0 1 205,403.43362 Z"
       id="path4839"
       transform="matrix(1.4990044,0,0,1,-1608.7102,-5.5389844)" inkscape:connector-curvature="0" />
    <path
       style="fill:#f41149;fill-opacity:1;stroke:none"
        d="M 205,403.43362 A 17.142857,25.357143 0 0 1 187.85715,428.79077 17.142857,25.357143 0 0 1 170.71429,403.43362 17.142857,25.357143 0 0 1 187.85715,378.07648 17.142857,25.357143 0 0 1 205,403.43362 Z"
       id="path4839-2"
       transform="matrix(1.4990044,0,0,1,-1382.9944,-5.9421894)" inkscape:connector-curvature="0" />
  </g>
</svg>
