<!-- Created with Inkscape (http://www.inkscape.org/) -->
<svg height="410.31" version="1.1" viewBox="0 0 92.451057 108.56035" width="349.42"
    xmlns="http://www.w3.org/2000/svg">
    <path d="m5.5685 43.541v-22.874l3.3698-4.1057 73.653 0.8798 3.6105 5.2788-0.03011 21.078"
        fill="none" stroke="#ff00c4" stroke-width="1.3677" />
    <path
        d="m82.606 42.341a8.1406 10.143 0 0 1 7.0618 5.0969 8.1406 10.143 0 0 1 -0.03561 10.168 8.1406 10.143 0 0 1 -7.0972 5.0199l0.07104-10.142z"
        fill="#ff00a8" stroke="#252b49" stroke-width="2.131" />
    <path
        d="m10.196 62.617a9.0668 10.143 0 0 1 -7.8657 -5.097 9.0668 10.143 0 0 1 0.0397 -10.168 9.0668 10.143 0 0 1 7.905 -5.02l-0.07912 10.142z"
        fill="#ff00a8" stroke="#252b49" stroke-width="2.249" />
    <path d="m11.804 26.22h69.022v79.248h-69.022z" fill="#f0f" fill-rule="evenodd" stroke="#000"
        stroke-linecap="round" stroke-linejoin="round" stroke-width="6.185" />
    <path
        d="m52.9 44.406a11.162 11.162 0 0 1 11.162 -11.162 11.162 11.162 0 0 1 11.162 11.162 11.162 11.162 0 0 1 -11.162 11.162 11.162 11.162 0 0 1 -11.162 -11.162z"
        fill="#ffbaba" stroke="#030200" stroke-width="2.6178" />
    <path
        d="m32.401 92.563a14.6 4.3007 0 0 1 7.3366 -3.7308 14.6 4.3007 0 0 1 14.636 0.01881 14.6 4.3007 0 0 1 7.2258 3.7495l-14.599-0.03753z"
        fill="#ff00a8" stroke="#252b49" stroke-width="1.8583" />
    <path
        d="m18.483 44.401a10.718 10.718 0 0 1 10.718 -10.718 10.718 10.718 0 0 1 10.719 10.718 10.718 10.718 0 0 1 -10.719 10.718 10.718 10.718 0 0 1 -10.718 -10.718z"
        fill="#ffbaba" stroke="#030200" stroke-width="2.5137" />
    <path
        d="m32.098 44.167a2.8464 2.5301 0 0 1 -2.8464 2.5301 2.8464 2.5301 0 0 1 -2.8464 -2.5301 2.8464 2.5301 0 0 1 2.8464 -2.5301 2.8464 2.5301 0 0 1 2.8464 2.5301z"
        fill="#008000" />
    <path
        d="m67.079 44.162a2.9643 2.6349 0 0 1 -2.9643 2.6349 2.9643 2.6349 0 0 1 -2.9643 -2.6349 2.9643 2.6349 0 0 1 2.9643 -2.6349 2.9643 2.6349 0 0 1 2.9643 2.6349z"
        fill="#008000" />
    <path d="m11.252 23.365 67.505 0.35065-9.8711 34.014z" fill="#800080" stroke="#000"
        stroke-width=".23391px" />
</svg>
