<!-- Created with Inkscape (http://www.inkscape.org/) -->
<svg height="410.31" version="1.1" viewBox="0 0 92.451057 108.56035" width="349.42"
    xmlns="http://www.w3.org/2000/svg">
    <path d="m3.5719 19.566h85.422v85.424h-85.422z" fill="#e5ff80" fill-rule="evenodd"
        stroke="#ff008a" stroke-linecap="round" stroke-linejoin="round" stroke-width="7.1437" />
    <path
        d="m50.136 47.368a11.401 8.7678 0 0 1 5.7295 -7.6059 11.401 8.7678 0 0 1 11.43 0.03835 11.401 8.7678 0 0 1 5.643 7.644l-11.401-0.07651z"
        fill="#49ff00" stroke="#ff0785" stroke-width="2.3448" />
    <path
        d="m18.716 47.532a10.977 8.4417 0 0 1 5.5164 -7.3229 10.977 8.4417 0 0 1 11.005 0.03693 10.977 8.4417 0 0 1 5.4331 7.3597l-10.976-0.074z"
        fill="#49ff00" stroke="#ff0785" stroke-width="2.2576" />
    <path d="m29.753 83.064h33.262v6.2366h-33.262z" fill="#f00" />
    <path
        d="m32.256 42.114a2.9841 3.7302 0 0 1 -1.4996 3.2358 2.9841 3.7302 0 0 1 -2.9916 -0.01632 2.9841 3.7302 0 0 1 -1.4769 -3.2521l2.984 0.03255z"
        fill="#008080" />
    <path
        d="m64.659 41.74a3.0994 3.8743 0 0 1 -1.5575 3.3609 3.0994 3.8743 0 0 1 -3.1072 -0.01695 3.0994 3.8743 0 0 1 -1.534 -3.3777l3.0993 0.03381z"
        fill="#008080" />
    <path
        d="m22.791 64.331a6.7991 6.7091 0 0 1 -6.7991 6.7091 6.7991 6.7091 0 0 1 -6.7991 -6.7091 6.7991 6.7091 0 0 1 6.7991 -6.7091 6.7991 6.7091 0 0 1 6.7991 6.7091z"
        fill="#f41149" />
    <path
        d="m82.512 64.224a6.7991 6.7091 0 0 1 -6.7991 6.7091 6.7991 6.7091 0 0 1 -6.7991 -6.7091 6.7991 6.7091 0 0 1 6.7991 -6.7091 6.7991 6.7091 0 0 1 6.7991 6.7091z"
        fill="#f41149" />
    <path
        d="m45.833 1.1023v12.695l-5.4222-12.474-0.665 0.052718 6.071 13.966 0.4162-0.03329h0.1133l0.17342 0.01387 6.072-13.966-0.665-0.0535-5.416 12.46v-12.662z"
        fill="#ff0" stroke="#f00" stroke-linejoin="round" stroke-width="1.4602" />
</svg>
