<!-- Created with Inkscape (http://www.inkscape.org/) -->
<svg height="410.31" version="1.1" viewBox="0 0 92.451057 108.56035" width="349.42"
    xmlns="http://www.w3.org/2000/svg">
    <path d="m3.5173 22.209h85.423v82.831h-85.423z" fill="#483737" fill-rule="evenodd"
        stroke="#feff00" stroke-linecap="round" stroke-linejoin="round" stroke-width="7.0347" />
    <path
        d="m12.35 48.541a13.587 13.175 0 0 1 13.586 -13.175 13.587 13.175 0 0 1 13.587 13.175 13.587 13.175 0 0 1 -13.587 13.175 13.587 13.175 0 0 1 -13.586 -13.175z"
        fill="#916f6f" stroke="#ffd200" stroke-width="3.1377" />
    <path d="m19.638 82.731h51.405v10.629h-51.405z" fill="#faa" stroke="#da3083"
        stroke-linecap="round" stroke-linejoin="round" stroke-width="3.856" />
    <path d="m50.528 14.778h23.111v3.8485h-23.111z" fill="#d62142" stroke="#000"
        stroke-width="1.0232" />
    <path d="m34.816 0.61581h2.9783v1.915h-2.9783z" fill="#f60" />
    <path
        d="m51.828 18.585a15.102 16.126 0 0 0 -7.589 -13.988 15.102 16.126 0 0 0 -15.141 0.0704 15.102 16.126 0 0 0 -7.474 14.059l15.102-0.14072z"
        fill="#d62142" stroke="#000" stroke-width="1.0232" />
    <path
        d="m29.609 48.254a3.6081 3.11 0 0 1 -3.6081 3.11 3.6081 3.11 0 0 1 -3.6081 -3.11 3.6081 3.11 0 0 1 3.6081 -3.11 3.6081 3.11 0 0 1 3.6081 3.11z"
        fill="#f60" />
    <path
        d="m54.215 47.735a13.587 13.175 0 0 1 13.586 -13.175 13.587 13.175 0 0 1 13.587 13.175 13.587 13.175 0 0 1 -13.587 13.175 13.587 13.175 0 0 1 -13.586 -13.175z"
        fill="#916f6f" stroke="#ffd200" stroke-width="3.1377" />
    <path
        d="m71.474 47.448a3.6081 3.11 0 0 1 -3.608 3.11 3.6081 3.11 0 0 1 -3.608 -3.11 3.6081 3.11 0 0 1 3.608 -3.11 3.6081 3.11 0 0 1 3.608 3.11z"
        fill="#f60" />
</svg>
