<?xml version="1.0" encoding="UTF-8" standalone="no"?>
<!-- Created with Inkscape (http://www.inkscape.org/) -->

<svg
   xmlns:dc="http://purl.org/dc/elements/1.1/"
   xmlns:cc="http://creativecommons.org/ns#"
   xmlns:rdf="http://www.w3.org/1999/02/22-rdf-syntax-ns#"
   xmlns:svg="http://www.w3.org/2000/svg"
   xmlns="http://www.w3.org/2000/svg"
   version="1.1"
   width="349.84375"
   height="412.44147"
   id="svg2">
  <defs
     id="defs4" />
  <metadata
     id="metadata7">
    <rdf:RDF>
      <cc:Work
         rdf:about="">
        <dc:format>image/svg+xml</dc:format>
        <dc:type
           rdf:resource="http://purl.org/dc/dcmitype/StillImage" />
        <dc:title></dc:title>
      </cc:Work>
    </rdf:RDF>
  </metadata>
  <g
     transform="translate(-123.65625,-139.12104)"
     id="layer1">
    <rect
       width="2.8571429"
       height="60"
       x="-1213.6685"
       y="155.68723"
       id="rect4032"
       style="fill:#ffff00;fill-opacity:1;stroke:#ff0000;stroke-width:6.16699982;stroke-linejoin:round;stroke-miterlimit:4;stroke-opacity:1;stroke-dasharray:none" />
    <rect
       width="2.8177547"
       height="64.317047"
       x="-1085.7714"
       y="264.91284"
       transform="matrix(0.9968278,0.07958857,-0.39865814,0.91709961,0,0)"
       id="rect4032-3"
       style="fill:#ffff00;fill-opacity:1;stroke:#ff0000;stroke-width:6.34084272;stroke-linejoin:round;stroke-miterlimit:4;stroke-opacity:1;stroke-dasharray:none" />
    <rect
       width="2.8177547"
       height="64.317047"
       x="1264.9015"
       y="61.003754"
       transform="matrix(-0.9968278,0.07958857,0.39865814,0.91709961,0,0)"
       id="rect4032-3-6"
       style="fill:#ffff00;fill-opacity:1;stroke:#ff0000;stroke-width:6.34084272;stroke-linejoin:round;stroke-miterlimit:4;stroke-opacity:1;stroke-dasharray:none" />
    <rect
       width="322.85715"
       height="322.85715"
       x="-1374.0538"
       y="228.70535"
       id="rect2985"
       style="fill:#e5ff80;fill-rule:evenodd;stroke:#ff008a;stroke-width:27;stroke-linecap:round;stroke-linejoin:round;stroke-miterlimit:4;stroke-opacity:1;stroke-dasharray:none" />
    <path
       d="m -81.822357,312.42545 a 52.022858,52.022858 0 1 1 -104.043733,-0.45398 l 52.02088,0.45398 z"
       transform="matrix(-0.82833218,0,0,-0.63699249,-1265.8383,532.79544)"
       id="path3775-6-7"
       style="fill:#49ff00;fill-opacity:1;stroke:#ff0785;stroke-width:12.20051861;stroke-miterlimit:4;stroke-opacity:1;stroke-dasharray:none" />
    <path
       d="m -81.822357,312.42545 a 52.022858,52.022858 0 1 1 -104.043733,-0.45398 l 52.02088,0.45398 z"
       transform="matrix(-0.79752001,0,0,-0.61329774,-1382.0703,526.01541)"
       id="path3775-6-7-5"
       style="fill:#49ff00;fill-opacity:1;stroke:#ff0785;stroke-width:12.20051861;stroke-miterlimit:4;stroke-opacity:1;stroke-dasharray:none" />
    <rect
       width="125.71429"
       height="23.571428"
       x="-1275.1016"
       y="468.69833"
       id="rect3846"
       style="fill:#ff0000;fill-opacity:1;stroke:none" />
    <path
       d="m 234.35539,310.40512 a 14.142136,17.677668 0 1 1 -28.28373,-0.15426 l 14.1416,0.15426 z"
       transform="matrix(0.79752001,0,0,0.79752001,-1452.5456,66.372835)"
       id="path4101"
       style="fill:#008080;fill-opacity:1;stroke:none" />
    <path
       d="m 234.35539,310.40512 a 14.142136,17.677668 0 1 1 -28.28373,-0.15426 l 14.1416,0.15426 z"
       transform="matrix(0.82833218,0,0,0.82833218,-1337.2982,55.394587)"
       id="path4101-2"
       style="fill:#008080;fill-opacity:1;stroke:none" />
    <rect
       width="322.85715"
       height="322.85715"
       x="-828.23724"
       y="265.24466"
       id="rect2985-9"
       style="fill:#ac9d93;fill-rule:evenodd;stroke:#23ff00;stroke-width:27;stroke-linecap:round;stroke-linejoin:round;stroke-miterlimit:4;stroke-opacity:1;stroke-dasharray:none" />
    <path
       d="m -81.822357,312.42545 a 52.022858,52.022858 0 1 1 -104.043733,-0.45398 l 52.02088,0.45398 z"
       transform="matrix(-0.99374041,0,0,-0.87093124,-721.20005,649.83731)"
       id="path3775-6-7-1"
       style="fill:#00ffb2;fill-opacity:1;stroke:#91265d;stroke-width:12.20051861;stroke-miterlimit:4;stroke-opacity:1;stroke-dasharray:none" />
    <path
       d="m -81.822357,312.42545 a 52.022858,52.022858 0 1 1 -104.045713,0 52.022858,52.022858 0 1 1 104.045713,0 z"
       transform="matrix(-0.98708574,0,0,-0.98708574,-875.26303,674.48174)"
       id="path3775-6-7-5-2"
       style="fill:#00ffb2;fill-opacity:1;stroke:#91265d;stroke-width:12.20056152;stroke-miterlimit:4;stroke-opacity:1;stroke-dasharray:none" />
    <path
       d="m 234.35539,310.40512 a 14.142136,17.677668 0 1 1 -28.28373,-0.15426 l 14.1416,0.15426 z"
       transform="matrix(-0.99999471,-0.00325265,0.00325265,-0.99999471,-526.05917,680.99071)"
       id="path4101-6"
       style="fill:#008080;fill-opacity:1;stroke:none" />
    <path
       d="m 888.5714,111.6479 a 50.714287,5 0 1 1 -101.42664,-0.0436 l 50.71236,0.0436 z"
       transform="matrix(1.0492958,0,0,-10.612945,-1552.7314,1416.4287)"
       id="path4190"
       style="fill:#ce00ff;fill-opacity:1;stroke:#000000;stroke-width:0.29966298;stroke-miterlimit:4;stroke-opacity:1;stroke-dasharray:none" />
    <rect
       width="211.42857"
       height="22.142859"
       x="-776.78577"
       y="230.59375"
       id="rect4186"
       style="fill:#ce00ff;fill-opacity:1;stroke:#000000;stroke-opacity:1" />
    <path
       d="m 234.35539,310.40512 a 14.142136,17.677668 0 1 1 -28.28373,-0.15426 l 14.1416,0.15426 z"
       transform="matrix(-0.99999471,-0.00325265,0.00325265,-0.99999471,-369.66493,677.17665)"
       id="path4101-6-6"
       style="fill:#008080;fill-opacity:1;stroke:none" />
    <rect
       width="114.96048"
       height="25"
       x="-723.21436"
       y="501.16519"
       id="rect4234"
       style="fill:#00ffb2;fill-opacity:1;stroke:#91265d;stroke-width:12.11642361;stroke-linecap:round;stroke-linejoin:round;stroke-miterlimit:4;stroke-opacity:1;stroke-dasharray:none" />
    <path
       d="m 1228.5714,202.36218 c -0.4297,3.65294 -5.1361,1.22293 -6.0714,-0.71428 -2.5347,-5.24972 2.6198,-10.48465 7.5,-11.42858 8.7294,-1.68845 16.027,6.06196 16.7857,14.28571 1.1134,12.06867 -9.5287,21.67255 -21.0714,22.14287 -15.3846,0.62686 -27.3584,-13.00128 -27.5,-27.85712 -0.1783,-18.69456 16.4759,-33.06429 34.6428,-32.85717 22.0025,0.25084 38.7817,19.95162 38.2143,41.42854 -0.6686,25.3098 -23.4279,44.5063 -48.2142,43.57147 -28.6168,-1.07931 -50.2357,-26.90466 -48.9287,-54.99997 1.4853,-31.92367 30.3817,-55.96848 61.7857,-54.28576 35.2306,1.88776 61.7037,33.85891 59.6429,68.57138 -2.2878,38.53743 -37.3363,67.44077 -75.3571,65.00006"
       transform="matrix(0.38325934,0,0,0.57780617,-72.226645,80.716354)"
       id="path4275-2-3"
       style="fill:none;stroke:#ffdc00;stroke-width:13.57492542;stroke-linecap:butt;stroke-linejoin:miter;stroke-miterlimit:4;stroke-opacity:1;stroke-dasharray:none" />
    <path
       d="m 1228.5714,202.36218 c -0.4297,3.65294 -5.1361,1.22293 -6.0714,-0.71428 -2.5347,-5.24972 2.6198,-10.48465 7.5,-11.42858 8.7294,-1.68845 16.027,6.06196 16.7857,14.28571 1.1134,12.06867 -9.5287,21.67255 -21.0714,22.14287 -15.3846,0.62686 -27.3584,-13.00128 -27.5,-27.85712 -0.1783,-18.69456 16.4759,-33.06429 34.6428,-32.85717 22.0025,0.25084 38.7817,19.95162 38.2143,41.42854 -0.6686,25.3098 -23.4279,44.5063 -48.2142,43.57147 -28.6168,-1.07931 -50.2357,-26.90466 -48.9287,-54.99997 1.4853,-31.92367 30.3817,-55.96848 61.7857,-54.28576 35.2306,1.88776 61.7037,33.85891 59.6429,68.57138 -2.2878,38.53743 -37.3363,67.44077 -75.3571,65.00006"
       transform="matrix(0.58641825,0,0,0.44459839,-405.23189,116.09346)"
       id="path4275-2"
       style="fill:none;stroke:#ffdc00;stroke-width:12.34646034;stroke-linecap:butt;stroke-linejoin:miter;stroke-miterlimit:4;stroke-opacity:1;stroke-dasharray:none" />
    <path
       d="m 1228.5714,202.36218 c -0.4297,3.65294 -5.1361,1.22293 -6.0714,-0.71428 -2.5347,-5.24972 2.6198,-10.48465 7.5,-11.42858 8.7294,-1.68845 16.027,6.06196 16.7857,14.28571 1.1134,12.06867 -9.5287,21.67255 -21.0714,22.14287 -15.3846,0.62686 -27.3584,-13.00128 -27.5,-27.85712 -0.1783,-18.69456 16.4759,-33.06429 34.6428,-32.85717 22.0025,0.25084 38.7817,19.95162 38.2143,41.42854 -0.6686,25.3098 -23.4279,44.5063 -48.2142,43.57147 -28.6168,-1.07931 -50.2357,-26.90466 -48.9287,-54.99997 1.4853,-31.92367 30.3817,-55.96848 61.7857,-54.28576 35.2306,1.88776 61.7037,33.85891 59.6429,68.57138 -2.2878,38.53743 -37.3363,67.44077 -75.3571,65.00006"
       transform="matrix(0.90616679,0,0,0.6927506,-906.31335,46.984614)"
       id="path4275"
       style="fill:none;stroke:#ffdc00;stroke-width:7.19999981;stroke-linecap:butt;stroke-linejoin:miter;stroke-miterlimit:4;stroke-opacity:1;stroke-dasharray:none" />
    <rect
       width="292.56244"
       height="292.56244"
       x="151.11855"
       y="244.71436"
       id="rect2985-9-2"
       style="fill:#ff80b2;fill-rule:evenodd;stroke:#fffb00;stroke-width:24.46650314;stroke-linecap:round;stroke-linejoin:round;stroke-miterlimit:4;stroke-opacity:1;stroke-dasharray:none" />
    <path
       d="m 1069.2857,331.29074 a 22.857143,12.5 0 0 1 45.7143,0"
       transform="matrix(1.0114538,0,0,0.46778412,-807.1715,171.78229)"
       id="path4534"
       style="fill:none;stroke:#252f59;stroke-width:4.0999999;stroke-linecap:round;stroke-linejoin:round;stroke-miterlimit:4;stroke-opacity:1;stroke-dasharray:none" />
    <path
       d="m -81.822357,312.42545 a 52.022858,52.022858 0 1 1 -104.043733,-0.45398 l 52.02088,0.45398 z"
       transform="matrix(-0.45510114,0,0,-0.45264601,206.66866,617.12397)"
       id="path3775-6-7-5-9-2"
       style="fill:#ff0785;fill-opacity:1;stroke:#ff0785;stroke-width:12.20036507;stroke-linecap:round;stroke-linejoin:round;stroke-miterlimit:4;stroke-opacity:1;stroke-dasharray:none" />
    <path
       d="m -81.822357,312.42545 a 52.022858,52.022858 0 1 1 -104.045713,0 52.022858,52.022858 0 1 1 104.045713,0 z"
       transform="matrix(-0.89446432,0,0,-0.89446432,108.18165,617.16964)"
       id="path3775-6-7-5-2-1"
       style="fill:#ff00ff;fill-opacity:1;stroke:#252f59;stroke-width:12.20056152;stroke-miterlimit:4;stroke-opacity:1;stroke-dasharray:none" />
    <path
       d="m -81.822357,312.42545 a 52.022858,52.022858 0 1 1 -104.045713,0 52.022858,52.022858 0 1 1 104.045713,0 z"
       transform="matrix(-0.89446432,0,0,-0.89446432,246.48391,616.56445)"
       id="path3775-6-7-5-2-1-2"
       style="fill:#ff00ff;fill-opacity:1;stroke:#252f59;stroke-width:12.20056152;stroke-miterlimit:4;stroke-opacity:1;stroke-dasharray:none" />
    <rect
       width="176.05527"
       height="23.301432"
       x="206.3299"
       y="472.7124"
       id="rect4457"
       style="fill:#ff0785;fill-opacity:1;stroke:#ff0785;stroke-width:0;stroke-miterlimit:4;stroke-opacity:1;stroke-dasharray:none" />
    <path
       d="m -81.822357,312.42545 a 52.022858,52.022858 0 1 1 -104.043733,-0.45398 l 52.02088,0.45398 z"
       transform="matrix(-0.45510114,0,0,-0.45264601,258.42456,616.92969)"
       id="path3775-6-7-5-9-2-7"
       style="fill:#ff0785;fill-opacity:1;stroke:#ff0785;stroke-width:12.20036507;stroke-linecap:round;stroke-linejoin:round;stroke-miterlimit:4;stroke-opacity:1;stroke-dasharray:none" />
    <rect
       width="322.85715"
       height="313.07321"
       x="648.22766"
       y="827.06067"
       id="rect2985-9-2-3"
       style="fill:#483737;fill-rule:evenodd;stroke:#feff00;stroke-width:26.58774567;stroke-linecap:round;stroke-linejoin:round;stroke-miterlimit:4;stroke-opacity:1;stroke-dasharray:none" />
    <path
       d="m -81.822357,312.42545 a 52.022858,52.022858 0 1 1 -104.045713,0 52.022858,52.022858 0 1 1 104.045713,0 z"
       transform="matrix(-0.98708574,0,0,-0.9571729,600.84459,1225.6278)"
       id="path3775-6-7-5-2-1-4"
       style="fill:#916f6f;fill-opacity:1;stroke:#ffd200;stroke-width:12.20056152;stroke-miterlimit:4;stroke-opacity:1;stroke-dasharray:none" />
    <rect
       width="194.28572"
       height="40.173111"
       x="709.15613"
       y="1055.8049"
       id="rect4457-8"
       style="fill:#ffaaaa;fill-opacity:1;stroke:#da3083;stroke-width:14.5740242;stroke-linecap:round;stroke-linejoin:round;stroke-miterlimit:4;stroke-opacity:1;stroke-dasharray:none" />
    <rect
       width="87.347763"
       height="14.545437"
       x="825.90613"
       y="798.97406"
       id="rect4619"
       style="fill:#d62142;fill-opacity:1;stroke:#000000;stroke-width:3.86703992;stroke-miterlimit:4;stroke-opacity:1;stroke-dasharray:none" />
    <path
       d="m 888.5714,111.6479 a 50.714287,5 0 1 1 -101.42664,-0.0436 l 50.71236,0.0436 z"
       transform="matrix(1.125507,0,0,-12.189496,-169.27522,2174.2969)"
       id="path4190-0"
       style="fill:#d62142;fill-opacity:1;stroke:#000000;stroke-width:1.04402685;stroke-miterlimit:4;stroke-opacity:1;stroke-dasharray:none" />
    <rect
       width="11.256648"
       height="7.2379112"
       x="767.46204"
       y="743.9118"
       id="rect4621"
       style="fill:#ff6600;fill-opacity:1;stroke:none" />
    <path
       d="m 2068.7923,317.98129 a 13.637059,12.121831 0 1 1 -27.2741,0 13.637059,12.121831 0 1 1 27.2741,0 z"
       transform="matrix(1,0,0,0.96969581,-1321.9513,617.15124)"
       id="path4623"
       style="fill:#ff6600;fill-opacity:1;stroke:none" />
    <path
       d="m -81.822357,312.42545 a 52.022858,52.022858 0 1 1 -104.045713,0 52.022858,52.022858 0 1 1 104.045713,0 z"
       transform="matrix(-0.98708574,0,0,-0.9571729,759.07468,1222.5824)"
       id="path3775-6-7-5-2-1-4-3"
       style="fill:#916f6f;fill-opacity:1;stroke:#ffd200;stroke-width:12.20056152;stroke-miterlimit:4;stroke-opacity:1;stroke-dasharray:none" />
    <path
       d="m 2068.7923,317.98129 a 13.637059,12.121831 0 1 1 -27.2741,0 13.637059,12.121831 0 1 1 27.2741,0 z"
       transform="matrix(1,0,0,0.96969581,-1163.7212,614.1059)"
       id="path4623-6"
       style="fill:#ff6600;fill-opacity:1;stroke:none" />
    <path
       d="m -800.08769,-345.28542 0,-87.23423 12.85077,-15.65742 280.88121,3.35515 13.76871,20.13099 -0.11483,80.3841"
       id="path4837"
       style="fill:none;stroke:#ff00c4;stroke-width:5.21570635;stroke-linecap:butt;stroke-linejoin:miter;stroke-miterlimit:4;stroke-opacity:1;stroke-dasharray:none" />
    <path
       d="m -81.822357,312.42545 a 52.022858,52.022858 0 1 1 -104.043733,-0.45398 l 52.02088,0.45398 z"
       transform="matrix(0,-0.74351251,0.59675361,0,-692.73991,-410.69835)"
       id="path3775-6-7-1-6-4"
       style="fill:#ff00a8;fill-opacity:1;stroke:#252b49;stroke-width:12.20051861;stroke-miterlimit:4;stroke-opacity:1;stroke-dasharray:none" />
    <path
       d="m -81.822357,312.42545 a 52.022858,52.022858 0 1 1 -104.043733,-0.45398 l 52.02088,0.45398 z"
       transform="matrix(0,0.74351251,-0.66464695,0,-574.78954,-211.70517)"
       id="path3775-6-7-1-6-4-5"
       style="fill:#ff00a8;fill-opacity:1;stroke:#252b49;stroke-width:12.20051861;stroke-miterlimit:4;stroke-opacity:1;stroke-dasharray:none" />
    <rect
       width="263.21875"
       height="302.21768"
       x="-776.30914"
       y="-411.3428"
       id="rect2985-9-2-3-1"
       style="fill:#ff00ff;fill-rule:evenodd;stroke:#000000;stroke-width:23.58694458;stroke-linecap:round;stroke-linejoin:round;stroke-miterlimit:4;stroke-opacity:1;stroke-dasharray:none" />
    <path
       d="m -81.822357,312.42545 a 52.022858,52.022858 0 1 1 -104.045713,0 52.022858,52.022858 0 1 1 104.045713,0 z"
       transform="matrix(-0.81823853,0,0,-0.81823853,-686.5382,-86.349911)"
       id="path3775-6-7-5-2-1-4-6-3"
       style="fill:#ffbaba;fill-opacity:1;stroke:#030200;stroke-width:12.20056152;stroke-miterlimit:4;stroke-opacity:1;stroke-dasharray:none" />
    <path
       d="m -81.822357,312.42545 a 52.022858,52.022858 0 1 1 -104.043733,-0.45398 l 52.02088,0.45398 z"
       transform="matrix(-1.0702295,0,0,-0.31526706,-785.32795,-59.839991)"
       id="path3775-6-7-1-6"
       style="fill:#ff00a8;fill-opacity:1;stroke:#252b49;stroke-width:12.20051861;stroke-miterlimit:4;stroke-opacity:1;stroke-dasharray:none" />
    <path
       d="m -81.822357,312.42545 a 52.022858,52.022858 0 1 1 -104.045713,0 52.022858,52.022858 0 1 1 104.045713,0 z"
       transform="matrix(-0.78570153,0,0,-0.78570153,-815.12456,-96.534301)"
       id="path3775-6-7-5-2-1-4-6"
       style="fill:#ffbaba;fill-opacity:1;stroke:#030200;stroke-width:12.20056152;stroke-miterlimit:4;stroke-opacity:1;stroke-dasharray:none" />
    <path
       d="m 2068.7923,317.98129 a 13.637059,12.121831 0 1 1 -27.2741,0 13.637059,12.121831 0 1 1 27.2741,0 z"
       transform="matrix(0.79598105,0,0,0.79598105,-2345.6337,-596.00619)"
       id="path4623-9"
       style="fill:#008000;fill-opacity:1;stroke:none" />
    <path
       d="m 2068.7923,317.98129 a 13.637059,12.121831 0 1 1 -27.2741,0 13.637059,12.121831 0 1 1 27.2741,0 z"
       transform="matrix(0.82894372,0,0,0.82894372,-2280.4278,-606.50562)"
       id="path4623-9-7"
       style="fill:#008000;fill-opacity:1;stroke:none" />
    <path
       d="m -778.41528,-422.22832 257.43607,1.33724 -37.64394,129.7129 z"
       id="path4752"
       style="fill:#800080;stroke:#000000;stroke-width:0.89201158px;stroke-linecap:butt;stroke-linejoin:miter;stroke-opacity:1" />
    <path
       d="m 205,403.43362 a 17.142857,25.357143 0 1 1 -34.28571,0 17.142857,25.357143 0 1 1 34.28571,0 z"
       transform="matrix(1.4990044,0,0,1,-1608.7102,-5.5389844)"
       id="path4839"
       style="fill:#f41149;fill-opacity:1;stroke:none" />
    <path
       d="m 205,403.43362 a 17.142857,25.357143 0 1 1 -34.28571,0 17.142857,25.357143 0 1 1 34.28571,0 z"
       transform="matrix(1.4990044,0,0,1,-1382.9944,-5.9421894)"
       id="path4839-2"
       style="fill:#f41149;fill-opacity:1;stroke:none" />
  </g>
</svg>
