<?xml version="1.0" encoding="UTF-8" standalone="no"?>
<!-- Created with Inkscape (http://www.inkscape.org/) -->
<svg id="svg2" xmlns:rdf="http://www.w3.org/1999/02/22-rdf-syntax-ns#" xmlns="http://www.w3.org/2000/svg" height="412.44" width="349.84" version="1.1" xmlns:cc="http://creativecommons.org/ns#" xmlns:dc="http://purl.org/dc/elements/1.1/">
 <defs id="defs4"></defs>
 <metadata id="metadata7">
  <rdf:RDF>
   <cc:Work rdf:about="">
    <dc:format>image/svg+xml</dc:format>
    <dc:type rdf:resource="http://purl.org/dc/dcmitype/StillImage"/>
    <dc:title/>
   </cc:Work>
  </rdf:RDF>
 </metadata>
 <g id="layer1" transform="translate(-123.65625,-139.12104)">
  <rect id="rect4032" stroke-linejoin="round" stroke-dasharray="none" height="60" width="2.8571" stroke="#F00" stroke-miterlimit="4" y="155.69" x="-1213.7" stroke-width="6.167" fill="#FF0"/>
  <rect id="rect4032-3" stroke-linejoin="round" stroke-dasharray="none" transform="matrix(0.9968278,0.07958857,-0.39865814,0.91709961,0,0)" height="64.317" width="2.8178" stroke="#F00" stroke-miterlimit="4" y="264.91" x="-1085.8" stroke-width="6.3408" fill="#FF0"/>
  <rect id="rect4032-3-6" stroke-linejoin="round" stroke-dasharray="none" transform="matrix(-0.9968278,0.07958857,0.39865814,0.91709961,0,0)" height="64.317" width="2.8178" stroke="#F00" stroke-miterlimit="4" y="61.004" x="1264.9" stroke-width="6.3408" fill="#FF0"/>
  <rect id="rect2985" stroke-linejoin="round" stroke-dasharray="none" fill-rule="evenodd" height="322.86" width="322.86" stroke="#ff008a" stroke-linecap="round" stroke-miterlimit="4" y="228.71" x="-1374.1" stroke-width="27" fill="#e5ff80"/>
  <path id="path3775-6-7" d="m-81.822,312.43a52.023,52.023,0,1,1,-104.04,-0.45398l52.021,0.45398z" transform="matrix(-0.82833218,0,0,-0.63699249,-1265.8383,532.79544)" stroke="#ff0785" stroke-miterlimit="4" stroke-dasharray="none" stroke-width="12.20051861" fill="#49ff00"/>
  <path id="path3775-6-7-5" d="m-81.822,312.43a52.023,52.023,0,1,1,-104.04,-0.45398l52.021,0.45398z" transform="matrix(-0.79752001,0,0,-0.61329774,-1382.0703,526.01541)" stroke="#ff0785" stroke-miterlimit="4" stroke-dasharray="none" stroke-width="12.20051861" fill="#49ff00"/>
  <rect id="rect3846" height="23.571" width="125.71" y="468.7" x="-1275.1" fill="#F00"/>
  <path id="path4101" d="m234.36,310.41a14.142,17.678,0,1,1,-28.284,-0.15426l14.142,0.15426z" transform="matrix(0.79752001,0,0,0.79752001,-1452.5456,66.372835)" fill="#008080"/>
  <path id="path4101-2" d="m234.36,310.41a14.142,17.678,0,1,1,-28.284,-0.15426l14.142,0.15426z" transform="matrix(0.82833218,0,0,0.82833218,-1337.2982,55.394587)" fill="#008080"/>
  <rect id="rect2985-9" stroke-linejoin="round" stroke-dasharray="none" fill-rule="evenodd" height="312.52" width="322.86" stroke="#23ff00" stroke-linecap="round" stroke-miterlimit="4" y="225.08" x="137.45" stroke-width="26.564" fill="#ac9d93"/>
  <path id="path3775-6-7-1" d="m-81.822,312.43a52.023,52.023,0,1,1,-104.04,-0.45398l52.021,0.45398z" transform="matrix(-0.99374041,0,0,-0.84304058,244.48548,597.35267)" stroke="#91265d" stroke-miterlimit="4" stroke-dasharray="none" stroke-width="12.20051861" fill="#00ffb2"/>
  <path id="path3775-6-7-5-2" d="m-81.822,312.43a52.023,52.023,0,1,1,-104.05,0,52.023,52.023,0,1,1,104.05,0z" transform="matrix(-0.98708574,0,0,-0.95547535,90.422502,621.20789)" stroke="#91265d" stroke-miterlimit="4" stroke-dasharray="none" stroke-width="12.20056152" fill="#00ffb2"/>
  <path id="path4101-6" d="m234.36,310.41a14.142,17.678,0,1,1,-28.284,-0.15426l14.142,0.15426z" transform="matrix(-0.99999471,-0.00314849,0.00325265,-0.96797092,439.62636,627.50842)" fill="#008080"/>
  <path id="path4190" d="m888.57,111.65a50.714,5,0,1,1,-101.43,-0.0436l50.712,0.0436z" transform="matrix(1.0492958,0,0,-10.273077,-587.04587,1339.3948)" stroke="#000" stroke-miterlimit="4" stroke-dasharray="none" stroke-width="0.29966298" fill="#ce00ff"/>
  <rect id="rect4186" height="21.434" width="211.43" stroke="#000" y="191.53" x="188.9" stroke-width="0.98386" fill="#ce00ff"/>
  <path id="path4101-6-6" d="m234.36,310.41a14.142,17.678,0,1,1,-28.284,-0.15426l14.142,0.15426z" transform="matrix(-0.99999471,-0.00314849,0.00325265,-0.96797092,596.0206,623.8165)" fill="#008080"/>
  <rect id="rect4234" stroke-linejoin="round" stroke-dasharray="none" height="24.199" width="114.96" stroke="#91265d" stroke-linecap="round" stroke-miterlimit="4" y="453.44" x="242.47" stroke-width="11.921" fill="#00ffb2"/>
  <path id="path4275-2-3" stroke-linejoin="miter" d="m1228.6,202.36c-0.4297,3.6529-5.1361,1.2229-6.0714-0.71428-2.5347-5.2497,2.6198-10.485,7.5-11.429,8.7294-1.6884,16.027,6.062,16.786,14.286,1.1134,12.069-9.5287,21.673-21.071,22.143-15.385,0.62686-27.358-13.001-27.5-27.857-0.1783-18.695,16.476-33.064,34.643-32.857,22.002,0.25084,38.782,19.952,38.214,41.429-0.6686,25.31-23.428,44.506-48.214,43.571-28.617-1.0793-50.236-26.905-48.929-55,1.4853-31.924,30.382-55.968,61.786-54.286,35.231,1.8878,61.704,33.859,59.643,68.571-2.2878,38.537-37.336,67.441-75.357,65" transform="matrix(0.38325934,0,0,0.57780617,346.34478,276.43064)" stroke="#ffdc00" stroke-linecap="butt" stroke-miterlimit="4" stroke-dasharray="none" stroke-width="13.57492542" fill="none"/>
  <path id="path4275-2" stroke-linejoin="miter" d="m1228.6,202.36c-0.4297,3.6529-5.1361,1.2229-6.0714-0.71428-2.5347-5.2497,2.6198-10.485,7.5-11.429,8.7294-1.6884,16.027,6.062,16.786,14.286,1.1134,12.069-9.5287,21.673-21.071,22.143-15.385,0.62686-27.358-13.001-27.5-27.857-0.1783-18.695,16.476-33.064,34.643-32.857,22.002,0.25084,38.782,19.952,38.214,41.429-0.6686,25.31-23.428,44.506-48.214,43.571-28.617-1.0793-50.236-26.905-48.929-55,1.4853-31.924,30.382-55.968,61.786-54.286,35.231,1.8878,61.704,33.859,59.643,68.571-2.2878,38.537-37.336,67.441-75.357,65" transform="matrix(0.58641825,0,0,0.44459839,13.339539,311.80775)" stroke="#ffdc00" stroke-linecap="butt" stroke-miterlimit="4" stroke-dasharray="none" stroke-width="12.34646034" fill="none"/>
  <path id="path4275" stroke-linejoin="miter" d="m1228.6,202.36c-0.4297,3.6529-5.1361,1.2229-6.0714-0.71428-2.5347-5.2497,2.6198-10.485,7.5-11.429,8.7294-1.6884,16.027,6.062,16.786,14.286,1.1134,12.069-9.5287,21.673-21.071,22.143-15.385,0.62686-27.358-13.001-27.5-27.857-0.1783-18.695,16.476-33.064,34.643-32.857,22.002,0.25084,38.782,19.952,38.214,41.429-0.6686,25.31-23.428,44.506-48.214,43.571-28.617-1.0793-50.236-26.905-48.929-55,1.4853-31.924,30.382-55.968,61.786-54.286,35.231,1.8878,61.704,33.859,59.643,68.571-2.2878,38.537-37.336,67.441-75.357,65" transform="matrix(0.90616679,0,0,0.6927506,-487.74192,242.6989)" stroke="#ffdc00" stroke-linecap="butt" stroke-miterlimit="4" stroke-dasharray="none" stroke-width="7.19999981" fill="none"/>
  <rect id="rect2985-9-2" stroke-linejoin="round" stroke-dasharray="none" fill-rule="evenodd" height="292.56" width="292.56" stroke="#fffb00" stroke-linecap="round" stroke-miterlimit="4" y="440.43" x="569.69" stroke-width="24.467" fill="#ff80b2"/>
  <path id="path4534" stroke-linejoin="round" d="m1069.3,331.29a22.857,12.5,0,0,1,45.714,0" transform="matrix(1.0114538,0,0,0.46778412,-388.60007,367.49658)" stroke="#252f59" stroke-linecap="round" stroke-miterlimit="4" stroke-dasharray="none" stroke-width="4.0999999" fill="none"/>
  <path id="path3775-6-7-5-9-2" stroke-linejoin="round" d="m-81.822,312.43a52.023,52.023,0,1,1,-104.04,-0.45398l52.021,0.45398z" transform="matrix(-0.45510114,0,0,-0.45264601,625.24009,812.83826)" stroke="#ff0785" stroke-linecap="round" stroke-miterlimit="4" stroke-dasharray="none" stroke-width="12.20036507" fill="#ff0785"/>
  <path id="path3775-6-7-5-2-1" d="m-81.822,312.43a52.023,52.023,0,1,1,-104.05,0,52.023,52.023,0,1,1,104.05,0z" transform="matrix(-0.89446432,0,0,-0.89446432,526.75308,812.88393)" stroke="#252f59" stroke-miterlimit="4" stroke-dasharray="none" stroke-width="12.20056152" fill="#F0F"/>
  <path id="path3775-6-7-5-2-1-2" d="m-81.822,312.43a52.023,52.023,0,1,1,-104.05,0,52.023,52.023,0,1,1,104.05,0z" transform="matrix(-0.89446432,0,0,-0.89446432,665.05534,812.27874)" stroke="#252f59" stroke-miterlimit="4" stroke-dasharray="none" stroke-width="12.20056152" fill="#F0F"/>
  <rect id="rect4457" height="23.301" width="176.06" stroke-miterlimit="4" y="668.43" x="624.9" stroke-width="0" fill="#ff0785"/>
  <path id="path3775-6-7-5-9-2-7" stroke-linejoin="round" d="m-81.822,312.43a52.023,52.023,0,1,1,-104.04,-0.45398l52.021,0.45398z" transform="matrix(-0.45510114,0,0,-0.45264601,676.99599,812.64398)" stroke="#ff0785" stroke-linecap="round" stroke-miterlimit="4" stroke-dasharray="none" stroke-width="12.20036507" fill="#ff0785"/>
  <rect id="rect2985-9-2-3" stroke-linejoin="round" stroke-dasharray="none" fill-rule="evenodd" height="313.07" width="322.86" stroke="#feff00" stroke-linecap="round" stroke-miterlimit="4" y="827.06" x="648.23" stroke-width="26.588" fill="#483737"/>
  <path id="path3775-6-7-5-2-1-4" d="m-81.822,312.43a52.023,52.023,0,1,1,-104.05,0,52.023,52.023,0,1,1,104.05,0z" transform="matrix(-0.98708574,0,0,-0.9571729,600.84459,1225.6278)" stroke="#ffd200" stroke-miterlimit="4" stroke-dasharray="none" stroke-width="12.20056152" fill="#916f6f"/>
  <rect id="rect4457-8" stroke-linejoin="round" stroke-dasharray="none" height="40.173" width="194.29" stroke="#da3083" stroke-linecap="round" stroke-miterlimit="4" y="1055.8" x="709.16" stroke-width="14.574" fill="#FAA"/>
  <rect id="rect4619" stroke-dasharray="none" height="14.545" width="87.348" stroke="#000" stroke-miterlimit="4" y="798.97" x="825.91" stroke-width="3.867" fill="#d62142"/>
  <path id="path4190-0" d="m888.57,111.65a50.714,5,0,1,1,-101.43,-0.0436l50.712,0.0436z" transform="matrix(1.125507,0,0,-12.189496,-169.27522,2174.2969)" stroke="#000" stroke-miterlimit="4" stroke-dasharray="none" stroke-width="1.04402685" fill="#d62142"/>
  <rect id="rect4621" height="7.2379" width="11.257" y="743.91" x="767.46" fill="#F60"/>
  <path id="path4623" d="m2068.8,317.98a13.637,12.122,0,1,1,-27.274,0,13.637,12.122,0,1,1,27.274,0z" transform="matrix(1,0,0,0.96969581,-1321.9513,617.15124)" fill="#F60"/>
  <path id="path3775-6-7-5-2-1-4-3" d="m-81.822,312.43a52.023,52.023,0,1,1,-104.05,0,52.023,52.023,0,1,1,104.05,0z" transform="matrix(-0.98708574,0,0,-0.9571729,759.07468,1222.5824)" stroke="#ffd200" stroke-miterlimit="4" stroke-dasharray="none" stroke-width="12.20056152" fill="#916f6f"/>
  <path id="path4623-6" d="m2068.8,317.98a13.637,12.122,0,1,1,-27.274,0,13.637,12.122,0,1,1,27.274,0z" transform="matrix(1,0,0,0.96969581,-1163.7212,614.1059)" fill="#F60"/>
  <path id="path4837" stroke-linejoin="miter" d="m-800.09-345.29,0-87.234,12.851-15.657,280.88,3.3552,13.769,20.131-0.11483,80.384" stroke="#ff00c4" stroke-linecap="butt" stroke-miterlimit="4" stroke-dasharray="none" stroke-width="5.21570635" fill="none"/>
  <path id="path3775-6-7-1-6-4" d="m-81.822,312.43a52.023,52.023,0,1,1,-104.04,-0.45398l52.021,0.45398z" transform="matrix(0,-0.74351251,0.59675361,0,-692.73991,-410.69835)" stroke="#252b49" stroke-miterlimit="4" stroke-dasharray="none" stroke-width="12.20051861" fill="#ff00a8"/>
  <path id="path3775-6-7-1-6-4-5" d="m-81.822,312.43a52.023,52.023,0,1,1,-104.04,-0.45398l52.021,0.45398z" transform="matrix(0,0.74351251,-0.66464695,0,-574.78954,-211.70517)" stroke="#252b49" stroke-miterlimit="4" stroke-dasharray="none" stroke-width="12.20051861" fill="#ff00a8"/>
  <rect id="rect2985-9-2-3-1" stroke-linejoin="round" stroke-dasharray="none" fill-rule="evenodd" height="302.22" width="263.22" stroke="#000" stroke-linecap="round" stroke-miterlimit="4" y="-411.34" x="-776.31" stroke-width="23.587" fill="#F0F"/>
  <path id="path3775-6-7-5-2-1-4-6-3" d="m-81.822,312.43a52.023,52.023,0,1,1,-104.05,0,52.023,52.023,0,1,1,104.05,0z" transform="matrix(-0.81823853,0,0,-0.81823853,-686.5382,-86.349911)" stroke="#030200" stroke-miterlimit="4" stroke-dasharray="none" stroke-width="12.20056152" fill="#ffbaba"/>
  <path id="path3775-6-7-1-6" d="m-81.822,312.43a52.023,52.023,0,1,1,-104.04,-0.45398l52.021,0.45398z" transform="matrix(-1.0702295,0,0,-0.31526706,-785.32795,-59.839991)" stroke="#252b49" stroke-miterlimit="4" stroke-dasharray="none" stroke-width="12.20051861" fill="#ff00a8"/>
  <path id="path3775-6-7-5-2-1-4-6" d="m-81.822,312.43a52.023,52.023,0,1,1,-104.05,0,52.023,52.023,0,1,1,104.05,0z" transform="matrix(-0.78570153,0,0,-0.78570153,-815.12456,-96.534301)" stroke="#030200" stroke-miterlimit="4" stroke-dasharray="none" stroke-width="12.20056152" fill="#ffbaba"/>
  <path id="path4623-9" d="m2068.8,317.98a13.637,12.122,0,1,1,-27.274,0,13.637,12.122,0,1,1,27.274,0z" transform="matrix(0.79598105,0,0,0.79598105,-2345.6337,-596.00619)" fill="#008000"/>
  <path id="path4623-9-7" d="m2068.8,317.98a13.637,12.122,0,1,1,-27.274,0,13.637,12.122,0,1,1,27.274,0z" transform="matrix(0.82894372,0,0,0.82894372,-2280.4278,-606.50562)" fill="#008000"/>
  <path id="path4752" stroke-linejoin="miter" d="m-778.42-422.23,257.44,1.3372-37.644,129.71z" stroke="#000" stroke-linecap="butt" stroke-width="0.89201158px" fill="#800080"/>
  <path id="path4839" d="m205,403.43a17.143,25.357,0,1,1,-34.286,0,17.143,25.357,0,1,1,34.286,0z" transform="matrix(1.4990044,0,0,1,-1608.7102,-5.5389844)" fill="#f41149"/>
  <path id="path4839-2" d="m205,403.43a17.143,25.357,0,1,1,-34.286,0,17.143,25.357,0,1,1,34.286,0z" transform="matrix(1.4990044,0,0,1,-1382.9944,-5.9421894)" fill="#f41149"/>
 </g>
</svg>
