<?xml version="1.0" encoding="UTF-8" standalone="no"?>
<!-- Created with Inkscape (http://www.inkscape.org/) -->

<svg
   xmlns:osb="http://www.openswatchbook.org/uri/2009/osb"
   xmlns:dc="http://purl.org/dc/elements/1.1/"
   xmlns:cc="http://creativecommons.org/ns#"
   xmlns:rdf="http://www.w3.org/1999/02/22-rdf-syntax-ns#"
   xmlns:svg="http://www.w3.org/2000/svg"
   xmlns="http://www.w3.org/2000/svg"
   xmlns:sodipodi="http://sodipodi.sourceforge.net/DTD/sodipodi-0.dtd"
   xmlns:inkscape="http://www.inkscape.org/namespaces/inkscape"
   width="744.09448819"
   height="1052.3622047"
   id="svg2"
   version="1.1"
   inkscape:version="0.48.5 r10040"
   sodipodi:docname="New document 1">
  <defs
     id="defs4">
    <linearGradient
       id="linearGradient4806"
       osb:paint="solid">
      <stop
         style="stop-color:#a60000;stop-opacity:1;"
         offset="0"
         id="stop4808" />
    </linearGradient>
    <inkscape:path-effect
       effect="spiro"
       id="path-effect4122"
       is_visible="true" />
    <inkscape:perspective
       sodipodi:type="inkscape:persp3d"
       inkscape:vp_x="-197.17696 : 626.82808 : 1"
       inkscape:vp_y="26.176947 : 999.65729 : 0"
       inkscape:vp_z="738.18453 : -169.82633 : 0"
       inkscape:persp3d-origin="267.05778 : 354.55938 : 1"
       id="perspective3017" />
    <inkscape:perspective
       sodipodi:type="inkscape:persp3d"
       inkscape:vp_x="337.14286 : 671.89538 : 1"
       inkscape:vp_y="0 : 1000 : 0"
       inkscape:vp_z="595.52305 : 514.75252 : 1"
       inkscape:persp3d-origin="223.47581 : 339.35882 : 1"
       id="perspective2987" />
    <inkscape:perspective
       sodipodi:type="inkscape:persp3d"
       inkscape:vp_x="-408.42406 : 48.701621 : 0"
       inkscape:vp_y="6.123234e-14 : 1000 : 0"
       inkscape:vp_z="296.70181 : 49.16123 : 0"
       inkscape:persp3d-origin="471.96839 : 330.39967 : 1"
       id="perspective3017-3" />
  </defs>
  <sodipodi:namedview
     id="base"
     pagecolor="#ffffff"
     bordercolor="#666666"
     borderopacity="1.0"
     inkscape:pageopacity="0.0"
     inkscape:pageshadow="2"
     inkscape:zoom="0.90509668"
     inkscape:cx="189.25769"
     inkscape:cy="803.93786"
     inkscape:document-units="px"
     inkscape:current-layer="layer1"
     showgrid="false"
     inkscape:snap-bbox="true"
     inkscape:window-width="1366"
     inkscape:window-height="702"
     inkscape:window-x="0"
     inkscape:window-y="27"
     inkscape:window-maximized="1" />
  <metadata
     id="metadata7">
    <rdf:RDF>
      <cc:Work
         rdf:about="">
        <dc:format>image/svg+xml</dc:format>
        <dc:type
           rdf:resource="http://purl.org/dc/dcmitype/StillImage" />
        <dc:title></dc:title>
      </cc:Work>
    </rdf:RDF>
  </metadata>
  <g
     inkscape:label="Layer 1"
     inkscape:groupmode="layer"
     id="layer1">
    <rect
       style="fill:#008000;fill-rule:evenodd;stroke:#000000;stroke-width:1px;stroke-linecap:butt;stroke-linejoin:miter;stroke-opacity:1"
       id="rect2985"
       width="268.57144"
       height="268.57144"
       x="189.14062"
       y="135.04076"
       inkscape:export-filename="/home/stanislav/AndroidStudioProjects/RoboPoetry/app/src/main/res/mipmap-hdpi/ic_launcher.png"
       inkscape:export-xdpi="24.040001"
       inkscape:export-ydpi="24.040001" />
    <path
       sodipodi:type="arc"
       style="fill:#ff0000;fill-rule:evenodd;stroke:#000000;stroke-width:1px;stroke-linecap:butt;stroke-linejoin:miter;stroke-opacity:1"
       id="path3090"
       sodipodi:cx="182.30096"
       sodipodi:cy="286.69812"
       sodipodi:rx="36.460194"
       sodipodi:ry="32.040775"
       d="m 218.76116,286.69812 a 36.460194,32.040775 0 1 1 -72.92039,0 36.460194,32.040775 0 1 1 72.92039,0 z"
       transform="matrix(1.2742674,0,0,1.3487303,16.407037,-180.05844)"
       inkscape:export-filename="/home/stanislav/AndroidStudioProjects/RoboPoetry/app/src/main/res/mipmap-hdpi/ic_launcher.png"
       inkscape:export-xdpi="24.040001"
       inkscape:export-ydpi="24.040001" />
    <path
       transform="matrix(1.3170989,0,0,1.3120689,158.02223,-170.12789)"
       sodipodi:type="arc"
       style="fill:#ff0000;fill-rule:evenodd;stroke:#000000;stroke-width:1px;stroke-linecap:butt;stroke-linejoin:miter;stroke-opacity:1"
       id="path3090-9"
       sodipodi:cx="182.30096"
       sodipodi:cy="286.69812"
       sodipodi:rx="36.460194"
       sodipodi:ry="32.040775"
       d="m 218.76116,286.69812 a 36.460194,32.040775 0 1 1 -72.92039,0 36.460194,32.040775 0 1 1 72.92039,0 z"
       inkscape:transform-center-x="66.939319"
       inkscape:transform-center-y="-20.295039"
       inkscape:export-filename="/home/stanislav/AndroidStudioProjects/RoboPoetry/app/src/main/res/mipmap-hdpi/ic_launcher.png"
       inkscape:export-xdpi="24.040001"
       inkscape:export-ydpi="24.040001" />
    <rect
       style="fill:#782121;stroke:#a60000;stroke-opacity:1"
       id="rect4158"
       width="164.84375"
       height="22.65625"
       x="243.75"
       y="340.64343"
       inkscape:export-filename="/home/stanislav/AndroidStudioProjects/RoboPoetry/app/src/main/res/mipmap-hdpi/ic_launcher.png"
       inkscape:export-xdpi="24.040001"
       inkscape:export-ydpi="24.040001" />
    <path
       style="fill:#ffffff;stroke:#ffffff;stroke-width:1.18296278;stroke-opacity:1"
       id="path4130"
       d="m 388.30712,223.00856 c 0.16903,-2.83638 0.59635,-5.79927 -0.0708,-8.59764 -0.13363,-0.55577 -0.35657,-1.08473 -0.53471,-1.62713 -0.80112,-2.03494 -2.33754,-3.51387 -3.83673,-5.01805 -1.08968,-1.0933 -0.99023,-1.01097 -1.97455,-2.11411 -1.64504,-2.33849 -3.79055,-4.19745 -5.84949,-6.13903 -1.95888,-1.73828 -3.46268,-3.86913 -4.67183,-6.18869 -1.10187,-2.29883 -2.15869,-4.6161 -3.04135,-7.01239 -0.32773,-0.97692 -0.49875,-1.45442 -0.78719,-2.44558 -0.10143,-0.3478 -0.23619,-0.68941 -0.2837,-1.04933 -0.0874,-0.66204 0.23487,-1.90467 0.338,-2.58537 0.0247,-0.36157 0.0493,-0.72308 0.0737,-1.08463 0,0 -4.42224,-1.13238 -4.42224,-1.13238 l 0,0 c -0.0318,0.34611 -0.0636,0.69227 -0.0951,1.03838 -0.15633,0.88084 -0.48479,1.8987 -0.3448,2.79947 0.0574,0.36896 0.22554,0.71006 0.33527,1.06609 0.6468,2.09824 0.0955,0.38738 0.77895,2.46851 0.87151,2.41816 1.93244,4.74726 3.02973,7.06638 1.18197,2.38338 2.70036,4.57402 4.6852,6.3477 2.04066,1.94472 4.24535,3.73735 5.8447,6.10299 0.70752,0.77468 1.27,1.40792 2.01848,2.15251 1.47409,1.46654 3.05766,2.85294 3.90907,4.81823 0.18673,0.51878 0.41851,1.02272 0.56041,1.55623 0.6859,2.57965 0.41626,5.73408 -0.13659,8.33134 0,0 4.47556,1.24649 4.47556,1.24649 z"
       inkscape:connector-curvature="0"
       inkscape:export-filename="/home/stanislav/AndroidStudioProjects/RoboPoetry/app/src/main/res/mipmap-hdpi/ic_launcher.png"
       inkscape:export-xdpi="24.040001"
       inkscape:export-ydpi="24.040001" />
    <path
       style="fill:#ffffff;stroke:#ffffff;stroke-width:1.41374981;stroke-opacity:1"
       id="path4132"
       d="m 385.31682,224.49152 c 1.3891,-1.38107 2.85387,-2.68146 4.35855,-3.94806 2.28014,-1.62517 5.02302,-2.48356 7.64908,-3.45493 7.43693,-2.29622 2.83549,-1.04953 6.74271,-1.9224 1.28218,-0.28643 1.86686,-0.47775 3.16247,-0.70146 1.37776,-0.23788 1.84477,-0.24236 3.2432,-0.35358 2.32617,-0.13547 4.65427,-0.3929 6.93227,-0.89887 0.54801,-0.12164 2.15265,-0.62212 1.62946,-0.42275 -0.70532,0.2688 -1.4524,0.42135 -2.17862,0.63201 2.61773,-1.07292 4.01936,-2.7111 5.54579,-4.89509 1.28481,-1.92251 2.18554,-4.02736 2.89215,-6.18577 0.0906,-0.30804 0.14608,-0.62669 0.2718,-0.92404 0.48133,-1.14279 1.78428,-2.78171 2.65871,-3.70235 0.29095,-0.30634 0.61561,-0.58249 0.92339,-0.87371 1.09648,-0.89808 2.23595,-1.76535 3.49994,-2.44499 2.44024,-1.31208 5.17437,-2.02993 7.90694,-2.50541 1.99587,-0.14992 1.04545,-0.0796 2.8512,-0.21162 0,0 -3.5303,1.63115 -3.5303,1.63115 l 0,0 c -1.71559,0.0903 -0.79727,0.0232 -2.75377,0.21861 -0.5012,0.10133 -1.92813,0.57958 -1.50357,0.30432 0.63323,-0.41058 1.4108,-0.60677 2.16332,-0.73209 0.49223,-0.0821 -0.92329,0.37335 -1.36469,0.5991 -0.84834,0.43387 -1.65187,0.99005 -2.41132,1.54999 -0.35344,0.2606 -0.69326,0.53742 -1.03988,0.80613 -0.30537,0.27546 -0.62983,0.53315 -0.91608,0.82638 -0.77279,0.7916 -1.51836,1.77696 -2.12132,2.69007 -0.18346,0.2776 -0.38604,0.54845 -0.51956,0.84993 -0.13248,0.29909 -0.18117,0.62442 -0.27183,0.93664 -0.7291,2.19891 -1.69346,4.31426 -2.94729,6.30252 -1.46001,2.22486 -2.96275,4.01437 -5.54882,5.13757 -1.66413,0.54382 -3.31761,1.11909 -4.99239,1.63151 -2.73183,0.83582 -5.76467,1.01729 -8.5959,1.27095 -1.6566,0.15699 -3.18343,0.37147 -4.80914,0.73267 -0.52651,0.11702 -1.05019,0.24586 -1.57587,0.36644 -0.53551,0.12274 -2.03781,0.69307 -1.60763,0.36384 0.56748,-0.43435 1.36869,-0.46981 2.05302,-0.7047 -1.34016,0.50117 -2.67965,0.98648 -4.00583,1.52073 -0.94585,0.38102 -1.58598,0.59026 -2.47687,1.08173 -0.39119,0.21582 -0.75431,0.47483 -1.13148,0.71225 -1.43188,1.21849 -2.85907,2.43853 -4.08999,3.84671 0,0 -4.09203,0.87052 -4.09203,0.87052 z"
       inkscape:connector-curvature="0"
       inkscape:export-filename="/home/stanislav/AndroidStudioProjects/RoboPoetry/app/src/main/res/mipmap-hdpi/ic_launcher.png"
       inkscape:export-xdpi="24.040001"
       inkscape:export-ydpi="24.040001" />
    <path
       style="fill:#ffffff;stroke:#ffffff;stroke-width:1.36689746;stroke-opacity:1"
       id="path4134"
       d="m 397.88378,228.8883 c 0.19871,-3.1911 0.47947,-6.25869 0.75767,-9.30902 0.0931,-1.01989 0.17164,-2.08006 0.28511,-3.04783 0.11311,-0.96349 0.26057,-1.8117 0.39078,-2.71771 0.15528,-0.86003 0.30727,-1.73538 0.46579,-2.57589 0.57245,-3.03695 0.38899,-1.80761 0.95822,-4.98608 0.45568,-2.54441 0.85927,-5.25779 1.25623,-8.0564 0.64972,-4.90003 1.47257,-9.14573 2.4549,-11.99317 0.20263,-0.58748 0.41514,-1.0437 0.62273,-1.56583 0.85439,-2.0131 1.75111,-2.09728 2.62958,-3.05798 0.58213,-0.63437 0.73906,-0.99045 1.30882,-1.95941 0.68331,-1.53059 1.34672,-3.74878 1.74376,-7.31939 0.0804,-0.72438 0.13297,-1.51233 0.19946,-2.26883 0,0 -1.27151,-4.46231 -1.27151,-4.46231 l 0,0 c -0.0576,0.70466 -0.10353,1.44673 -0.17482,2.12621 -0.35939,3.4222 -0.97981,5.54834 -1.62555,6.99463 -0.54645,0.90899 -0.72973,1.29758 -1.28715,1.88808 -0.89187,0.94494 -1.80181,1.09932 -2.66425,3.24554 -0.21074,0.55331 -0.42609,1.04539 -0.63195,1.65771 -0.99519,2.96017 -1.85402,7.18801 -2.5146,12.21107 -0.38568,2.7694 -0.78068,5.47861 -1.22972,7.97726 -0.0799,0.44414 -0.87172,4.52494 -0.961,5.00179 -0.16307,0.86973 -0.32189,1.76571 -0.48281,2.64843 -0.1381,0.95122 -0.29292,1.84472 -0.41424,2.85544 -0.11552,0.96121 -0.19522,2.022 -0.29276,3.03386 -0.29002,3.00876 -0.58937,5.99132 -0.85785,9.04868 0,0 1.33516,4.63115 1.33516,4.63115 z"
       inkscape:connector-curvature="0"
       inkscape:export-filename="/home/stanislav/AndroidStudioProjects/RoboPoetry/app/src/main/res/mipmap-hdpi/ic_launcher.png"
       inkscape:export-xdpi="24.040001"
       inkscape:export-ydpi="24.040001" />
    <path
       style="fill:#ffffff;stroke:#ffffff;stroke-width:1.53103602;stroke-opacity:1"
       id="path4140"
       d="m 251.67949,226.39438 c 0.7524,-1.62198 0.94697,-2.31741 2.1755,-3.47808 3.37797,-3.19133 6.77241,-6.35578 10.2778,-9.19172 0.88153,-0.71319 1.87706,-1.01933 2.83638,-1.41797 2.76422,-1.14867 4.40208,-1.42671 7.2595,-2.13063 5.04101,-1.19006 10.28596,-0.77773 15.1461,-3.54995 0.99361,-0.56675 3.7522,-3.03262 2.86378,-2.13559 -1.70183,1.7183 -3.54305,3.07342 -5.31461,4.61015 0,0 8.648,-5.21882 8.648,-5.21882 l 0,0 c -2.01174,1.82222 -9.23833,9.36125 -13.48039,11.44705 -4.88386,2.40139 -10.08797,1.95 -15.08305,3.34015 -2.92077,0.83901 -4.55395,1.14736 -7.35665,2.55834 -0.98639,0.49657 -3.70898,2.77229 -2.89553,1.76895 1.84821,-2.27965 4.01352,-3.85181 6.05983,-5.6719 0.47544,-0.42291 -0.91306,0.94574 -1.34229,1.47584 -0.26414,0.32625 -0.48838,0.72448 -0.73258,1.08672 0,0 -9.06179,6.50746 -9.06179,6.50746 z"
       inkscape:connector-curvature="0"
       inkscape:export-filename="/home/stanislav/AndroidStudioProjects/RoboPoetry/app/src/main/res/mipmap-hdpi/ic_launcher.png"
       inkscape:export-xdpi="24.040001"
       inkscape:export-ydpi="24.040001" />
    <path
       style="fill:#ffffff;stroke:#ffffff;stroke-width:1.0901382;stroke-opacity:1"
       id="path4132-0"
       d="m 243.4725,226.2171 c -1.14273,-0.7316 -2.27017,-1.5661 -3.39391,-2.45132 -1.55654,-1.46039 -2.88359,-3.6606 -4.22849,-5.70664 -3.5826,-5.97816 -1.45251,-2.20892 -3.16887,-5.4846 -0.56322,-1.07494 -0.85025,-1.54057 -1.38669,-2.65335 -0.57045,-1.18333 -0.72594,-1.61523 -1.24018,-2.86898 -0.83075,-2.10554 -1.72279,-4.16355 -2.72201,-6.07454 -0.24034,-0.45975 -1.01585,-1.7476 -0.74499,-1.34233 0.36515,0.54633 0.68619,1.17846 1.02928,1.76771 -1.39268,-1.99723 -2.66739,-2.63649 -4.25452,-3.17094 -1.37779,-0.4158 -2.72022,-0.40116 -4.02559,-0.18459 -0.18293,0.0404 -0.35962,0.11774 -0.54877,0.12124 -0.72632,0.0151 -1.96902,-0.53222 -2.71386,-0.97202 -0.24784,-0.14633 -0.49172,-0.33618 -0.73757,-0.50426 -0.80649,-0.65514 -1.61176,-1.36268 -2.36458,-2.26172 -1.45337,-1.73568 -2.70766,-3.9846 -3.84089,-6.33008 -0.72954,-1.79293 -0.38269,-0.9387 -1.04092,-2.56233 0,0 1.96978,2.61901 1.96978,2.61901 l 0,0 c 0.60793,1.55675 0.2732,0.73103 1.01244,2.46903 0.21487,0.42449 0.921,1.55628 0.64477,1.27331 -0.412,-0.42205 -0.76475,-1.06485 -1.07403,-1.71304 -0.20235,-0.42396 0.48867,0.70649 0.74581,1.02513 0.49418,0.6124 1.03449,1.13374 1.5622,1.61262 0.2456,0.22286 0.49479,0.42652 0.74219,0.63977 0.23721,0.1722 0.47185,0.36932 0.71163,0.51659 0.6473,0.3976 1.38204,0.69155 2.03405,0.88229 0.19827,0.0581 0.39946,0.13673 0.59321,0.13882 0.19223,0.002 0.37001,-0.0843 0.55504,-0.12629 1.33289,-0.21207 2.70143,-0.17186 4.10175,0.18858 1.58566,0.45624 2.96883,1.12821 4.37612,3.07571 0.81659,1.32558 1.64532,2.62854 2.44979,3.97671 1.31219,2.19908 2.39773,4.9423 3.45301,7.46909 0.62173,1.47501 1.22946,2.80625 1.94262,4.16999 0.23098,0.44166 0.46691,0.8759 0.69939,1.31534 0.23679,0.44769 1.01345,1.61226 0.70854,1.34589 -0.40226,-0.35138 -0.68283,-1.08114 -1.02422,-1.62169 0.68905,1.04195 1.37001,2.08968 2.07092,3.10529 0.4999,0.72434 0.81404,1.23421 1.35083,1.86284 0.23571,0.27603 0.4837,0.50852 0.72556,0.7628 1.0759,0.83706 2.15106,1.66915 3.25536,2.24287 0,0 1.77583,3.44827 1.77583,3.44827 z"
       inkscape:connector-curvature="0"
       inkscape:export-filename="/home/stanislav/AndroidStudioProjects/RoboPoetry/app/src/main/res/mipmap-hdpi/ic_launcher.png"
       inkscape:export-xdpi="24.040001"
       inkscape:export-ydpi="24.040001" />
    <path
       style="fill:#ffffff;stroke:#ffffff;stroke-width:1.21590304;stroke-opacity:1"
       id="path4132-0-1"
       d="m 247.55123,222.40661 c -0.11834,-1.43012 -0.12898,-2.91257 -0.0892,-4.42407 0.27556,-2.2422 1.40982,-4.75961 2.38631,-7.19433 3.09819,-6.82048 1.05383,-2.629 2.92572,-6.15766 0.61429,-1.15795 0.84996,-1.69594 1.51878,-2.85525 0.71124,-1.23279 1.00807,-1.63818 1.82531,-2.86812 1.39569,-2.03778 2.70333,-4.09723 3.79684,-6.15405 0.26311,-0.49479 0.92791,-1.96724 0.73765,-1.48121 -0.25647,0.65522 -0.62489,1.32757 -0.93736,1.99136 0.89678,-2.44416 0.59827,-3.9273 -0.0195,-5.60808 -0.58173,-1.42855 -1.54375,-2.5542 -2.66974,-3.52044 -0.16726,-0.12904 -0.36489,-0.22936 -0.50178,-0.38706 -0.52727,-0.60447 -0.88974,-2.00223 -1.00177,-2.91088 -0.0373,-0.30234 -0.0308,-0.62895 -0.0463,-0.94339 0.0472,-1.09736 0.14457,-2.22691 0.4593,-3.43359 0.60764,-2.32958 1.83915,-4.81637 3.24711,-7.26206 1.17283,-1.75394 0.61352,-0.9189 1.67732,-2.50518 0,0 -1.07458,3.32642 -1.07458,3.32642 l 0,0 c -1.03636,1.50133 -0.49534,0.69463 -1.6096,2.42193 -0.2479,0.45089 -0.81478,1.76571 -0.74346,1.3527 0.10641,-0.616 0.46244,-1.32192 0.85428,-1.99451 0.25625,-0.43996 -0.32002,0.86123 -0.43841,1.28071 -0.22754,0.80621 -0.33676,1.59368 -0.4149,2.34354 -0.0364,0.34899 -0.0521,0.68883 -0.0782,1.03326 0.006,0.30975 -0.0145,0.63315 0.0162,0.92927 0.0829,0.79943 0.32508,1.60704 0.60605,2.27925 0.0853,0.20447 0.15343,0.42444 0.28831,0.58957 0.13391,0.16378 0.34074,0.25935 0.51098,0.38915 1.14118,0.99236 2.07001,2.17486 2.71978,3.58735 0.69048,1.62995 1.0348,3.22552 0.19516,5.65048 -0.67131,1.53113 -1.31274,3.05816 -2.01388,4.59336 -1.14369,2.50413 -2.95981,5.16177 -4.59354,7.65655 -0.94965,1.46114 -1.77381,2.81927 -2.55412,4.28715 -0.25269,0.47541 -0.4949,0.95029 -0.74445,1.42555 -0.25427,0.48414 -0.80217,1.87938 -0.76675,1.45264 0.0467,-0.56294 0.53563,-1.26299 0.80345,-1.89446 -0.49434,1.24341 -0.99984,2.48363 -1.461,3.72036 -0.3289,0.88204 -0.58708,1.47101 -0.79981,2.32353 -0.0935,0.37435 -0.13713,0.73147 -0.2057,1.09722 -0.0281,1.4405 -0.0522,2.87723 0.18766,4.17472 0,0 -1.99239,3.68841 -1.99239,3.68841 z"
       inkscape:connector-curvature="0"
       inkscape:export-filename="/home/stanislav/AndroidStudioProjects/RoboPoetry/app/src/main/res/mipmap-hdpi/ic_launcher.png"
       inkscape:export-xdpi="24.040001"
       inkscape:export-ydpi="24.040001" />
    <path
       sodipodi:type="arc"
       style="fill:#0000ff;stroke:#b40000;stroke-opacity:1"
       id="path4064-1"
       sodipodi:cx="330.46875"
       sodipodi:cy="296.11218"
       sodipodi:rx="7.03125"
       sodipodi:ry="6.25"
       d="m 337.5,296.11218 a 7.03125,6.25 0 1 1 -14.0625,0 7.03125,6.25 0 1 1 14.0625,0 z"
       transform="matrix(2.2056803,0,0,2.3345711,-479.97476,-464.72022)"
       inkscape:export-xdpi="24.040001"
       inkscape:export-ydpi="24.040001"
       inkscape:export-filename="/home/stanislav/AndroidStudioProjects/RoboPoetry/app/src/main/res/mipmap-hdpi/ic_launcher.png"
       inkscape:transform-center-y="-5.46875" />
    <path
       sodipodi:type="arc"
       style="fill:#0000ff;stroke:#b40000;stroke-opacity:1"
       id="path4064-1-0"
       sodipodi:cx="330.46875"
       sodipodi:cy="296.11218"
       sodipodi:rx="7.03125"
       sodipodi:ry="6.25"
       d="m 337.5,296.11218 a 7.03125,6.25 0 1 1 -14.0625,0 7.03125,6.25 0 1 1 14.0625,0 z"
       transform="matrix(2.2056803,0,0,2.3345711,-331.97788,-462.8279)"
       inkscape:export-xdpi="24.040001"
       inkscape:export-ydpi="24.040001"
       inkscape:export-filename="/home/stanislav/AndroidStudioProjects/RoboPoetry/app/src/main/res/mipmap-hdpi/ic_launcher.png"
       inkscape:transform-center-y="-5.46875" />
    <rect
       style="fill:#ffcc00;stroke:none;stroke-width:0.74494921999999986;stroke-miterlimit:4;stroke-opacity:1;stroke-dasharray:none;fill-opacity:1"
       id="rect4214"
       width="118.11706"
       height="148.69434"
       x="337.65927"
       y="307.10043"
       transform="matrix(0.98771532,-0.15626401,0,1,0,0)"
       inkscape:export-filename="/home/stanislav/AndroidStudioProjects/RoboPoetry/app/src/main/res/mipmap-hdpi/ic_launcher.png"
       inkscape:export-xdpi="24.040001"
       inkscape:export-ydpi="24.040001" />
    <rect
       style="fill:#cccccc;stroke:#a0062f;stroke-width:2.12598425000000013;stroke-opacity:1;stroke-miterlimit:4;stroke-dasharray:none;stroke-linejoin:round;stroke-linecap:round"
       id="rect4216"
       width="21.080685"
       height="148.42444"
       x="312.50653"
       y="254.71246"
       inkscape:export-filename="/home/stanislav/AndroidStudioProjects/RoboPoetry/app/src/main/res/mipmap-hdpi/ic_launcher.png"
       inkscape:export-xdpi="24.040001"
       inkscape:export-ydpi="24.040001" />
    <rect
       style="fill:#ffcc00;fill-opacity:1;stroke:none"
       id="rect4214-7"
       width="118.11706"
       height="148.69434"
       x="-315.27563"
       y="204.87312"
       transform="matrix(-0.98771532,-0.15626401,0,1,0,0)"
       inkscape:export-filename="/home/stanislav/AndroidStudioProjects/RoboPoetry/app/src/main/res/mipmap-hdpi/ic_launcher.png"
       inkscape:export-xdpi="24.040001"
       inkscape:export-ydpi="24.040001" />
  </g>
</svg>
