<?xml version="1.0" encoding="utf-8"?>
<!-- Generator: Adobe Illustrator 16.0.0, SVG Export Plug-In . SVG Version: 6.00 Build 0)  -->
<!DOCTYPE svg PUBLIC "-//W3C//DTD SVG 1.1//EN" "http://www.w3.org/Graphics/SVG/1.1/DTD/svg11.dtd">
<svg version="1.1" id="Layer_1" xmlns="http://www.w3.org/2000/svg" xmlns:xlink="http://www.w3.org/1999/xlink" x="0px" y="0px"
	 width="512px" height="512px" viewBox="0 0 512 512" enable-background="new 0 0 512 512" xml:space="preserve">
<g>
	<defs>
		<path id="SVGID_1_" d="M90.425,0h330.994c49.708,0,90.009,40.295,90.009,90v331.998c0,49.708-40.301,89.997-90.009,89.997H90.425
			c-49.708,0-90.002-40.289-90.002-89.997V90C0.423,40.295,40.717,0,90.425,0L90.425,0z"/>
	</defs>
	<clipPath id="SVGID_2_">
		<use xlink:href="#SVGID_1_"  overflow="visible"/>
	</clipPath>
	<g clip-path="url(#SVGID_2_)">
		<image overflow="visible" width="512" height="512" xlink:href="EBD896F2E71F84E1.jpg"  transform="matrix(1 0 0 1 0.4233 0)">
		</image>
	</g>
</g>
<g>
	<defs>
		<path id="SVGID_3_" d="M101.424,10h308.003c49.704,0,90,40.294,90,89.997v310.004c0,49.709-40.296,90.001-90,90.001H101.424
			c-49.706,0-90-40.292-90-90.001V99.997C11.424,50.294,51.718,10,101.424,10L101.424,10z"/>
	</defs>
	<clipPath id="SVGID_4_">
		<use xlink:href="#SVGID_3_"  overflow="visible"/>
	</clipPath>
	<g transform="matrix(1 0 0 1 -2.980232e-08 0)" clip-path="url(#SVGID_4_)">
		
			<image overflow="visible" width="512" height="512" xlink:href="EBD896F2E71F84E3.jpg"  transform="matrix(1.9287 0 0 1.9287 0.4233 -475.5005)">
		</image>
	</g>
</g>
<g>
	<defs>
		<path id="SVGID_5_" d="M77.923,45.999c2.485,0,4.501,2.015,4.501,4.5c0,2.487-2.016,4.5-4.501,4.5c-2.485,0-4.499-2.013-4.499-4.5
			C73.424,48.014,75.438,45.999,77.923,45.999L77.923,45.999z"/>
	</defs>
	<clipPath id="SVGID_6_">
		<use xlink:href="#SVGID_5_"  overflow="visible"/>
	</clipPath>
	<g clip-path="url(#SVGID_6_)">
		<image overflow="visible" width="512" height="512" xlink:href="EBD896F2E71F84E6.jpg"  transform="matrix(1 0 0 1 0.4233 0)">
		</image>
	</g>
</g>
<g>
	<defs>
		<path id="SVGID_7_" d="M119.923,32.999c2.486,0,4.5,2.015,4.5,4.5c0,2.484-2.014,4.502-4.5,4.502
			c-2.484,0-4.498-2.018-4.498-4.502C115.425,35.014,117.439,32.999,119.923,32.999L119.923,32.999z"/>
	</defs>
	<clipPath id="SVGID_8_">
		<use xlink:href="#SVGID_7_"  overflow="visible"/>
	</clipPath>
	<g clip-path="url(#SVGID_8_)">
		<image overflow="visible" width="512" height="512" xlink:href="EBD896F2E71F84E7.jpg"  transform="matrix(1 0 0 1 0.4233 0)">
		</image>
	</g>
</g>
<g>
	<defs>
		<path id="SVGID_9_" d="M128.925,74c2.485,0,4.499,2.015,4.499,4.5c0,2.487-2.014,4.5-4.499,4.5c-2.487,0-4.502-2.012-4.502-4.5
			C124.423,76.014,126.438,74,128.925,74L128.925,74z"/>
	</defs>
	<clipPath id="SVGID_10_">
		<use xlink:href="#SVGID_9_"  overflow="visible"/>
	</clipPath>
	<g clip-path="url(#SVGID_10_)">
		<image overflow="visible" width="512" height="512" xlink:href="EBD896F2E71F84E2.jpg"  transform="matrix(1 0 0 1 0.4233 0)">
		</image>
	</g>
</g>
<g>
	<defs>
		<path id="SVGID_11_" d="M170.923,42.998c2.488,0,4.501,2.018,4.501,4.502c0,2.485-2.013,4.5-4.501,4.5c-2.484,0-4.5-2.015-4.5-4.5
			C166.424,45.016,168.439,42.998,170.923,42.998L170.923,42.998z"/>
	</defs>
	<clipPath id="SVGID_12_">
		<use xlink:href="#SVGID_11_"  overflow="visible"/>
	</clipPath>
	<g clip-path="url(#SVGID_12_)">
		<image overflow="visible" width="512" height="512" xlink:href="EBD896F2E71F84ED.jpg"  transform="matrix(1 0 0 1 0.4233 0)">
		</image>
	</g>
</g>
<g>
	<defs>
		<path id="SVGID_13_" d="M252.926,32.999c2.485,0,4.499,2.015,4.499,4.5c0,2.484-2.014,4.502-4.499,4.502
			c-2.487,0-4.503-2.018-4.503-4.502C248.423,35.014,250.439,32.999,252.926,32.999L252.926,32.999z"/>
	</defs>
	<clipPath id="SVGID_14_">
		<use xlink:href="#SVGID_13_"  overflow="visible"/>
	</clipPath>
	<g clip-path="url(#SVGID_14_)">
		<image overflow="visible" width="512" height="512" xlink:href="EBD896F2E71F84EE.jpg"  transform="matrix(1 0 0 1 0.4233 0)">
		</image>
	</g>
</g>
<g>
	<defs>
		<path id="SVGID_15_" d="M216.924,59.999c2.485,0,4.501,2.016,4.501,4.499c0,2.488-2.016,4.503-4.501,4.503
			c-2.483,0-4.499-2.015-4.499-4.503C212.425,62.015,214.44,59.999,216.924,59.999L216.924,59.999z"/>
	</defs>
	<clipPath id="SVGID_16_">
		<use xlink:href="#SVGID_15_"  overflow="visible"/>
	</clipPath>
	<g clip-path="url(#SVGID_16_)">
		<image overflow="visible" width="512" height="512" xlink:href="EBD896F2E71F84EF.jpg"  transform="matrix(1 0 0 1 0.4233 0)">
		</image>
	</g>
</g>
<g>
	<defs>
		<path id="SVGID_17_" d="M54.922,84.001c2.487,0,4.503,2.012,4.503,4.497c0,2.487-2.017,4.5-4.503,4.5
			c-2.484,0-4.498-2.013-4.498-4.5C50.424,86.014,52.438,84.001,54.922,84.001L54.922,84.001z"/>
	</defs>
	<clipPath id="SVGID_18_">
		<use xlink:href="#SVGID_17_"  overflow="visible"/>
	</clipPath>
	<g clip-path="url(#SVGID_18_)">
		<image overflow="visible" width="512" height="512" xlink:href="EBD896F2E71F84E4.jpg"  transform="matrix(1 0 0 1 0.4233 0)">
		</image>
	</g>
</g>
<g>
	<defs>
		<path id="SVGID_19_" d="M32.925,144.998c2.485,0,4.499,2.019,4.499,4.503c0,2.485-2.014,4.499-4.499,4.499
			c-2.487,0-4.502-2.014-4.502-4.499C28.423,147.017,30.438,144.998,32.925,144.998L32.925,144.998z"/>
	</defs>
	<clipPath id="SVGID_20_">
		<use xlink:href="#SVGID_19_"  overflow="visible"/>
	</clipPath>
	<g clip-path="url(#SVGID_20_)">
		<image overflow="visible" width="512" height="512" xlink:href="164DD11B678E349A.jpg"  transform="matrix(1 0 0 1 0.4233 0)">
		</image>
	</g>
</g>
<g>
	<defs>
		<path id="SVGID_21_" d="M50.922,186.001c2.486,0,4.501,2.012,4.501,4.497c0,2.488-2.015,4.5-4.501,4.5
			c-2.483,0-4.499-2.013-4.499-4.5C46.423,188.014,48.439,186.001,50.922,186.001L50.922,186.001z"/>
	</defs>
	<clipPath id="SVGID_22_">
		<use xlink:href="#SVGID_21_"  overflow="visible"/>
	</clipPath>
	<g clip-path="url(#SVGID_22_)">
		<image overflow="visible" width="512" height="512" xlink:href="164DD11B678E349D.jpg"  transform="matrix(1 0 0 1 0.4233 0)">
		</image>
	</g>
</g>
<g>
	<defs>
		<path id="SVGID_23_" d="M40.925,240c2.483,0,4.498,2.015,4.498,4.501c0,2.483-2.015,4.5-4.498,4.5c-2.485,0-4.501-2.018-4.501-4.5
			C36.424,242.015,38.44,240,40.925,240L40.925,240z"/>
	</defs>
	<clipPath id="SVGID_24_">
		<use xlink:href="#SVGID_23_"  overflow="visible"/>
	</clipPath>
	<g clip-path="url(#SVGID_24_)">
		<image overflow="visible" width="512" height="512" xlink:href="164DD11B678E349E.jpg"  transform="matrix(1 0 0 1 0.4233 0)">
		</image>
	</g>
</g>
<g>
	<defs>
		<path id="SVGID_25_" d="M64.923,281.997c2.487,0,4.501,2.021,4.501,4.503s-2.014,4.5-4.501,4.5c-2.485,0-4.499-2.019-4.499-4.5
			S62.438,281.997,64.923,281.997L64.923,281.997z"/>
	</defs>
	<clipPath id="SVGID_26_">
		<use xlink:href="#SVGID_25_"  overflow="visible"/>
	</clipPath>
	<g clip-path="url(#SVGID_26_)">
		<image overflow="visible" width="512" height="512" xlink:href="164DD11B678E349C.jpg"  transform="matrix(1 0 0 1 0.4233 0)">
		</image>
	</g>
</g>
<g>
	<defs>
		<path id="SVGID_27_" d="M34.925,308.001c2.483,0,4.498,2.019,4.498,4.499c0,2.482-2.015,4.5-4.498,4.5
			c-2.485,0-4.502-2.018-4.502-4.5C30.423,310.02,32.44,308.001,34.925,308.001L34.925,308.001z"/>
	</defs>
	<clipPath id="SVGID_28_">
		<use xlink:href="#SVGID_27_"  overflow="visible"/>
	</clipPath>
	<g clip-path="url(#SVGID_28_)">
		<image overflow="visible" width="512" height="512" xlink:href="164DD11B678E349B.jpg"  transform="matrix(1 0 0 1 0.4233 0)">
		</image>
	</g>
</g>
<g>
	<defs>
		<path id="SVGID_29_" d="M59.925,348.998c2.484,0,4.499,2.019,4.499,4.502c0,2.482-2.014,4.5-4.499,4.5
			c-2.486,0-4.502-2.018-4.502-4.5C55.423,351.017,57.439,348.998,59.925,348.998L59.925,348.998z"/>
	</defs>
	<clipPath id="SVGID_30_">
		<use xlink:href="#SVGID_29_"  overflow="visible"/>
	</clipPath>
	<g clip-path="url(#SVGID_30_)">
		<image overflow="visible" width="512" height="512" xlink:href="164DD11B678E3485.jpg"  transform="matrix(1 0 0 1 0.4233 0)">
		</image>
	</g>
</g>
<g>
	<defs>
		<path id="SVGID_31_" d="M41.925,403.002c2.482,0,4.499,2.013,4.499,4.502c0,2.483-2.016,4.5-4.499,4.5
			c-2.487,0-4.501-2.017-4.501-4.5C37.424,405.015,39.438,403.002,41.925,403.002L41.925,403.002z"/>
	</defs>
	<clipPath id="SVGID_32_">
		<use xlink:href="#SVGID_31_"  overflow="visible"/>
	</clipPath>
	<g clip-path="url(#SVGID_32_)">
		<image overflow="visible" width="512" height="512" xlink:href="164DD11B678E3486.jpg"  transform="matrix(1 0 0 1 0.4233 0)">
		</image>
	</g>
</g>
<g>
	<defs>
		<path id="SVGID_33_" d="M85.924,420.997c2.485,0,4.501,2.019,4.501,4.5c0,2.49-2.016,4.5-4.501,4.5c-2.486,0-4.501-2.01-4.501-4.5
			C81.423,423.016,83.438,420.997,85.924,420.997L85.924,420.997z"/>
	</defs>
	<clipPath id="SVGID_34_">
		<use xlink:href="#SVGID_33_"  overflow="visible"/>
	</clipPath>
	<g clip-path="url(#SVGID_34_)">
		<image overflow="visible" width="512" height="512" xlink:href="164DD11B678E3484.jpg"  transform="matrix(1 0 0 1 0.4233 0)">
		</image>
	</g>
</g>
<g>
	<defs>
		<path id="SVGID_35_" d="M86.926,469.993c2.481,0,4.497,2.022,4.497,4.512c0,2.481-2.016,4.5-4.497,4.5
			c-2.488,0-4.502-2.019-4.502-4.5C82.424,472.016,84.438,469.993,86.926,469.993L86.926,469.993z"/>
	</defs>
	<clipPath id="SVGID_36_">
		<use xlink:href="#SVGID_35_"  overflow="visible"/>
	</clipPath>
	<g clip-path="url(#SVGID_36_)">
		<image overflow="visible" width="512" height="512" xlink:href="164DD11B678E348A.jpg"  transform="matrix(1 0 0 1 0.4233 0)">
		</image>
	</g>
</g>
<g>
	<defs>
		<path id="SVGID_37_" d="M153.925,472.998c2.483,0,4.498,2.017,4.498,4.502c0,2.481-2.015,4.5-4.498,4.5
			c-2.486,0-4.502-2.019-4.502-4.5C149.423,475.015,151.439,472.998,153.925,472.998L153.925,472.998z"/>
	</defs>
	<clipPath id="SVGID_38_">
		<use xlink:href="#SVGID_37_"  overflow="visible"/>
	</clipPath>
	<g clip-path="url(#SVGID_38_)">
		<image overflow="visible" width="512" height="512" xlink:href="164DD11B678E348D.jpg"  transform="matrix(1 0 0 1 0.4233 0)">
		</image>
	</g>
</g>
<g>
	<defs>
		<path id="SVGID_39_" d="M197.924,444.994c2.485,0,4.501,2.021,4.501,4.511c0,2.481-2.016,4.501-4.501,4.501
			c-2.485,0-4.499-2.02-4.499-4.501C193.425,447.016,195.439,444.994,197.924,444.994L197.924,444.994z"/>
	</defs>
	<clipPath id="SVGID_40_">
		<use xlink:href="#SVGID_39_"  overflow="visible"/>
	</clipPath>
	<g clip-path="url(#SVGID_40_)">
		<image overflow="visible" width="512" height="512" xlink:href="164DD11B678E34A1.jpg"  transform="matrix(1 0 0 1 0.4233 0)">
		</image>
	</g>
</g>
<g>
	<defs>
		<path id="SVGID_41_" d="M236.924,475.002c2.486,0,4.5,2.009,4.5,4.498c0,2.483-2.014,4.501-4.5,4.501
			c-2.485,0-4.499-2.018-4.499-4.501C232.425,477.011,234.439,475.002,236.924,475.002L236.924,475.002z"/>
	</defs>
	<clipPath id="SVGID_42_">
		<use xlink:href="#SVGID_41_"  overflow="visible"/>
	</clipPath>
	<g clip-path="url(#SVGID_42_)">
		<image overflow="visible" width="512" height="512" xlink:href="164DD11B678E34A3.jpg"  transform="matrix(1 0 0 1 0.4233 0)">
		</image>
	</g>
</g>
<g>
	<defs>
		<path id="SVGID_43_" d="M401.923,476.002c2.489,0,4.499,2.009,4.499,4.499c0,2.482-2.01,4.503-4.499,4.503
			c-2.484,0-4.503-2.021-4.503-4.503C397.42,478.011,399.438,476.002,401.923,476.002L401.923,476.002z"/>
	</defs>
	<clipPath id="SVGID_44_">
		<use xlink:href="#SVGID_43_"  overflow="visible"/>
	</clipPath>
	<g clip-path="url(#SVGID_44_)">
		<image overflow="visible" width="512" height="512" xlink:href="164DD11B678E34A0.jpg"  transform="matrix(1 0 0 1 0.4233 0)">
		</image>
	</g>
</g>
<g>
	<defs>
		<path id="SVGID_45_" d="M378.926,415.999c2.479,0,4.497,2.019,4.497,4.5c0,2.483-2.019,4.502-4.497,4.502
			c-2.483,0-4.503-2.019-4.503-4.502C374.423,418.018,376.442,415.999,378.926,415.999L378.926,415.999z"/>
	</defs>
	<clipPath id="SVGID_46_">
		<use xlink:href="#SVGID_45_"  overflow="visible"/>
	</clipPath>
	<g clip-path="url(#SVGID_46_)">
		<image overflow="visible" width="512" height="512" xlink:href="164DD11B678E34AF.jpg"  transform="matrix(1 0 0 1 0.4233 0)">
		</image>
	</g>
</g>
<g>
	<defs>
		<path id="SVGID_47_" d="M419.923,403.002c2.491,0,4.5,2.013,4.5,4.502c0,2.483-2.009,4.5-4.5,4.5c-2.481,0-4.498-2.017-4.498-4.5
			C415.425,405.015,417.441,403.002,419.923,403.002L419.923,403.002z"/>
	</defs>
	<clipPath id="SVGID_48_">
		<use xlink:href="#SVGID_47_"  overflow="visible"/>
	</clipPath>
	<g clip-path="url(#SVGID_48_)">
		<image overflow="visible" width="512" height="512" xlink:href="164DD11B678E34A2.jpg"  transform="matrix(1 0 0 1 0.4233 0)">
		</image>
	</g>
</g>
<g>
	<defs>
		<path id="SVGID_49_" d="M448.928,444.003c2.481,0,4.499,2.01,4.499,4.499c0,2.481-2.018,4.503-4.499,4.503
			c-2.491,0-4.5-2.021-4.5-4.503C444.428,446.013,446.437,444.003,448.928,444.003L448.928,444.003z"/>
	</defs>
	<clipPath id="SVGID_50_">
		<use xlink:href="#SVGID_49_"  overflow="visible"/>
	</clipPath>
	<g clip-path="url(#SVGID_50_)">
		<image overflow="visible" width="512" height="512" xlink:href="164DD11B678E34A6.jpg"  transform="matrix(1 0 0 1 0.4233 0)">
		</image>
	</g>
</g>
<g>
	<defs>
		<path id="SVGID_51_" d="M321.925,479.005c2.481,0,4.498,2.009,4.498,4.49c0,2.491-2.017,4.504-4.498,4.504s-4.5-2.013-4.5-4.504
			C317.425,481.014,319.443,479.005,321.925,479.005L321.925,479.005z"/>
	</defs>
	<clipPath id="SVGID_52_">
		<use xlink:href="#SVGID_51_"  overflow="visible"/>
	</clipPath>
	<g clip-path="url(#SVGID_52_)">
		<image overflow="visible" width="512" height="512" xlink:href="164DD11B678E34A7.jpg"  transform="matrix(1 0 0 1 0.4233 0)">
		</image>
	</g>
</g>
<g>
	<defs>
		<path id="SVGID_53_" d="M469.924,379.005c2.48,0,4.499,2.01,4.499,4.49c0,2.491-2.019,4.501-4.499,4.501
			c-2.482,0-4.499-2.01-4.499-4.501C465.425,381.015,467.441,379.005,469.924,379.005L469.924,379.005z"/>
	</defs>
	<clipPath id="SVGID_54_">
		<use xlink:href="#SVGID_53_"  overflow="visible"/>
	</clipPath>
	<g clip-path="url(#SVGID_54_)">
		<image overflow="visible" width="512" height="512" xlink:href="164DD11B678E349F.jpg"  transform="matrix(1 0 0 1 0.4233 0)">
		</image>
	</g>
</g>
<g>
	<defs>
		<path id="SVGID_55_" d="M407.93,345.998c2.479,0,4.496,2.017,4.496,4.5c0,2.489-2.018,4.498-4.496,4.498
			c-2.489,0-4.502-2.009-4.502-4.498C403.428,348.015,405.44,345.998,407.93,345.998L407.93,345.998z"/>
	</defs>
	<clipPath id="SVGID_56_">
		<use xlink:href="#SVGID_55_"  overflow="visible"/>
	</clipPath>
	<g clip-path="url(#SVGID_56_)">
		<image overflow="visible" width="512" height="512" xlink:href="164DD11B678E3499.jpg"  transform="matrix(1 0 0 1 0.4233 0)">
		</image>
	</g>
</g>
<g>
	<defs>
		<path id="SVGID_57_" d="M460.922,311.002c2.489,0,4.503,2.012,4.503,4.502c0,2.481-2.014,4.499-4.503,4.499
			c-2.479,0-4.501-2.018-4.501-4.499C456.421,313.014,458.443,311.002,460.922,311.002L460.922,311.002z"/>
	</defs>
	<clipPath id="SVGID_58_">
		<use xlink:href="#SVGID_57_"  overflow="visible"/>
	</clipPath>
	<g clip-path="url(#SVGID_58_)">
		<image overflow="visible" width="512" height="512" xlink:href="164DD11B678E3498.jpg"  transform="matrix(1 0 0 1 0.4233 0)">
		</image>
	</g>
</g>
<g>
	<defs>
		<path id="SVGID_59_" d="M471.926,245.001c2.479,0,4.5,2.012,4.5,4.499c0,2.485-2.021,4.5-4.5,4.5c-2.49,0-4.502-2.015-4.502-4.5
			C467.424,247.013,469.436,245.001,471.926,245.001L471.926,245.001z"/>
	</defs>
	<clipPath id="SVGID_60_">
		<use xlink:href="#SVGID_59_"  overflow="visible"/>
	</clipPath>
	<g clip-path="url(#SVGID_60_)">
		<image overflow="visible" width="512" height="512" xlink:href="164DD11B678E34C4.jpg"  transform="matrix(1 0 0 1 0.4233 0)">
		</image>
	</g>
</g>
<g>
	<defs>
		<path id="SVGID_61_" d="M474.928,182c2.481,0,4.499,2.016,4.499,4.5c0,2.485-2.018,4.5-4.499,4.5c-2.488,0-4.508-2.015-4.508-4.5
			C470.42,184.016,472.439,182,474.928,182L474.928,182z"/>
	</defs>
	<clipPath id="SVGID_62_">
		<use xlink:href="#SVGID_61_"  overflow="visible"/>
	</clipPath>
	<g clip-path="url(#SVGID_62_)">
		<image overflow="visible" width="512" height="512" xlink:href="164DD11B678E34FB.jpg"  transform="matrix(1 0 0 1 0.4233 0)">
		</image>
	</g>
</g>
<g>
	<defs>
		<path id="SVGID_63_" d="M467.919,88c2.492,0,4.503,2.011,4.503,4.499c0,2.485-2.011,4.5-4.503,4.5c-2.477,0-4.498-2.016-4.498-4.5
			C463.421,90.012,465.442,88,467.919,88L467.919,88z"/>
	</defs>
	<clipPath id="SVGID_64_">
		<use xlink:href="#SVGID_63_"  overflow="visible"/>
	</clipPath>
	<g clip-path="url(#SVGID_64_)">
		<image overflow="visible" width="512" height="512" xlink:href="164DD11B678E34FC.jpg"  transform="matrix(1 0 0 1 0.4233 0)">
		</image>
	</g>
</g>
<g>
	<defs>
		<path id="SVGID_65_" d="M445.924,130.001c2.482,0,4.499,2.012,4.499,4.499c0,2.482-2.017,4.5-4.499,4.5s-4.499-2.018-4.499-4.5
			C441.425,132.013,443.441,130.001,445.924,130.001L445.924,130.001z"/>
	</defs>
	<clipPath id="SVGID_66_">
		<use xlink:href="#SVGID_65_"  overflow="visible"/>
	</clipPath>
	<g clip-path="url(#SVGID_66_)">
		<image overflow="visible" width="512" height="512" xlink:href="164DD11B678E34FF.jpg"  transform="matrix(1 0 0 1 0.4233 0)">
		</image>
	</g>
</g>
<g>
	<defs>
		<path id="SVGID_67_" d="M363.925,88c2.483,0,4.503,2.011,4.503,4.499c0,2.485-2.02,4.5-4.503,4.5c-2.49,0-4.498-2.016-4.498-4.5
			C359.427,90.012,361.435,88,363.925,88L363.925,88z"/>
	</defs>
	<clipPath id="SVGID_68_">
		<use xlink:href="#SVGID_67_"  overflow="visible"/>
	</clipPath>
	<g clip-path="url(#SVGID_68_)">
		<image overflow="visible" width="512" height="512" xlink:href="164DD11B678E34FD.jpg"  transform="matrix(1 0 0 1 0.4233 0)">
		</image>
	</g>
</g>
<g>
	<defs>
		<path id="SVGID_69_" d="M391.919,39c2.491,0,4.504,2.012,4.504,4.5c0,2.487-2.013,4.499-4.504,4.499
			c-2.48,0-4.49-2.012-4.49-4.499C387.429,41.012,389.438,39,391.919,39L391.919,39z"/>
	</defs>
	<clipPath id="SVGID_70_">
		<use xlink:href="#SVGID_69_"  overflow="visible"/>
	</clipPath>
	<g clip-path="url(#SVGID_70_)">
		<image overflow="visible" width="512" height="512" xlink:href="164DD11B678E34FA.jpg"  transform="matrix(1 0 0 1 0.4233 0)">
		</image>
	</g>
</g>
<g>
	<defs>
		<path id="SVGID_71_" d="M324.92,33.999c2.489,0,4.508,2.015,4.508,4.502c0,2.485-2.019,4.497-4.508,4.497
			c-2.483,0-4.491-2.012-4.491-4.497C320.429,36.014,322.437,33.999,324.92,33.999L324.92,33.999z"/>
	</defs>
	<clipPath id="SVGID_72_">
		<use xlink:href="#SVGID_71_"  overflow="visible"/>
	</clipPath>
	<g clip-path="url(#SVGID_72_)">
		<image overflow="visible" width="512" height="512" xlink:href="164DD11B678E34C5.jpg"  transform="matrix(1 0 0 1 0.4233 0)">
		</image>
	</g>
</g>
<g>
	<defs>
		<polygon id="SVGID_73_" points="170.423,446.998 108.424,457 59.426,122.999 305.423,82.002 314.421,127 164.423,272.998 
			185.424,295.995 207.424,317 226.426,438.998 170.423,446.998 		"/>
	</defs>
	<clipPath id="SVGID_74_">
		<use xlink:href="#SVGID_73_"  overflow="visible"/>
	</clipPath>
	<g clip-path="url(#SVGID_74_)">
		<image overflow="visible" width="512" height="512" xlink:href="164DD11B678E34C7.jpg"  transform="matrix(1 0 0 1 0.4233 0)">
		</image>
	</g>
</g>
<g>
	<defs>
		<path id="SVGID_75_" d="M172.424,310.001l-18.999-3.003c0,0-33.588-10.464-39.001,28.003c-3.685,30.398,21,37.998,21,37.998
			l45.002,4.002L172.424,310.001L172.424,310.001z"/>
	</defs>
	<clipPath id="SVGID_76_">
		<use xlink:href="#SVGID_75_"  overflow="visible"/>
	</clipPath>
	<g clip-path="url(#SVGID_76_)">
		<image overflow="visible" width="512" height="512" xlink:href="164DD11B678E34CA.jpg"  transform="matrix(1 0 0 1 0.4233 0)">
		</image>
	</g>
</g>
<g>
	<defs>
		<polygon id="SVGID_77_" points="64.424,115 87.423,101 107.424,97 84.425,111.999 64.424,115 		"/>
	</defs>
	<clipPath id="SVGID_78_">
		<use xlink:href="#SVGID_77_"  overflow="visible"/>
	</clipPath>
	<g clip-path="url(#SVGID_78_)">
		<image overflow="visible" width="512" height="512" xlink:href="164DD11B678E34CB.jpg"  transform="matrix(1 0 0 1 0.4233 0)">
		</image>
	</g>
</g>
<g>
	<defs>
		<polygon id="SVGID_79_" points="93.422,110.999 310.426,76.997 319.426,115 324.424,117.001 313.421,71.999 98.424,107.001 
			93.422,110.999 		"/>
	</defs>
	<clipPath id="SVGID_80_">
		<use xlink:href="#SVGID_79_"  overflow="visible"/>
	</clipPath>
	<g clip-path="url(#SVGID_80_)">
		<image overflow="visible" width="512" height="512" xlink:href="164DD11B678E34D7.jpg"  transform="matrix(1 0 0 1 0.4233 0)">
		</image>
	</g>
</g>
<g>
	<defs>
		<polygon id="SVGID_81_" points="107.424,101 111.424,97.999 320.429,62 332.423,114 328.419,111.999 317.425,67 107.424,101 		"/>
	</defs>
	<clipPath id="SVGID_82_">
		<use xlink:href="#SVGID_81_"  overflow="visible"/>
	</clipPath>
	<g clip-path="url(#SVGID_82_)">
		<image overflow="visible" width="512" height="512" xlink:href="164DD11B678E3529.jpg"  transform="matrix(1 0 0 1 0.4233 0)">
		</image>
	</g>
</g>
<g>
	<defs>
		<path id="SVGID_83_" d="M220.423,448.999l-69-16.999l9.001-44.996l15-5.004v-20.996l-44.999,3.995L133.424,316l20.001-7.999
			l-9.003-11.002c0,0-35.341-45.292-6.998-91.999c30.121-49.638,74.001-30.001,74.001-30.001l6.999-12
			c0,0,21.783-34.848,73.001-48.999c56.241-15.54,112.065-3.564,150,39c37.933,42.563,20.003,62,20.003,62l-77.001,19.998
			L220.423,448.999L220.423,448.999z"/>
	</defs>
	<clipPath id="SVGID_84_">
		<use xlink:href="#SVGID_83_"  overflow="visible"/>
	</clipPath>
	<g clip-path="url(#SVGID_84_)">
		<image overflow="visible" width="512" height="512" xlink:href="164DD11B678E352B.jpg"  transform="matrix(1 0 0 1 0.4233 0)">
		</image>
	</g>
</g>
<g>
	<defs>
		<path id="SVGID_85_" d="M213.423,195.998c0,0,32.23-67.776,104.002-72.999c71.768-5.223,134.001,68.999,134.001,68.999
			s-64.697-20.646-82.001,3.001C352.117,218.648,355.422,230,355.422,230S217.24,226.536,213.423,195.998L213.423,195.998z"/>
	</defs>
	<clipPath id="SVGID_86_">
		<use xlink:href="#SVGID_85_"  overflow="visible"/>
	</clipPath>
	<g clip-path="url(#SVGID_86_)">
		<image overflow="visible" width="512" height="512" xlink:href="164DD11B678E352E.jpg"  transform="matrix(1 0 0 1 0.4233 0)">
		</image>
	</g>
</g>
<g>
	<defs>
		<path id="SVGID_87_" d="M220.423,448.999l-69-16.999l9.001-44.996l15-5.004v-20.996l-44.999,3.995L133.424,316l20.001-7.999
			l-9.003-11.002c0,0-35.341-45.292-6.998-91.999c30.121-49.638,74.001-30.001,74.001-30.001l6.999-12
			c0,0,21.783-34.848,73.001-48.999c56.241-15.54,112.065-3.564,150,39c37.933,42.563,20.003,62,20.003,62l-77.001,19.998
			L220.423,448.999L220.423,448.999z"/>
	</defs>
	<defs>
		<path id="SVGID_88_" d="M213.423,195.998c0,0,32.23-67.776,104.002-72.999c71.768-5.223,134.001,68.999,134.001,68.999
			s-64.697-20.646-82.001,3.001c18.305-21.131,59.002-13.998,59.002-13.998s-48.363-52.528-113.003-51
			c-64.642,1.524-93,74.999-93,74.999S217.24,226.536,213.423,195.998L213.423,195.998z"/>
	</defs>
	<clipPath id="SVGID_89_">
		<use xlink:href="#SVGID_87_"  overflow="visible"/>
	</clipPath>
	<clipPath id="SVGID_90_" clip-path="url(#SVGID_89_)">
		<use xlink:href="#SVGID_88_"  overflow="visible"/>
	</clipPath>
	<g clip-path="url(#SVGID_90_)">
		<image overflow="visible" width="512" height="512" xlink:href="164DD11B678E352F.jpg"  transform="matrix(1 0 0 1 0.4233 0)">
		</image>
	</g>
</g>
<g>
	<defs>
		<path id="SVGID_91_" d="M213.423,195.998c0,0,32.23-67.776,104.002-72.999c71.768-5.223,134.001,68.999,134.001,68.999
			s-64.697-20.646-82.001,3.001C352.117,218.648,355.422,230,355.422,230S217.24,226.536,213.423,195.998L213.423,195.998z"/>
	</defs>
	<defs>
		<path id="SVGID_92_" d="M213.423,195.998c0,0,32.23-67.776,104.002-72.999c71.768-5.223,134.001,68.999,134.001,68.999
			s-64.697-20.646-82.001,3.001c18.305-21.131,59.002-13.998,59.002-13.998s-48.363-52.528-113.003-51
			c-64.642,1.524-93,74.999-93,74.999S217.24,226.536,213.423,195.998L213.423,195.998z"/>
	</defs>
	<clipPath id="SVGID_93_">
		<use xlink:href="#SVGID_91_"  overflow="visible"/>
	</clipPath>
	<clipPath id="SVGID_94_" clip-path="url(#SVGID_93_)">
		<use xlink:href="#SVGID_92_"  overflow="visible"/>
	</clipPath>
	<g clip-path="url(#SVGID_94_)">
		<image overflow="visible" width="512" height="512" xlink:href="164DD11B678E352A.jpg"  transform="matrix(1 0 0 1 0.4233 0)">
		</image>
	</g>
</g>
<g>
	<defs>
		<path id="SVGID_95_" d="M220.423,448.999l-69-16.999l9.001-44.996l15-5.004v-20.996l-44.999,3.995L133.424,316l20.001-7.999
			l-9.003-11.002c0,0-35.341-45.292-6.998-91.999c30.121-49.638,74.001-30.001,74.001-30.001l6.999-12
			c0,0,21.783-34.848,73.001-48.999c56.241-15.54,112.065-3.564,150,39c37.933,42.563,20.003,62,20.003,62l-77.001,19.998
			L220.423,448.999L220.423,448.999z"/>
	</defs>
	<defs>
		<path id="SVGID_96_" d="M241.423,205c0,0,34-68.237,91-74c-10.35-1.883-42.27-6.004-77.999,26
			C225.748,183.712,224.425,204,224.425,204L241.423,205L241.423,205z"/>
	</defs>
	<clipPath id="SVGID_97_">
		<use xlink:href="#SVGID_95_"  overflow="visible"/>
	</clipPath>
	<clipPath id="SVGID_98_" clip-path="url(#SVGID_97_)">
		<use xlink:href="#SVGID_96_"  overflow="visible"/>
	</clipPath>
	<g clip-path="url(#SVGID_98_)">
		<image overflow="visible" width="512" height="512" xlink:href="164DD11B678E3535.jpg"  transform="matrix(1 0 0 1 0.4233 0)">
		</image>
	</g>
</g>
<g>
	<defs>
		<path id="SVGID_99_" d="M213.423,195.998c0,0,32.23-67.776,104.002-72.999c71.768-5.223,134.001,68.999,134.001,68.999
			s-64.697-20.646-82.001,3.001C352.117,218.648,355.422,230,355.422,230S217.24,226.536,213.423,195.998L213.423,195.998z"/>
	</defs>
	<defs>
		<path id="SVGID_100_" d="M241.423,205c0,0,34-68.237,91-74c-10.35-1.883-42.27-6.004-77.999,26
			C225.748,183.712,224.425,204,224.425,204L241.423,205L241.423,205z"/>
	</defs>
	<clipPath id="SVGID_101_">
		<use xlink:href="#SVGID_99_"  overflow="visible"/>
	</clipPath>
	<clipPath id="SVGID_102_" clip-path="url(#SVGID_101_)">
		<use xlink:href="#SVGID_100_"  overflow="visible"/>
	</clipPath>
	<g clip-path="url(#SVGID_102_)">
		<image overflow="visible" width="512" height="512" xlink:href="164DD11B678E3536.jpg"  transform="matrix(1 0 0 1 0.4233 0)">
		</image>
	</g>
</g>
<g>
	<defs>
		<path id="SVGID_103_" d="M220.423,448.999l-69-16.999l9.001-44.996l15-5.004v-20.996l-44.999,3.995L133.424,316l20.001-7.999
			l-9.003-11.002c0,0-35.341-45.292-6.998-91.999c30.121-49.638,74.001-30.001,74.001-30.001l6.999-12
			c0,0,21.783-34.848,73.001-48.999c56.241-15.54,112.065-3.564,150,39c37.933,42.563,20.003,62,20.003,62l-77.001,19.998
			L220.423,448.999L220.423,448.999z"/>
	</defs>
	<defs>
		<path id="SVGID_104_" d="M213.423,195.998c0,0,32.23-67.776,104.002-72.999c71.768-5.223,134.001,68.999,134.001,68.999
			s-64.697-20.646-82.001,3.001c18.305-21.131,59.002-13.998,59.002-13.998s-48.363-52.528-113.003-51
			c-64.642,1.524-93,74.999-93,74.999S217.24,226.536,213.423,195.998L213.423,195.998z"/>
	</defs>
	<defs>
		<path id="SVGID_105_" d="M241.423,205c0,0,34-68.237,91-74c-10.35-1.883-42.27-6.004-77.999,26
			C225.748,183.712,224.425,204,224.425,204L241.423,205L241.423,205z"/>
	</defs>
	<clipPath id="SVGID_106_">
		<use xlink:href="#SVGID_103_"  overflow="visible"/>
	</clipPath>
	<clipPath id="SVGID_107_" clip-path="url(#SVGID_106_)">
		<use xlink:href="#SVGID_104_"  overflow="visible"/>
	</clipPath>
	<clipPath id="SVGID_108_" clip-path="url(#SVGID_107_)">
		<use xlink:href="#SVGID_105_"  overflow="visible"/>
	</clipPath>
	<g clip-path="url(#SVGID_108_)">
		<image overflow="visible" width="512" height="512" xlink:href="164DD11B678E3537.jpg"  transform="matrix(1 0 0 1 0.4233 0)">
		</image>
	</g>
</g>
<g>
	<defs>
		<path id="SVGID_109_" d="M213.423,195.998c0,0,32.23-67.776,104.002-72.999c71.768-5.223,134.001,68.999,134.001,68.999
			s-64.697-20.646-82.001,3.001C352.117,218.648,355.422,230,355.422,230S217.24,226.536,213.423,195.998L213.423,195.998z"/>
	</defs>
	<defs>
		<path id="SVGID_110_" d="M213.423,195.998c0,0,32.23-67.776,104.002-72.999c71.768-5.223,134.001,68.999,134.001,68.999
			s-64.697-20.646-82.001,3.001c18.305-21.131,59.002-13.998,59.002-13.998s-48.363-52.528-113.003-51
			c-64.642,1.524-93,74.999-93,74.999S217.24,226.536,213.423,195.998L213.423,195.998z"/>
	</defs>
	<defs>
		<path id="SVGID_111_" d="M241.423,205c0,0,34-68.237,91-74c-10.35-1.883-42.27-6.004-77.999,26
			C225.748,183.712,224.425,204,224.425,204L241.423,205L241.423,205z"/>
	</defs>
	<clipPath id="SVGID_112_">
		<use xlink:href="#SVGID_109_"  overflow="visible"/>
	</clipPath>
	<clipPath id="SVGID_113_" clip-path="url(#SVGID_112_)">
		<use xlink:href="#SVGID_110_"  overflow="visible"/>
	</clipPath>
	<clipPath id="SVGID_114_" clip-path="url(#SVGID_113_)">
		<use xlink:href="#SVGID_111_"  overflow="visible"/>
	</clipPath>
	<g clip-path="url(#SVGID_114_)">
		<image overflow="visible" width="512" height="512" xlink:href="164DD11B678E3539.jpg"  transform="matrix(1 0 0 1 0.4233 0)">
		</image>
	</g>
</g>
<g>
	<defs>
		<path id="SVGID_115_" d="M213.423,195.998c0,0,32.23-67.776,104.002-72.999c71.768-5.223,134.001,68.999,134.001,68.999
			s-64.697-20.646-82.001,3.001C352.117,218.648,355.422,230,355.422,230S217.24,226.536,213.423,195.998L213.423,195.998z"/>
	</defs>
	<defs>
		<path id="SVGID_116_" d="M288.421,193.001c0,0,36.776-35.673,17.002-41c-19.769-5.329-49.251,0.871-76.998,50
			C200.678,251.127,288.421,193.001,288.421,193.001L288.421,193.001z"/>
	</defs>
	<clipPath id="SVGID_117_">
		<use xlink:href="#SVGID_115_"  overflow="visible"/>
	</clipPath>
	<clipPath id="SVGID_118_" clip-path="url(#SVGID_117_)">
		<use xlink:href="#SVGID_116_"  overflow="visible"/>
	</clipPath>
	<g clip-path="url(#SVGID_118_)">
		<image overflow="visible" width="512" height="512" xlink:href="164DD11B678E3516.jpg"  transform="matrix(1 0 0 1 0.4233 0)">
		</image>
	</g>
</g>
<g>
	<defs>
		<path id="SVGID_119_" d="M213.423,195.998c0,0,32.23-67.776,104.002-72.999c71.768-5.223,134.001,68.999,134.001,68.999
			s-64.697-20.646-82.001,3.001C352.117,218.648,355.422,230,355.422,230S217.24,226.536,213.423,195.998L213.423,195.998z"/>
	</defs>
	<defs>
		<path id="SVGID_120_" d="M241.423,205c0,0,34-68.237,91-74c-10.35-1.883-42.27-6.004-77.999,26
			C225.748,183.712,224.425,204,224.425,204L241.423,205L241.423,205z"/>
	</defs>
	<defs>
		<path id="SVGID_121_" d="M288.421,193.001c0,0,36.776-35.673,17.002-41c-19.769-5.329-49.251,0.871-76.998,50
			C200.678,251.127,288.421,193.001,288.421,193.001L288.421,193.001z"/>
	</defs>
	<clipPath id="SVGID_122_">
		<use xlink:href="#SVGID_119_"  overflow="visible"/>
	</clipPath>
	<clipPath id="SVGID_123_" clip-path="url(#SVGID_122_)">
		<use xlink:href="#SVGID_120_"  overflow="visible"/>
	</clipPath>
	<clipPath id="SVGID_124_" clip-path="url(#SVGID_123_)">
		<use xlink:href="#SVGID_121_"  overflow="visible"/>
	</clipPath>
	<g clip-path="url(#SVGID_124_)">
		<image overflow="visible" width="512" height="512" xlink:href="164DD11B678E3511.jpg"  transform="matrix(1 0 0 1 0.4233 0)">
		</image>
	</g>
</g>
<g>
	<defs>
		<path id="SVGID_125_" d="M144.422,318c-14.505-0.423-18.88,15.823-17.999,22.999c0.882,7.177,6.892,17.87,19,17.001
			c12.107-0.871,15.012-18.05,13-27.003C156.411,322.054,158.932,318.426,144.422,318L144.422,318z"/>
	</defs>
	<clipPath id="SVGID_126_">
		<use xlink:href="#SVGID_125_"  overflow="visible"/>
	</clipPath>
	<g clip-path="url(#SVGID_126_)">
		<image overflow="visible" width="512" height="512" xlink:href="164DD11B678E3512.jpg"  transform="matrix(1 0 0 1 0.4233 0)">
		</image>
	</g>
</g>
<g>
	<defs>
		<path id="SVGID_127_" d="M340.421,348.998c0,0-98.834-28.205-110.998-48.999c-19.413-6.648-38.654-0.9-40.999,10.002
			c-2.346,10.906,4.05,18.579,13.001,19.995C210.373,331.42,340.421,348.998,340.421,348.998L340.421,348.998z"/>
	</defs>
	<clipPath id="SVGID_128_">
		<use xlink:href="#SVGID_127_"  overflow="visible"/>
	</clipPath>
	<g clip-path="url(#SVGID_128_)">
		<image overflow="visible" width="512" height="512" xlink:href="164DD11B678E3510.jpg"  transform="matrix(1 0 0 1 0.4233 0)">
		</image>
	</g>
</g>
<g>
	<defs>
		<path id="SVGID_129_" d="M191.424,306.998c0,0-39.228-8.195-46-44.993c-6.773-36.808,3.958-53.28,35.002-74.006
			c18.589-12.411,33.346,13.222,69.002,14.001c35.647,0.778,28.985-27.35,86.998,0c63.942,30.144,80.509,112.323-4.003,117.004
			c-35.986,1.985-64.452-24.546-103.998-22.005C188.876,299.544,191.424,306.998,191.424,306.998L191.424,306.998z"/>
	</defs>
	<clipPath id="SVGID_130_">
		<use xlink:href="#SVGID_129_"  overflow="visible"/>
	</clipPath>
	<g clip-path="url(#SVGID_130_)">
		<image overflow="visible" width="512" height="512" xlink:href="164DD11B678E351E.jpg"  transform="matrix(1 0 0 1 0.4233 0)">
		</image>
	</g>
</g>
<g>
	<defs>
		<path id="SVGID_131_" d="M101.424,10h308.003c49.704,0,90,40.294,90,89.997v310.004c0,49.709-40.296,90.001-90,90.001H101.424
			c-49.706,0-90-40.292-90-90.001V99.997C11.424,50.294,51.718,10,101.424,10L101.424,10z"/>
	</defs>
	<defs>
		<path id="SVGID_132_" d="M191.424,306.998c0,0-39.228-8.195-46-44.993c-6.773-36.808,1.961-52.28,33.002-73.005
			c18.587-12.411,35.346,12.221,71.002,13c35.647,0.778,28.985-27.35,86.998,0c63.942,30.144,80.509,112.323-4.003,117.004
			c36.92-14.583,57.554-44.9,37.996-73.003c-19.546-28.111-56.965-50.705-82.989-44.998c-26.034,5.703-33.912,14.163-60.005,5.998
			c-26.096-8.166-31.857-24.335-53-9.002c-21.146,15.336-33.912,36.308-24.004,74C160.32,296.599,191.424,306.998,191.424,306.998
			L191.424,306.998z"/>
	</defs>
	<clipPath id="SVGID_133_">
		<use xlink:href="#SVGID_131_"  overflow="visible"/>
	</clipPath>
	<clipPath id="SVGID_134_" clip-path="url(#SVGID_133_)">
		<use xlink:href="#SVGID_132_"  overflow="visible"/>
	</clipPath>
	<g clip-path="url(#SVGID_134_)">
		<image overflow="visible" width="512" height="512" xlink:href="164DD11B678E3513.jpg"  transform="matrix(1 0 0 1 0.4233 0)">
		</image>
	</g>
</g>
<g>
	<defs>
		<path id="SVGID_135_" d="M220.423,448.999l-69-16.999l9.001-44.996l15-5.004v-20.996l-44.999,3.995L133.424,316l20.001-7.999
			l-9.003-11.002c0,0-35.341-45.292-6.998-91.999c30.121-49.638,74.001-30.001,74.001-30.001l6.999-12
			c0,0,21.783-34.848,73.001-48.999c56.241-15.54,112.065-3.564,150,39c37.933,42.563,20.003,62,20.003,62l-77.001,19.998
			L220.423,448.999L220.423,448.999z"/>
	</defs>
	<defs>
		<path id="SVGID_136_" d="M191.424,306.998c0,0-39.228-8.195-46-44.993c-6.773-36.808,1.961-52.28,33.002-73.005
			c18.587-12.411,35.346,12.221,71.002,13c35.647,0.778,28.985-27.35,86.998,0c63.942,30.144,80.509,112.323-4.003,117.004
			c36.92-14.583,57.554-44.9,37.996-73.003c-19.546-28.111-56.965-50.705-82.989-44.998c-26.034,5.703-33.912,14.163-60.005,5.998
			c-26.096-8.166-31.857-24.335-53-9.002c-21.146,15.336-33.912,36.308-24.004,74C160.32,296.599,191.424,306.998,191.424,306.998
			L191.424,306.998z"/>
	</defs>
	<clipPath id="SVGID_137_">
		<use xlink:href="#SVGID_135_"  overflow="visible"/>
	</clipPath>
	<clipPath id="SVGID_138_" clip-path="url(#SVGID_137_)">
		<use xlink:href="#SVGID_136_"  overflow="visible"/>
	</clipPath>
	<g clip-path="url(#SVGID_138_)">
		<image overflow="visible" width="512" height="512" xlink:href="164DD11B678E3517.jpg"  transform="matrix(1 0 0 1 0.4233 0)">
		</image>
	</g>
</g>
<g>
	<defs>
		<path id="SVGID_139_" d="M213.423,195.998c0,0,32.23-67.776,104.002-72.999c71.768-5.223,134.001,68.999,134.001,68.999
			s-64.697-20.646-82.001,3.001C352.117,218.648,355.422,230,355.422,230S217.24,226.536,213.423,195.998L213.423,195.998z"/>
	</defs>
	<defs>
		<path id="SVGID_140_" d="M191.424,306.998c0,0-39.228-8.195-46-44.993c-6.773-36.808,1.961-52.28,33.002-73.005
			c18.587-12.411,35.346,12.221,71.002,13c35.647,0.778,28.985-27.35,86.998,0c63.942,30.144,80.509,112.323-4.003,117.004
			c36.92-14.583,57.554-44.9,37.996-73.003c-19.546-28.111-56.965-50.705-82.989-44.998c-26.034,5.703-33.912,14.163-60.005,5.998
			c-26.096-8.166-31.857-24.335-53-9.002c-21.146,15.336-33.912,36.308-24.004,74C160.32,296.599,191.424,306.998,191.424,306.998
			L191.424,306.998z"/>
	</defs>
	<clipPath id="SVGID_141_">
		<use xlink:href="#SVGID_139_"  overflow="visible"/>
	</clipPath>
	<clipPath id="SVGID_142_" clip-path="url(#SVGID_141_)">
		<use xlink:href="#SVGID_140_"  overflow="visible"/>
	</clipPath>
	<g clip-path="url(#SVGID_142_)">
		<image overflow="visible" width="512" height="512" xlink:href="164DD11B678E3515.jpg"  transform="matrix(1 0 0 1 0.4233 0)">
		</image>
	</g>
</g>
<g>
	<defs>
		<path id="SVGID_143_" d="M220.423,448.999l-69-16.999l9.001-44.996l15-5.004v-20.996l-44.999,3.995L133.424,316l20.001-7.999
			l-9.003-11.002c0,0-35.341-45.292-6.998-91.999c30.121-49.638,74.001-30.001,74.001-30.001l6.999-12
			c0,0,21.783-34.848,73.001-48.999c56.241-15.54,112.065-3.564,150,39c37.933,42.563,20.003,62,20.003,62l-77.001,19.998
			L220.423,448.999L220.423,448.999z"/>
	</defs>
	<defs>
		<path id="SVGID_144_" d="M213.423,195.998c0,0,32.23-67.776,104.002-72.999c71.768-5.223,134.001,68.999,134.001,68.999
			s-64.697-20.646-82.001,3.001c18.305-21.131,59.002-13.998,59.002-13.998s-48.363-52.528-113.003-51
			c-64.642,1.524-93,74.999-93,74.999S217.24,226.536,213.423,195.998L213.423,195.998z"/>
	</defs>
	<defs>
		<path id="SVGID_145_" d="M191.424,306.998c0,0-39.228-8.195-46-44.993c-6.773-36.808,1.961-52.28,33.002-73.005
			c18.587-12.411,35.346,12.221,71.002,13c35.647,0.778,28.985-27.35,86.998,0c63.942,30.144,80.509,112.323-4.003,117.004
			c36.92-14.583,57.554-44.9,37.996-73.003c-19.546-28.111-56.965-50.705-82.989-44.998c-26.034,5.703-33.912,14.163-60.005,5.998
			c-26.096-8.166-31.857-24.335-53-9.002c-21.146,15.336-33.912,36.308-24.004,74C160.32,296.599,191.424,306.998,191.424,306.998
			L191.424,306.998z"/>
	</defs>
	<clipPath id="SVGID_146_">
		<use xlink:href="#SVGID_143_"  overflow="visible"/>
	</clipPath>
	<clipPath id="SVGID_147_" clip-path="url(#SVGID_146_)">
		<use xlink:href="#SVGID_144_"  overflow="visible"/>
	</clipPath>
	<clipPath id="SVGID_148_" clip-path="url(#SVGID_147_)">
		<use xlink:href="#SVGID_145_"  overflow="visible"/>
	</clipPath>
	<g clip-path="url(#SVGID_148_)">
		<image overflow="visible" width="512" height="512" xlink:href="164DD11B678E356C.jpg"  transform="matrix(1 0 0 1 0.4233 0)">
		</image>
	</g>
</g>
<g>
	<defs>
		<path id="SVGID_149_" d="M213.423,195.998c0,0,32.23-67.776,104.002-72.999c71.768-5.223,134.001,68.999,134.001,68.999
			s-64.697-20.646-82.001,3.001C352.117,218.648,355.422,230,355.422,230S217.24,226.536,213.423,195.998L213.423,195.998z"/>
	</defs>
	<defs>
		<path id="SVGID_150_" d="M213.423,195.998c0,0,32.23-67.776,104.002-72.999c71.768-5.223,134.001,68.999,134.001,68.999
			s-64.697-20.646-82.001,3.001c18.305-21.131,59.002-13.998,59.002-13.998s-48.363-52.528-113.003-51
			c-64.642,1.524-93,74.999-93,74.999S217.24,226.536,213.423,195.998L213.423,195.998z"/>
	</defs>
	<defs>
		<path id="SVGID_151_" d="M191.424,306.998c0,0-39.228-8.195-46-44.993c-6.773-36.808,1.961-52.28,33.002-73.005
			c18.587-12.411,35.346,12.221,71.002,13c35.647,0.778,28.985-27.35,86.998,0c63.942,30.144,80.509,112.323-4.003,117.004
			c36.92-14.583,57.554-44.9,37.996-73.003c-19.546-28.111-56.965-50.705-82.989-44.998c-26.034,5.703-33.912,14.163-60.005,5.998
			c-26.096-8.166-31.857-24.335-53-9.002c-21.146,15.336-33.912,36.308-24.004,74C160.32,296.599,191.424,306.998,191.424,306.998
			L191.424,306.998z"/>
	</defs>
	<clipPath id="SVGID_152_">
		<use xlink:href="#SVGID_149_"  overflow="visible"/>
	</clipPath>
	<clipPath id="SVGID_153_" clip-path="url(#SVGID_152_)">
		<use xlink:href="#SVGID_150_"  overflow="visible"/>
	</clipPath>
	<clipPath id="SVGID_154_" clip-path="url(#SVGID_153_)">
		<use xlink:href="#SVGID_151_"  overflow="visible"/>
	</clipPath>
	<g clip-path="url(#SVGID_154_)">
		<image overflow="visible" width="512" height="512" xlink:href="164DD11B678E356D.jpg"  transform="matrix(1 0 0 1 0.4233 0)">
		</image>
	</g>
</g>
<g>
	<defs>
		<path id="SVGID_155_" d="M213.423,195.998c0,0,32.23-67.776,104.002-72.999c71.768-5.223,134.001,68.999,134.001,68.999
			s-64.697-20.646-82.001,3.001C352.117,218.648,355.422,230,355.422,230S217.24,226.536,213.423,195.998L213.423,195.998z"/>
	</defs>
	<defs>
		<path id="SVGID_156_" d="M241.423,205c0,0,34-68.237,91-74c-10.35-1.883-42.27-6.004-77.999,26
			C225.748,183.712,224.425,204,224.425,204L241.423,205L241.423,205z"/>
	</defs>
	<defs>
		<path id="SVGID_157_" d="M191.424,306.998c0,0-39.228-8.195-46-44.993c-6.773-36.808,1.961-52.28,33.002-73.005
			c18.587-12.411,35.346,12.221,71.002,13c35.647,0.778,28.985-27.35,86.998,0c63.942,30.144,80.509,112.323-4.003,117.004
			c36.92-14.583,57.554-44.9,37.996-73.003c-19.546-28.111-56.965-50.705-82.989-44.998c-26.034,5.703-33.912,14.163-60.005,5.998
			c-26.096-8.166-31.857-24.335-53-9.002c-21.146,15.336-33.912,36.308-24.004,74C160.32,296.599,191.424,306.998,191.424,306.998
			L191.424,306.998z"/>
	</defs>
	<clipPath id="SVGID_158_">
		<use xlink:href="#SVGID_155_"  overflow="visible"/>
	</clipPath>
	<clipPath id="SVGID_159_" clip-path="url(#SVGID_158_)">
		<use xlink:href="#SVGID_156_"  overflow="visible"/>
	</clipPath>
	<clipPath id="SVGID_160_" clip-path="url(#SVGID_159_)">
		<use xlink:href="#SVGID_157_"  overflow="visible"/>
	</clipPath>
	<g clip-path="url(#SVGID_160_)">
		<image overflow="visible" width="512" height="512" xlink:href="164DD11B678E3575.jpg"  transform="matrix(1 0 0 1 0.4233 0)">
		</image>
	</g>
</g>
<g>
	<defs>
		<path id="SVGID_161_" d="M213.423,195.998c0,0,32.23-67.776,104.002-72.999c71.768-5.223,134.001,68.999,134.001,68.999
			s-64.697-20.646-82.001,3.001C352.117,218.648,355.422,230,355.422,230S217.24,226.536,213.423,195.998L213.423,195.998z"/>
	</defs>
	<defs>
		<path id="SVGID_162_" d="M213.423,195.998c0,0,32.23-67.776,104.002-72.999c71.768-5.223,134.001,68.999,134.001,68.999
			s-64.697-20.646-82.001,3.001c18.305-21.131,59.002-13.998,59.002-13.998s-48.363-52.528-113.003-51
			c-64.642,1.524-93,74.999-93,74.999S217.24,226.536,213.423,195.998L213.423,195.998z"/>
	</defs>
	<defs>
		<path id="SVGID_163_" d="M241.423,205c0,0,34-68.237,91-74c-10.35-1.883-42.27-6.004-77.999,26
			C225.748,183.712,224.425,204,224.425,204L241.423,205L241.423,205z"/>
	</defs>
	<defs>
		<path id="SVGID_164_" d="M191.424,306.998c0,0-39.228-8.195-46-44.993c-6.773-36.808,1.961-52.28,33.002-73.005
			c18.587-12.411,35.346,12.221,71.002,13c35.647,0.778,28.985-27.35,86.998,0c63.942,30.144,80.509,112.323-4.003,117.004
			c36.92-14.583,57.554-44.9,37.996-73.003c-19.546-28.111-56.965-50.705-82.989-44.998c-26.034,5.703-33.912,14.163-60.005,5.998
			c-26.096-8.166-31.857-24.335-53-9.002c-21.146,15.336-33.912,36.308-24.004,74C160.32,296.599,191.424,306.998,191.424,306.998
			L191.424,306.998z"/>
	</defs>
	<clipPath id="SVGID_165_">
		<use xlink:href="#SVGID_161_"  overflow="visible"/>
	</clipPath>
	<clipPath id="SVGID_166_" clip-path="url(#SVGID_165_)">
		<use xlink:href="#SVGID_162_"  overflow="visible"/>
	</clipPath>
	<clipPath id="SVGID_167_" clip-path="url(#SVGID_166_)">
		<use xlink:href="#SVGID_163_"  overflow="visible"/>
	</clipPath>
	<clipPath id="SVGID_168_" clip-path="url(#SVGID_167_)">
		<use xlink:href="#SVGID_164_"  overflow="visible"/>
	</clipPath>
	<g clip-path="url(#SVGID_168_)">
		<image overflow="visible" width="512" height="512" xlink:href="164DD11B678E3577.jpg"  transform="matrix(1 0 0 1 0.4233 0)">
		</image>
	</g>
</g>
<g>
	<defs>
		<path id="SVGID_169_" d="M213.423,195.998c0,0,32.23-67.776,104.002-72.999c71.768-5.223,134.001,68.999,134.001,68.999
			s-64.697-20.646-82.001,3.001C352.117,218.648,355.422,230,355.422,230S217.24,226.536,213.423,195.998L213.423,195.998z"/>
	</defs>
	<defs>
		<path id="SVGID_170_" d="M288.421,193.001c0,0,36.776-35.673,17.002-41c-19.769-5.329-49.251,0.871-76.998,50
			C200.678,251.127,288.421,193.001,288.421,193.001L288.421,193.001z"/>
	</defs>
	<defs>
		<path id="SVGID_171_" d="M191.424,306.998c0,0-39.228-8.195-46-44.993c-6.773-36.808,1.961-52.28,33.002-73.005
			c18.587-12.411,35.346,12.221,71.002,13c35.647,0.778,28.985-27.35,86.998,0c63.942,30.144,80.509,112.323-4.003,117.004
			c36.92-14.583,57.554-44.9,37.996-73.003c-19.546-28.111-56.965-50.705-82.989-44.998c-26.034,5.703-33.912,14.163-60.005,5.998
			c-26.096-8.166-31.857-24.335-53-9.002c-21.146,15.336-33.912,36.308-24.004,74C160.32,296.599,191.424,306.998,191.424,306.998
			L191.424,306.998z"/>
	</defs>
	<clipPath id="SVGID_172_">
		<use xlink:href="#SVGID_169_"  overflow="visible"/>
	</clipPath>
	<clipPath id="SVGID_173_" clip-path="url(#SVGID_172_)">
		<use xlink:href="#SVGID_170_"  overflow="visible"/>
	</clipPath>
	<clipPath id="SVGID_174_" clip-path="url(#SVGID_173_)">
		<use xlink:href="#SVGID_171_"  overflow="visible"/>
	</clipPath>
	<g clip-path="url(#SVGID_174_)">
		<image overflow="visible" width="512" height="512" xlink:href="164DD11B678E3574.jpg"  transform="matrix(1 0 0 1 0.4233 0)">
		</image>
	</g>
</g>
<g>
	<defs>
		<path id="SVGID_175_" d="M213.423,195.998c0,0,32.23-67.776,104.002-72.999c71.768-5.223,134.001,68.999,134.001,68.999
			s-64.697-20.646-82.001,3.001C352.117,218.648,355.422,230,355.422,230S217.24,226.536,213.423,195.998L213.423,195.998z"/>
	</defs>
	<defs>
		<path id="SVGID_176_" d="M241.423,205c0,0,34-68.237,91-74c-10.35-1.883-42.27-6.004-77.999,26
			C225.748,183.712,224.425,204,224.425,204L241.423,205L241.423,205z"/>
	</defs>
	<defs>
		<path id="SVGID_177_" d="M288.421,193.001c0,0,36.776-35.673,17.002-41c-19.769-5.329-49.251,0.871-76.998,50
			C200.678,251.127,288.421,193.001,288.421,193.001L288.421,193.001z"/>
	</defs>
	<defs>
		<path id="SVGID_178_" d="M191.424,306.998c0,0-39.228-8.195-46-44.993c-6.773-36.808,1.961-52.28,33.002-73.005
			c18.587-12.411,35.346,12.221,71.002,13c35.647,0.778,28.985-27.35,86.998,0c63.942,30.144,80.509,112.323-4.003,117.004
			c36.92-14.583,57.554-44.9,37.996-73.003c-19.546-28.111-56.965-50.705-82.989-44.998c-26.034,5.703-33.912,14.163-60.005,5.998
			c-26.096-8.166-31.857-24.335-53-9.002c-21.146,15.336-33.912,36.308-24.004,74C160.32,296.599,191.424,306.998,191.424,306.998
			L191.424,306.998z"/>
	</defs>
	<clipPath id="SVGID_179_">
		<use xlink:href="#SVGID_175_"  overflow="visible"/>
	</clipPath>
	<clipPath id="SVGID_180_" clip-path="url(#SVGID_179_)">
		<use xlink:href="#SVGID_176_"  overflow="visible"/>
	</clipPath>
	<clipPath id="SVGID_181_" clip-path="url(#SVGID_180_)">
		<use xlink:href="#SVGID_177_"  overflow="visible"/>
	</clipPath>
	<clipPath id="SVGID_182_" clip-path="url(#SVGID_181_)">
		<use xlink:href="#SVGID_178_"  overflow="visible"/>
	</clipPath>
	<g clip-path="url(#SVGID_182_)">
		<image overflow="visible" width="512" height="512" xlink:href="164DD11B678E3573.jpg"  transform="matrix(1 0 0 1 0.4233 0)">
		</image>
	</g>
</g>
<g>
	<defs>
		<path id="SVGID_183_" d="M340.421,348.998c0,0-98.834-28.205-110.998-48.999c-19.413-6.648-38.654-0.9-40.999,10.002
			c-2.346,10.906,4.05,18.579,13.001,19.995C210.373,331.42,340.421,348.998,340.421,348.998L340.421,348.998z"/>
	</defs>
	<defs>
		<path id="SVGID_184_" d="M191.424,306.998c0,0-39.228-8.195-46-44.993c-6.773-36.808,1.961-52.28,33.002-73.005
			c18.587-12.411,35.346,12.221,71.002,13c35.647,0.778,28.985-27.35,86.998,0c63.942,30.144,80.509,112.323-4.003,117.004
			c36.92-14.583,57.554-44.9,37.996-73.003c-19.546-28.111-56.965-50.705-82.989-44.998c-26.034,5.703-33.912,14.163-60.005,5.998
			c-26.096-8.166-31.857-24.335-53-9.002c-21.146,15.336-33.912,36.308-24.004,74C160.32,296.599,191.424,306.998,191.424,306.998
			L191.424,306.998z"/>
	</defs>
	<clipPath id="SVGID_185_">
		<use xlink:href="#SVGID_183_"  overflow="visible"/>
	</clipPath>
	<clipPath id="SVGID_186_" clip-path="url(#SVGID_185_)">
		<use xlink:href="#SVGID_184_"  overflow="visible"/>
	</clipPath>
	<g clip-path="url(#SVGID_186_)">
		<image overflow="visible" width="512" height="512" xlink:href="164DD11B678E350D.jpg"  transform="matrix(1 0 0 1 0.4233 0)">
		</image>
	</g>
</g>
<g>
	<defs>
		<path id="SVGID_187_" d="M191.424,306.998c0,0-39.228-8.195-46-44.993c-6.773-36.808,3.958-53.28,35.002-74.006
			c18.589-12.411,33.346,13.222,69.002,14.001c35.647,0.778,28.985-27.35,86.998,0c63.942,30.144,80.509,112.323-4.003,117.004
			c-35.986,1.985-64.452-24.546-103.998-22.005C188.876,299.544,191.424,306.998,191.424,306.998L191.424,306.998z"/>
	</defs>
	<defs>
		<path id="SVGID_188_" d="M191.424,306.998c0,0-39.228-8.195-46-44.993c-6.773-36.808,1.961-52.28,33.002-73.005
			c18.587-12.411,35.346,12.221,71.002,13c35.647,0.778,28.985-27.35,86.998,0c63.942,30.144,80.509,112.323-4.003,117.004
			c36.92-14.583,57.554-44.9,37.996-73.003c-19.546-28.111-56.965-50.705-82.989-44.998c-26.034,5.703-33.912,14.163-60.005,5.998
			c-26.096-8.166-31.857-24.335-53-9.002c-21.146,15.336-33.912,36.308-24.004,74C160.32,296.599,191.424,306.998,191.424,306.998
			L191.424,306.998z"/>
	</defs>
	<clipPath id="SVGID_189_">
		<use xlink:href="#SVGID_187_"  overflow="visible"/>
	</clipPath>
	<clipPath id="SVGID_190_" clip-path="url(#SVGID_189_)">
		<use xlink:href="#SVGID_188_"  overflow="visible"/>
	</clipPath>
	<g clip-path="url(#SVGID_190_)">
		<image overflow="visible" width="512" height="512" xlink:href="164DD11B678E350F.jpg"  transform="matrix(1 0 0 1 0.4233 0)">
		</image>
	</g>
</g>
<g>
	<defs>
		<path id="SVGID_191_" d="M178.425,278.003c0,0-32.087-34.352-7.003-65.004c25.087-30.651,37.816-2.239,53.003,7
			c15.186,9.241,44.503,4.391,63.004-1.001c18.487-5.389,60.871-10.089,52.991,37c-12.721,76.018-62.557,20.132-102.997,16
			C196.981,267.863,178.425,278.003,178.425,278.003L178.425,278.003z"/>
	</defs>
	<clipPath id="SVGID_192_">
		<use xlink:href="#SVGID_191_"  overflow="visible"/>
	</clipPath>
	<g clip-path="url(#SVGID_192_)">
		<image overflow="visible" width="512" height="512" xlink:href="164DD11B678E350C.jpg"  transform="matrix(1 0 0 1 0.4233 0)">
		</image>
	</g>
</g>
<g>
	<defs>
		<path id="SVGID_193_" d="M178.425,278.003c0,0-32.087-34.352-7.003-65.004c25.087-30.651,37.816-2.239,53.003,7
			c15.186,9.241,44.503,4.391,63.004-1.001c18.487-5.389,60.871-10.089,52.991,37c-12.721,76.018-62.557,20.132-102.997,16
			C196.981,267.863,178.425,278.003,178.425,278.003L178.425,278.003z"/>
	</defs>
	<defs>
		<path id="SVGID_194_" d="M285.426,246c5.517,0,9.999,4.477,9.999,9.997c0,5.526-4.482,10.002-9.999,10.002
			c-5.525,0-10.003-4.477-10.003-10.002C275.423,250.477,279.9,246,285.426,246L285.426,246z"/>
	</defs>
	<clipPath id="SVGID_195_">
		<use xlink:href="#SVGID_193_"  overflow="visible"/>
	</clipPath>
	<clipPath id="SVGID_196_" clip-path="url(#SVGID_195_)">
		<use xlink:href="#SVGID_194_"  overflow="visible"/>
	</clipPath>
	<g clip-path="url(#SVGID_196_)">
		<image overflow="visible" width="512" height="512" xlink:href="164DD11B678E3514.jpg"  transform="matrix(1 0 0 1 0.4233 0)">
		</image>
	</g>
</g>
<g>
	<defs>
		<path id="SVGID_197_" d="M178.425,278.003c0,0-32.087-34.352-7.003-65.004c25.087-30.651,37.816-2.239,53.003,7
			c15.186,9.241,44.503,4.391,63.004-1.001c18.487-5.389,60.871-10.089,52.991,37c-12.721,76.018-62.557,20.132-102.997,16
			C196.981,267.863,178.425,278.003,178.425,278.003L178.425,278.003z"/>
	</defs>
	<defs>
		<path id="SVGID_198_" d="M201.426,233.999c4.969,0,8.998,4.03,8.998,9.001c0,4.972-4.029,8.999-8.998,8.999
			c-4.974,0-9.003-4.027-9.003-8.999C192.422,238.028,196.452,233.999,201.426,233.999L201.426,233.999z"/>
	</defs>
	<clipPath id="SVGID_199_">
		<use xlink:href="#SVGID_197_"  overflow="visible"/>
	</clipPath>
	<clipPath id="SVGID_200_" clip-path="url(#SVGID_199_)">
		<use xlink:href="#SVGID_198_"  overflow="visible"/>
	</clipPath>
	<g clip-path="url(#SVGID_200_)">
		<image overflow="visible" width="512" height="512" xlink:href="164DD11B678E3519.jpg"  transform="matrix(1 0 0 1 0.4233 0)">
		</image>
	</g>
</g>
<g>
	<defs>
		<path id="SVGID_201_" d="M191.424,306.998c0,0-39.228-8.195-46-44.993c-6.773-36.808,3.958-53.28,35.002-74.006
			c18.589-12.411,33.346,13.222,69.002,14.001c35.647,0.778,28.985-27.35,86.998,0c63.942,30.144,80.509,112.323-4.003,117.004
			c-35.986,1.985-64.452-24.546-103.998-22.005C188.876,299.544,191.424,306.998,191.424,306.998L191.424,306.998z"/>
	</defs>
	<defs>
		<path id="SVGID_202_" d="M230.425,230l5.997,41.998c0,0,11.6,0.983,23,6.999c-5.791-31.381-5.998-46.996-5.998-46.996L230.425,230
			L230.425,230z"/>
	</defs>
	<clipPath id="SVGID_203_">
		<use xlink:href="#SVGID_201_"  overflow="visible"/>
	</clipPath>
	<clipPath id="SVGID_204_" clip-path="url(#SVGID_203_)">
		<use xlink:href="#SVGID_202_"  overflow="visible"/>
	</clipPath>
	<g clip-path="url(#SVGID_204_)">
		<image overflow="visible" width="512" height="512" xlink:href="164DD11B678E351A.jpg"  transform="matrix(1 0 0 1 0.4233 0)">
		</image>
	</g>
</g>
<g>
	<defs>
		<path id="SVGID_205_" d="M178.425,278.003c0,0-32.087-34.352-7.003-65.004c25.087-30.651,37.816-2.239,53.003,7
			c15.186,9.241,44.503,4.391,63.004-1.001c18.487-5.389,60.871-10.089,52.991,37c-12.721,76.018-62.557,20.132-102.997,16
			C196.981,267.863,178.425,278.003,178.425,278.003L178.425,278.003z"/>
	</defs>
	<defs>
		<path id="SVGID_206_" d="M230.425,230l5.997,41.998c0,0,11.6,0.983,23,6.999c-5.791-31.381-5.998-46.996-5.998-46.996L230.425,230
			L230.425,230z"/>
	</defs>
	<clipPath id="SVGID_207_">
		<use xlink:href="#SVGID_205_"  overflow="visible"/>
	</clipPath>
	<clipPath id="SVGID_208_" clip-path="url(#SVGID_207_)">
		<use xlink:href="#SVGID_206_"  overflow="visible"/>
	</clipPath>
	<g clip-path="url(#SVGID_208_)">
		<image overflow="visible" width="512" height="512" xlink:href="164DD11B678E3528.jpg"  transform="matrix(1 0 0 1 0.4233 0)">
		</image>
	</g>
</g>
<g>
	<defs>
		<path id="SVGID_209_" d="M191.424,306.998c0,0-39.228-8.195-46-44.993c-6.773-36.808,3.958-53.28,35.002-74.006
			c18.589-12.411,33.346,13.222,69.002,14.001c35.647,0.778,28.985-27.35,86.998,0c63.942,30.144,80.509,112.323-4.003,117.004
			c-35.986,1.985-64.452-24.546-103.998-22.005C188.876,299.544,191.424,306.998,191.424,306.998L191.424,306.998z"/>
	</defs>
	<defs>
		<polygon id="SVGID_210_" points="262.428,230 269.425,281.997 276.424,286.002 270.429,230 262.428,230 		"/>
	</defs>
	<clipPath id="SVGID_211_">
		<use xlink:href="#SVGID_209_"  overflow="visible"/>
	</clipPath>
	<clipPath id="SVGID_212_" clip-path="url(#SVGID_211_)">
		<use xlink:href="#SVGID_210_"  overflow="visible"/>
	</clipPath>
	<g clip-path="url(#SVGID_212_)">
		<image overflow="visible" width="512" height="512" xlink:href="164DD11B678E3527.jpg"  transform="matrix(1 0 0 1 0.4233 0)">
		</image>
	</g>
</g>
<g>
	<defs>
		<path id="SVGID_213_" d="M178.425,278.003c0,0-32.087-34.352-7.003-65.004c25.087-30.651,37.816-2.239,53.003,7
			c15.186,9.241,44.503,4.391,63.004-1.001c18.487-5.389,60.871-10.089,52.991,37c-12.721,76.018-62.557,20.132-102.997,16
			C196.981,267.863,178.425,278.003,178.425,278.003L178.425,278.003z"/>
	</defs>
	<defs>
		<polygon id="SVGID_214_" points="262.428,230 269.425,281.997 276.424,286.002 270.429,230 262.428,230 		"/>
	</defs>
	<clipPath id="SVGID_215_">
		<use xlink:href="#SVGID_213_"  overflow="visible"/>
	</clipPath>
	<clipPath id="SVGID_216_" clip-path="url(#SVGID_215_)">
		<use xlink:href="#SVGID_214_"  overflow="visible"/>
	</clipPath>
	<g clip-path="url(#SVGID_216_)">
		<image overflow="visible" width="512" height="512" xlink:href="164DD11B678E3538.jpg"  transform="matrix(1 0 0 1 0.4233 0)">
		</image>
	</g>
</g>
<g>
	<defs>
		<path id="SVGID_217_" d="M191.424,306.998c0,0-39.228-8.195-46-44.993c-6.773-36.808,3.958-53.28,35.002-74.006
			c18.589-12.411,33.346,13.222,69.002,14.001c35.647,0.778,28.985-27.35,86.998,0c63.942,30.144,80.509,112.323-4.003,117.004
			c-35.986,1.985-64.452-24.546-103.998-22.005C188.876,299.544,191.424,306.998,191.424,306.998L191.424,306.998z"/>
	</defs>
	<defs>
		<polygon id="SVGID_218_" points="195.422,208 205.425,271.998 201.426,272.998 191.424,207.001 195.422,208 		"/>
	</defs>
	<clipPath id="SVGID_219_">
		<use xlink:href="#SVGID_217_"  overflow="visible"/>
	</clipPath>
	<clipPath id="SVGID_220_" clip-path="url(#SVGID_219_)">
		<use xlink:href="#SVGID_218_"  overflow="visible"/>
	</clipPath>
	<g clip-path="url(#SVGID_220_)">
		<image overflow="visible" width="512" height="512" xlink:href="164DD11B678E353B.jpg"  transform="matrix(1 0 0 1 0.4233 0)">
		</image>
	</g>
</g>
<g>
	<defs>
		<path id="SVGID_221_" d="M178.425,278.003c0,0-32.087-34.352-7.003-65.004c25.087-30.651,37.816-2.239,53.003,7
			c15.186,9.241,44.503,4.391,63.004-1.001c18.487-5.389,60.871-10.089,52.991,37c-12.721,76.018-62.557,20.132-102.997,16
			C196.981,267.863,178.425,278.003,178.425,278.003L178.425,278.003z"/>
	</defs>
	<defs>
		<polygon id="SVGID_222_" points="195.422,208 205.425,271.998 201.426,272.998 191.424,207.001 195.422,208 		"/>
	</defs>
	<clipPath id="SVGID_223_">
		<use xlink:href="#SVGID_221_"  overflow="visible"/>
	</clipPath>
	<clipPath id="SVGID_224_" clip-path="url(#SVGID_223_)">
		<use xlink:href="#SVGID_222_"  overflow="visible"/>
	</clipPath>
	<g clip-path="url(#SVGID_224_)">
		<image overflow="visible" width="512" height="512" xlink:href="164DD11B678E353E.jpg"  transform="matrix(1 0 0 1 0.4233 0)">
		</image>
	</g>
</g>
<g>
	<defs>
		<path id="SVGID_225_" d="M178.425,278.003c0,0-32.087-34.352-7.003-65.004c25.087-30.651,37.816-2.239,53.003,7
			c15.186,9.241,44.503,4.391,63.004-1.001c18.487-5.389,60.871-10.089,52.991,37c-12.721,76.018-62.557,20.132-102.997,16
			C196.981,267.863,178.425,278.003,178.425,278.003L178.425,278.003z"/>
	</defs>
	<defs>
		<path id="SVGID_226_" d="M201.426,233.999c4.969,0,8.998,4.03,8.998,9.001c0,4.972-4.029,8.999-8.998,8.999
			c-4.974,0-9.003-4.027-9.003-8.999C192.422,238.028,196.452,233.999,201.426,233.999L201.426,233.999z"/>
	</defs>
	<defs>
		<polygon id="SVGID_227_" points="195.422,208 205.425,271.998 201.426,272.998 191.424,207.001 195.422,208 		"/>
	</defs>
	<clipPath id="SVGID_228_">
		<use xlink:href="#SVGID_225_"  overflow="visible"/>
	</clipPath>
	<clipPath id="SVGID_229_" clip-path="url(#SVGID_228_)">
		<use xlink:href="#SVGID_226_"  overflow="visible"/>
	</clipPath>
	<clipPath id="SVGID_230_" clip-path="url(#SVGID_229_)">
		<use xlink:href="#SVGID_227_"  overflow="visible"/>
	</clipPath>
	<g clip-path="url(#SVGID_230_)">
		<image overflow="visible" width="512" height="512" xlink:href="164DD11B678E353F.jpg"  transform="matrix(1 0 0 1 0.4233 0)">
		</image>
	</g>
</g>
<g>
	<defs>
		<path id="SVGID_231_" d="M191.424,306.998c0,0-39.228-8.195-46-44.993c-6.773-36.808,3.958-53.28,35.002-74.006
			c18.589-12.411,33.346,13.222,69.002,14.001c35.647,0.778,28.985-27.35,86.998,0c63.942,30.144,80.509,112.323-4.003,117.004
			c-35.986,1.985-64.452-24.546-103.998-22.005C188.876,299.544,191.424,306.998,191.424,306.998L191.424,306.998z"/>
	</defs>
	<defs>
		<polygon id="SVGID_232_" points="183.423,208 192.422,272.998 189.422,273.998 179.424,209.001 183.423,208 		"/>
	</defs>
	<clipPath id="SVGID_233_">
		<use xlink:href="#SVGID_231_"  overflow="visible"/>
	</clipPath>
	<clipPath id="SVGID_234_" clip-path="url(#SVGID_233_)">
		<use xlink:href="#SVGID_232_"  overflow="visible"/>
	</clipPath>
	<g clip-path="url(#SVGID_234_)">
		<image overflow="visible" width="512" height="512" xlink:href="164DD11B678E353A.jpg"  transform="matrix(1 0 0 1 0.4233 0)">
		</image>
	</g>
</g>
<g>
	<defs>
		<path id="SVGID_235_" d="M178.425,278.003c0,0-32.087-34.352-7.003-65.004c25.087-30.651,37.816-2.239,53.003,7
			c15.186,9.241,44.503,4.391,63.004-1.001c18.487-5.389,60.871-10.089,52.991,37c-12.721,76.018-62.557,20.132-102.997,16
			C196.981,267.863,178.425,278.003,178.425,278.003L178.425,278.003z"/>
	</defs>
	<defs>
		<polygon id="SVGID_236_" points="183.423,208 192.422,272.998 189.422,273.998 179.424,209.001 183.423,208 		"/>
	</defs>
	<clipPath id="SVGID_237_">
		<use xlink:href="#SVGID_235_"  overflow="visible"/>
	</clipPath>
	<clipPath id="SVGID_238_" clip-path="url(#SVGID_237_)">
		<use xlink:href="#SVGID_236_"  overflow="visible"/>
	</clipPath>
	<g clip-path="url(#SVGID_238_)">
		<image overflow="visible" width="512" height="512" xlink:href="164DD11B678E3525.jpg"  transform="matrix(1 0 0 1 0.4233 0)">
		</image>
	</g>
</g>
<g>
	<defs>
		<path id="SVGID_239_" d="M178.425,278.003c0,0-32.087-34.352-7.003-65.004c25.087-30.651,37.816-2.239,53.003,7
			c15.186,9.241,44.503,4.391,63.004-1.001c18.487-5.389,60.871-10.089,52.991,37c-6.695,44.207-31.996,39.998-31.996,39.998
			s19.68-2.041,24.998-25c5.325-22.947-0.765-45.268-19.002-43.995c-18.229,1.274-63.166,12.898-90.997,3
			c-27.83-9.894-22.825-20.928-35-20.999c-12.176-0.076-22.798,15.794-22,29.998C167.221,253.207,171.544,265.959,178.425,278.003
			L178.425,278.003z"/>
	</defs>
	<clipPath id="SVGID_240_">
		<use xlink:href="#SVGID_239_"  overflow="visible"/>
	</clipPath>
	<g clip-path="url(#SVGID_240_)">
		<image overflow="visible" width="512" height="512" xlink:href="164DD11B678E3526.jpg"  transform="matrix(1 0 0 1 0.4233 0)">
		</image>
	</g>
</g>
<g>
	<defs>
		<path id="SVGID_241_" d="M101.424,10h308.003c49.704,0,90,40.294,90,89.997v310.004c0,49.709-40.296,90.001-90,90.001H101.424
			c-49.706,0-90-40.292-90-90.001V99.997C11.424,50.294,51.718,10,101.424,10L101.424,10z"/>
	</defs>
	<defs>
		<path id="SVGID_242_" d="M339.421,348.998c0,0-98.199-28.562-109.998-48.999c-19.413-5.923-36.029-0.732-40.999,9.002
			c17.511-5.858,34-3.004,34-3.004s3.364,12.784,35,23.999C289.058,341.213,339.421,348.998,339.421,348.998L339.421,348.998z"/>
	</defs>
	<clipPath id="SVGID_243_">
		<use xlink:href="#SVGID_241_"  overflow="visible"/>
	</clipPath>
	<clipPath id="SVGID_244_" clip-path="url(#SVGID_243_)">
		<use xlink:href="#SVGID_242_"  overflow="visible"/>
	</clipPath>
	<g clip-path="url(#SVGID_244_)">
		<image overflow="visible" width="512" height="512" xlink:href="164DD11B678E3524.jpg"  transform="matrix(1 0 0 1 0.4233 0)">
		</image>
	</g>
</g>
<g>
	<defs>
		<path id="SVGID_245_" d="M220.423,448.999l-69-16.999l9.001-44.996l15-5.004v-20.996l-44.999,3.995L133.424,316l20.001-7.999
			l-9.003-11.002c0,0-35.341-45.292-6.998-91.999c30.121-49.638,74.001-30.001,74.001-30.001l6.999-12
			c0,0,21.783-34.848,73.001-48.999c56.241-15.54,112.065-3.564,150,39c37.933,42.563,20.003,62,20.003,62l-77.001,19.998
			L220.423,448.999L220.423,448.999z"/>
	</defs>
	<defs>
		<path id="SVGID_246_" d="M339.421,348.998c0,0-98.199-28.562-109.998-48.999c-19.413-5.923-36.029-0.732-40.999,9.002
			c17.511-5.858,34-3.004,34-3.004s3.364,12.784,35,23.999C289.058,341.213,339.421,348.998,339.421,348.998L339.421,348.998z"/>
	</defs>
	<clipPath id="SVGID_247_">
		<use xlink:href="#SVGID_245_"  overflow="visible"/>
	</clipPath>
	<clipPath id="SVGID_248_" clip-path="url(#SVGID_247_)">
		<use xlink:href="#SVGID_246_"  overflow="visible"/>
	</clipPath>
	<g clip-path="url(#SVGID_248_)">
		<image overflow="visible" width="512" height="512" xlink:href="164DD11B678E35C3.jpg"  transform="matrix(1 0 0 1 0.4233 0)">
		</image>
	</g>
</g>
<g>
	<defs>
		<path id="SVGID_249_" d="M340.421,348.998c0,0-98.834-28.205-110.998-48.999c-19.413-6.648-38.654-0.9-40.999,10.002
			c-2.346,10.906,4.05,18.579,13.001,19.995C210.373,331.42,340.421,348.998,340.421,348.998L340.421,348.998z"/>
	</defs>
	<defs>
		<path id="SVGID_250_" d="M339.421,348.998c0,0-98.199-28.562-109.998-48.999c-19.413-5.923-36.029-0.732-40.999,9.002
			c17.511-5.858,34-3.004,34-3.004s3.364,12.784,35,23.999C289.058,341.213,339.421,348.998,339.421,348.998L339.421,348.998z"/>
	</defs>
	<clipPath id="SVGID_251_">
		<use xlink:href="#SVGID_249_"  overflow="visible"/>
	</clipPath>
	<clipPath id="SVGID_252_" clip-path="url(#SVGID_251_)">
		<use xlink:href="#SVGID_250_"  overflow="visible"/>
	</clipPath>
	<g clip-path="url(#SVGID_252_)">
		<image overflow="visible" width="512" height="512" xlink:href="164DD11B678E35C5.jpg"  transform="matrix(1 0 0 1 0.4233 0)">
		</image>
	</g>
</g>
<g>
	<defs>
		<path id="SVGID_253_" d="M191.424,306.998c0,0-39.228-8.195-46-44.993c-6.773-36.808,3.958-53.28,35.002-74.006
			c18.589-12.411,33.346,13.222,69.002,14.001c35.647,0.778,28.985-27.35,86.998,0c63.942,30.144,80.509,112.323-4.003,117.004
			c-35.986,1.985-64.452-24.546-103.998-22.005C188.876,299.544,191.424,306.998,191.424,306.998L191.424,306.998z"/>
	</defs>
	<defs>
		<path id="SVGID_254_" d="M339.421,348.998c0,0-98.199-28.562-109.998-48.999c-19.413-5.923-36.029-0.732-40.999,9.002
			c17.511-5.858,34-3.004,34-3.004s3.364,12.784,35,23.999C289.058,341.213,339.421,348.998,339.421,348.998L339.421,348.998z"/>
	</defs>
	<clipPath id="SVGID_255_">
		<use xlink:href="#SVGID_253_"  overflow="visible"/>
	</clipPath>
	<clipPath id="SVGID_256_" clip-path="url(#SVGID_255_)">
		<use xlink:href="#SVGID_254_"  overflow="visible"/>
	</clipPath>
	<g clip-path="url(#SVGID_256_)">
		<image overflow="visible" width="512" height="512" xlink:href="164DD11B678E35C7.jpg"  transform="matrix(1 0 0 1 0.4233 0)">
		</image>
	</g>
</g>
<g>
	<defs>
		<path id="SVGID_257_" d="M220.423,448.999l-69-16.999l9.001-44.996l15-5.004v-20.996l-44.999,3.995L133.424,316l20.001-7.999
			l-9.003-11.002c0,0-35.341-45.292-6.998-91.999c30.121-49.638,74.001-30.001,74.001-30.001l6.999-12
			c0,0,21.783-34.848,73.001-48.999c56.241-15.54,112.065-3.564,150,39c37.933,42.563,20.003,62,20.003,62l-77.001,19.998
			L220.423,448.999L220.423,448.999z"/>
	</defs>
	<defs>
		<path id="SVGID_258_" d="M191.424,306.998c0,0-39.228-8.195-46-44.993c-6.773-36.808,1.961-52.28,33.002-73.005
			c18.587-12.411,35.346,12.221,71.002,13c35.647,0.778,28.985-27.35,86.998,0c63.942,30.144,80.509,112.323-4.003,117.004
			c36.92-14.583,57.554-44.9,37.996-73.003c-19.546-28.111-56.965-50.705-82.989-44.998c-26.034,5.703-33.912,14.163-60.005,5.998
			c-26.096-8.166-31.857-24.335-53-9.002c-21.146,15.336-33.912,36.308-24.004,74C160.32,296.599,191.424,306.998,191.424,306.998
			L191.424,306.998z"/>
	</defs>
	<defs>
		<path id="SVGID_259_" d="M339.421,348.998c0,0-98.199-28.562-109.998-48.999c-19.413-5.923-36.029-0.732-40.999,9.002
			c17.511-5.858,34-3.004,34-3.004s3.364,12.784,35,23.999C289.058,341.213,339.421,348.998,339.421,348.998L339.421,348.998z"/>
	</defs>
	<clipPath id="SVGID_260_">
		<use xlink:href="#SVGID_257_"  overflow="visible"/>
	</clipPath>
	<clipPath id="SVGID_261_" clip-path="url(#SVGID_260_)">
		<use xlink:href="#SVGID_258_"  overflow="visible"/>
	</clipPath>
	<clipPath id="SVGID_262_" clip-path="url(#SVGID_261_)">
		<use xlink:href="#SVGID_259_"  overflow="visible"/>
	</clipPath>
	<g clip-path="url(#SVGID_262_)">
		<image overflow="visible" width="512" height="512" xlink:href="164DD11B678E35C2.jpg"  transform="matrix(1 0 0 1 0.4233 0)">
		</image>
	</g>
</g>
<g>
	<defs>
		<path id="SVGID_263_" d="M340.421,348.998c0,0-98.834-28.205-110.998-48.999c-19.413-6.648-38.654-0.9-40.999,10.002
			c-2.346,10.906,4.05,18.579,13.001,19.995C210.373,331.42,340.421,348.998,340.421,348.998L340.421,348.998z"/>
	</defs>
	<defs>
		<path id="SVGID_264_" d="M191.424,306.998c0,0-39.228-8.195-46-44.993c-6.773-36.808,1.961-52.28,33.002-73.005
			c18.587-12.411,35.346,12.221,71.002,13c35.647,0.778,28.985-27.35,86.998,0c63.942,30.144,80.509,112.323-4.003,117.004
			c36.92-14.583,57.554-44.9,37.996-73.003c-19.546-28.111-56.965-50.705-82.989-44.998c-26.034,5.703-33.912,14.163-60.005,5.998
			c-26.096-8.166-31.857-24.335-53-9.002c-21.146,15.336-33.912,36.308-24.004,74C160.32,296.599,191.424,306.998,191.424,306.998
			L191.424,306.998z"/>
	</defs>
	<defs>
		<path id="SVGID_265_" d="M339.421,348.998c0,0-98.199-28.562-109.998-48.999c-19.413-5.923-36.029-0.732-40.999,9.002
			c17.511-5.858,34-3.004,34-3.004s3.364,12.784,35,23.999C289.058,341.213,339.421,348.998,339.421,348.998L339.421,348.998z"/>
	</defs>
	<clipPath id="SVGID_266_">
		<use xlink:href="#SVGID_263_"  overflow="visible"/>
	</clipPath>
	<clipPath id="SVGID_267_" clip-path="url(#SVGID_266_)">
		<use xlink:href="#SVGID_264_"  overflow="visible"/>
	</clipPath>
	<clipPath id="SVGID_268_" clip-path="url(#SVGID_267_)">
		<use xlink:href="#SVGID_265_"  overflow="visible"/>
	</clipPath>
	<g clip-path="url(#SVGID_268_)">
		<image overflow="visible" width="512" height="512" xlink:href="164DD11B678E35C1.jpg"  transform="matrix(1 0 0 1 0.4233 0)">
		</image>
	</g>
</g>
<g>
	<defs>
		<path id="SVGID_269_" d="M191.424,306.998c0,0-39.228-8.195-46-44.993c-6.773-36.808,3.958-53.28,35.002-74.006
			c18.589-12.411,33.346,13.222,69.002,14.001c35.647,0.778,28.985-27.35,86.998,0c63.942,30.144,80.509,112.323-4.003,117.004
			c-35.986,1.985-64.452-24.546-103.998-22.005C188.876,299.544,191.424,306.998,191.424,306.998L191.424,306.998z"/>
	</defs>
	<defs>
		<path id="SVGID_270_" d="M191.424,306.998c0,0-39.228-8.195-46-44.993c-6.773-36.808,1.961-52.28,33.002-73.005
			c18.587-12.411,35.346,12.221,71.002,13c35.647,0.778,28.985-27.35,86.998,0c63.942,30.144,80.509,112.323-4.003,117.004
			c36.92-14.583,57.554-44.9,37.996-73.003c-19.546-28.111-56.965-50.705-82.989-44.998c-26.034,5.703-33.912,14.163-60.005,5.998
			c-26.096-8.166-31.857-24.335-53-9.002c-21.146,15.336-33.912,36.308-24.004,74C160.32,296.599,191.424,306.998,191.424,306.998
			L191.424,306.998z"/>
	</defs>
	<defs>
		<path id="SVGID_271_" d="M339.421,348.998c0,0-98.199-28.562-109.998-48.999c-19.413-5.923-36.029-0.732-40.999,9.002
			c17.511-5.858,34-3.004,34-3.004s3.364,12.784,35,23.999C289.058,341.213,339.421,348.998,339.421,348.998L339.421,348.998z"/>
	</defs>
	<clipPath id="SVGID_272_">
		<use xlink:href="#SVGID_269_"  overflow="visible"/>
	</clipPath>
	<clipPath id="SVGID_273_" clip-path="url(#SVGID_272_)">
		<use xlink:href="#SVGID_270_"  overflow="visible"/>
	</clipPath>
	<clipPath id="SVGID_274_" clip-path="url(#SVGID_273_)">
		<use xlink:href="#SVGID_271_"  overflow="visible"/>
	</clipPath>
	<g clip-path="url(#SVGID_274_)">
		<image overflow="visible" width="512" height="512" xlink:href="164DD11B678E35CD.jpg"  transform="matrix(1 0 0 1 0.4233 0)">
		</image>
	</g>
</g>
<g>
	<defs>
		<path id="SVGID_275_" d="M147.424,319.004c0,0,8.138,0.936,11,11.993c15.937,1.253,57.252,5.876,70.001,17.002
			c-1.777-15.017-25-18.994-25-18.994S175.022,321.907,147.424,319.004L147.424,319.004z"/>
	</defs>
	<clipPath id="SVGID_276_">
		<use xlink:href="#SVGID_275_"  overflow="visible"/>
	</clipPath>
	<g clip-path="url(#SVGID_276_)">
		<image overflow="visible" width="512" height="512" xlink:href="164DD11B678E35CF.jpg"  transform="matrix(1 0 0 1 0.4233 0)">
		</image>
	</g>
</g>
<g>
	<defs>
		<path id="SVGID_277_" d="M188.424,386.004l1.998-20.005c0,0,38.657,4.076,38.003-12.997c-0.653-17.08-26.999-24.999-26.999-24.999
			s118.548,19.482,151.002,20.995c32.452,1.514,44.514,26.668-34.002,56.998C248.152,393.668,188.424,386.004,188.424,386.004
			L188.424,386.004z"/>
	</defs>
	<clipPath id="SVGID_278_">
		<use xlink:href="#SVGID_277_"  overflow="visible"/>
	</clipPath>
	<g clip-path="url(#SVGID_278_)">
		<image overflow="visible" width="512" height="512" xlink:href="164DD11B678E35C0.jpg"  transform="matrix(1 0 0 1 0.4233 0)">
		</image>
	</g>
</g>
<g>
	<defs>
		<path id="SVGID_279_" d="M197.424,433.001c3.375-14.534,182.281,18.618,182.005,36.002
			C379.143,486.378,194.048,447.534,197.424,433.001L197.424,433.001z"/>
	</defs>
	<clipPath id="SVGID_280_">
		<use xlink:href="#SVGID_279_"  overflow="visible"/>
	</clipPath>
	<g clip-path="url(#SVGID_280_)">
		<image overflow="visible" width="512" height="512" xlink:href="164DD11B678E35C6.jpg"  transform="matrix(1 0 0 1 0.4233 0)">
		</image>
	</g>
</g>
<g>
	<defs>
		<path id="SVGID_281_" d="M439.924,206.001c17.394,0,31.504,22.607,31.504,50.501c0,27.89-14.11,50.496-31.504,50.496
			c-17.396,0-31.499-22.606-31.499-50.496C408.425,228.608,422.528,206.001,439.924,206.001L439.924,206.001z"/>
	</defs>
	<clipPath id="SVGID_282_">
		<use xlink:href="#SVGID_281_"  overflow="visible"/>
	</clipPath>
	<g clip-path="url(#SVGID_282_)">
		<image overflow="visible" width="512" height="512" xlink:href="164DD11B678E35FC.jpg"  transform="matrix(1 0 0 1 0.4233 0)">
		</image>
	</g>
</g>
<g>
	<defs>
		<path id="SVGID_283_" d="M101.424,10h308.003c49.704,0,90,40.294,90,89.997v310.004c0,49.709-40.296,90.001-90,90.001H101.424
			c-49.706,0-90-40.292-90-90.001V99.997C11.424,50.294,51.718,10,101.424,10L101.424,10z"/>
	</defs>
	<defs>
		<path id="SVGID_284_" d="M408.425,256.502c0-27.894,14.104-50.501,31.499-50.501c17.394,0,31.504,22.607,31.504,50.501
			c-7.308-29.409-23.56-40.286-35.001-37.504C424.978,221.782,416.87,232.852,408.425,256.502L408.425,256.502z"/>
	</defs>
	<clipPath id="SVGID_285_">
		<use xlink:href="#SVGID_283_"  overflow="visible"/>
	</clipPath>
	<clipPath id="SVGID_286_" clip-path="url(#SVGID_285_)">
		<use xlink:href="#SVGID_284_"  overflow="visible"/>
	</clipPath>
	<g clip-path="url(#SVGID_286_)">
		<image overflow="visible" width="512" height="512" xlink:href="164DD11B678E35E2.jpg"  transform="matrix(1 0 0 1 0.4233 0)">
		</image>
	</g>
</g>
<g>
	<defs>
		<path id="SVGID_287_" d="M471.926,245.001c2.479,0,4.5,2.012,4.5,4.499c0,2.485-2.021,4.5-4.5,4.5c-2.49,0-4.502-2.015-4.502-4.5
			C467.424,247.013,469.436,245.001,471.926,245.001L471.926,245.001z"/>
	</defs>
	<defs>
		<path id="SVGID_288_" d="M408.425,256.502c0-27.894,14.104-50.501,31.499-50.501c17.394,0,31.504,22.607,31.504,50.501
			c-7.308-29.409-23.56-40.286-35.001-37.504C424.978,221.782,416.87,232.852,408.425,256.502L408.425,256.502z"/>
	</defs>
	<clipPath id="SVGID_289_">
		<use xlink:href="#SVGID_287_"  overflow="visible"/>
	</clipPath>
	<clipPath id="SVGID_290_" clip-path="url(#SVGID_289_)">
		<use xlink:href="#SVGID_288_"  overflow="visible"/>
	</clipPath>
	<g clip-path="url(#SVGID_290_)">
		<image overflow="visible" width="512" height="512" xlink:href="164DD11B678E35E5.jpg"  transform="matrix(1 0 0 1 0.4233 0)">
		</image>
	</g>
</g>
<g>
	<defs>
		<path id="SVGID_291_" d="M220.423,448.999l-69-16.999l9.001-44.996l15-5.004v-20.996l-44.999,3.995L133.424,316l20.001-7.999
			l-9.003-11.002c0,0-35.341-45.292-6.998-91.999c30.121-49.638,74.001-30.001,74.001-30.001l6.999-12
			c0,0,21.783-34.848,73.001-48.999c56.241-15.54,112.065-3.564,150,39c37.933,42.563,20.003,62,20.003,62l-77.001,19.998
			L220.423,448.999L220.423,448.999z"/>
	</defs>
	<defs>
		<path id="SVGID_292_" d="M408.425,256.502c0-27.894,14.104-50.501,31.499-50.501c17.394,0,31.504,22.607,31.504,50.501
			c-7.308-29.409-23.56-40.286-35.001-37.504C424.978,221.782,416.87,232.852,408.425,256.502L408.425,256.502z"/>
	</defs>
	<clipPath id="SVGID_293_">
		<use xlink:href="#SVGID_291_"  overflow="visible"/>
	</clipPath>
	<clipPath id="SVGID_294_" clip-path="url(#SVGID_293_)">
		<use xlink:href="#SVGID_292_"  overflow="visible"/>
	</clipPath>
	<g clip-path="url(#SVGID_294_)">
		<image overflow="visible" width="512" height="512" xlink:href="164DD11B678E35E6.jpg"  transform="matrix(1 0 0 1 0.4233 0)">
		</image>
	</g>
</g>
<g>
	<defs>
		<path id="SVGID_295_" d="M439.924,206.001c17.394,0,31.504,22.607,31.504,50.501c0,27.89-14.11,50.496-31.504,50.496
			c-17.396,0-31.499-22.606-31.499-50.496C408.425,228.608,422.528,206.001,439.924,206.001L439.924,206.001z"/>
	</defs>
	<defs>
		<path id="SVGID_296_" d="M408.425,256.502c0-27.894,14.104-50.501,31.499-50.501c17.394,0,31.504,22.607,31.504,50.501
			c-7.308-29.409-23.56-40.286-35.001-37.504C424.978,221.782,416.87,232.852,408.425,256.502L408.425,256.502z"/>
	</defs>
	<clipPath id="SVGID_297_">
		<use xlink:href="#SVGID_295_"  overflow="visible"/>
	</clipPath>
	<clipPath id="SVGID_298_" clip-path="url(#SVGID_297_)">
		<use xlink:href="#SVGID_296_"  overflow="visible"/>
	</clipPath>
	<g clip-path="url(#SVGID_298_)">
		<image overflow="visible" width="512" height="512" xlink:href="164DD11B678E35E4.jpg"  transform="matrix(1 0 0 1 0.4233 0)">
		</image>
	</g>
</g>
<g>
	<defs>
		<path id="SVGID_299_" d="M439.924,206.001c17.394,0,31.504,22.607,31.504,50.501c0,27.89-14.11,50.496-31.504,50.496
			c-17.396,0-31.499-22.606-31.499-50.496C408.425,228.608,422.528,206.001,439.924,206.001L439.924,206.001z"/>
	</defs>
	<defs>
		<path id="SVGID_300_" d="M442.424,247.001c5.526,0,10.002,5.371,10.002,12c0,6.626-4.476,11.994-10.002,11.994
			c-5.525,0-9.999-5.368-9.999-11.994C432.425,252.372,436.898,247.001,442.424,247.001L442.424,247.001z"/>
	</defs>
	<clipPath id="SVGID_301_">
		<use xlink:href="#SVGID_299_"  overflow="visible"/>
	</clipPath>
	<clipPath id="SVGID_302_" clip-path="url(#SVGID_301_)">
		<use xlink:href="#SVGID_300_"  overflow="visible"/>
	</clipPath>
	<g clip-path="url(#SVGID_302_)">
		<image overflow="visible" width="512" height="512" xlink:href="164DD11B678E35E3.jpg"  transform="matrix(1 0 0 1 0.4233 0)">
		</image>
	</g>
</g>
<g>
	<defs>
		<path id="SVGID_303_" d="M168.424,426.002l11-6.008c0,0,41.755,1.358,44-1.991c2.246-3.362,9.001-13.997,9.001-13.997l87.001,1.99
			c0,0-32.469-13.661-89-18c-56.533-4.328-53.701-0.041-56,6.007C172.125,400.043,168.424,426.002,168.424,426.002L168.424,426.002z
			"/>
	</defs>
	<clipPath id="SVGID_304_">
		<use xlink:href="#SVGID_303_"  overflow="visible"/>
	</clipPath>
	<g clip-path="url(#SVGID_304_)">
		<image overflow="visible" width="512" height="512" xlink:href="164DD11B678E35DD.jpg"  transform="matrix(1 0 0 1 0.4233 0)">
		</image>
	</g>
</g>
<g>
	<defs>
		<path id="SVGID_305_" d="M101.424,10h308.003c49.704,0,90,40.294,90,89.997v310.004c0,49.709-40.296,90.001-90,90.001H101.424
			c-49.706,0-90-40.292-90-90.001V99.997C11.424,50.294,51.718,10,101.424,10L101.424,10z"/>
	</defs>
	<defs>
		<path id="SVGID_306_" d="M168.424,427.002l10.001-7.008l4.998-22.996c0,0,23.481-9.635,137.006,8.998
			c-29.902-8.917-57.315-15.329-87.004-18c-42.999-3.855-53.568-1.562-57,2.003C171.402,395.216,168.424,427.002,168.424,427.002
			L168.424,427.002z"/>
	</defs>
	<clipPath id="SVGID_307_">
		<use xlink:href="#SVGID_305_"  overflow="visible"/>
	</clipPath>
	<clipPath id="SVGID_308_" clip-path="url(#SVGID_307_)">
		<use xlink:href="#SVGID_306_"  overflow="visible"/>
	</clipPath>
	<g clip-path="url(#SVGID_308_)">
		<image overflow="visible" width="512" height="512" xlink:href="164DD11B678E35DE.jpg"  transform="matrix(1 0 0 1 0.4233 0)">
		</image>
	</g>
</g>
<g>
	<defs>
		<polygon id="SVGID_309_" points="170.423,446.998 108.424,457 59.426,122.999 305.423,82.002 314.421,127 164.423,272.998 
			185.424,295.995 207.424,317 226.426,438.998 170.423,446.998 		"/>
	</defs>
	<defs>
		<path id="SVGID_310_" d="M168.424,427.002l10.001-7.008l4.998-22.996c0,0,23.481-9.635,137.006,8.998
			c-29.902-8.917-57.315-15.329-87.004-18c-42.999-3.855-53.568-1.562-57,2.003C171.402,395.216,168.424,427.002,168.424,427.002
			L168.424,427.002z"/>
	</defs>
	<clipPath id="SVGID_311_">
		<use xlink:href="#SVGID_309_"  overflow="visible"/>
	</clipPath>
	<clipPath id="SVGID_312_" clip-path="url(#SVGID_311_)">
		<use xlink:href="#SVGID_310_"  overflow="visible"/>
	</clipPath>
	<g clip-path="url(#SVGID_312_)">
		<image overflow="visible" width="512" height="512" xlink:href="164DD11B678E35DC.jpg"  transform="matrix(1 0 0 1 0.4233 0)">
		</image>
	</g>
</g>
<g>
	<defs>
		<path id="SVGID_313_" d="M220.423,448.999l-69-16.999l9.001-44.996l15-5.004v-20.996l-44.999,3.995L133.424,316l20.001-7.999
			l-9.003-11.002c0,0-35.341-45.292-6.998-91.999c30.121-49.638,74.001-30.001,74.001-30.001l6.999-12
			c0,0,21.783-34.848,73.001-48.999c56.241-15.54,112.065-3.564,150,39c37.933,42.563,20.003,62,20.003,62l-77.001,19.998
			L220.423,448.999L220.423,448.999z"/>
	</defs>
	<defs>
		<path id="SVGID_314_" d="M168.424,427.002l10.001-7.008l4.998-22.996c0,0,23.481-9.635,137.006,8.998
			c-29.902-8.917-57.315-15.329-87.004-18c-42.999-3.855-53.568-1.562-57,2.003C171.402,395.216,168.424,427.002,168.424,427.002
			L168.424,427.002z"/>
	</defs>
	<clipPath id="SVGID_315_">
		<use xlink:href="#SVGID_313_"  overflow="visible"/>
	</clipPath>
	<clipPath id="SVGID_316_" clip-path="url(#SVGID_315_)">
		<use xlink:href="#SVGID_314_"  overflow="visible"/>
	</clipPath>
	<g clip-path="url(#SVGID_316_)">
		<image overflow="visible" width="512" height="512" xlink:href="164DD11B678E35A2.jpg"  transform="matrix(1 0 0 1 0.4233 0)">
		</image>
	</g>
</g>
<g>
	<defs>
		<path id="SVGID_317_" d="M188.424,386.004l1.998-20.005c0,0,38.657,4.076,38.003-12.997c-0.653-17.08-26.999-24.999-26.999-24.999
			s118.548,19.482,151.002,20.995c32.452,1.514,44.514,26.668-34.002,56.998C248.152,393.668,188.424,386.004,188.424,386.004
			L188.424,386.004z"/>
	</defs>
	<defs>
		<path id="SVGID_318_" d="M168.424,427.002l10.001-7.008l4.998-22.996c0,0,23.481-9.635,137.006,8.998
			c-29.902-8.917-57.315-15.329-87.004-18c-42.999-3.855-53.568-1.562-57,2.003C171.402,395.216,168.424,427.002,168.424,427.002
			L168.424,427.002z"/>
	</defs>
	<clipPath id="SVGID_319_">
		<use xlink:href="#SVGID_317_"  overflow="visible"/>
	</clipPath>
	<clipPath id="SVGID_320_" clip-path="url(#SVGID_319_)">
		<use xlink:href="#SVGID_318_"  overflow="visible"/>
	</clipPath>
	<g clip-path="url(#SVGID_320_)">
		<image overflow="visible" width="512" height="512" xlink:href="164DD11B678E35A5.jpg"  transform="matrix(1 0 0 1 0.4233 0)">
		</image>
	</g>
</g>
<g>
	<defs>
		<path id="SVGID_321_" d="M168.424,426.002l11-6.008c0,0,41.755,1.358,44-1.991c2.246-3.362,9.001-13.997,9.001-13.997l87.001,1.99
			c0,0-32.469-13.661-89-18c-56.533-4.328-53.701-0.041-56,6.007C172.125,400.043,168.424,426.002,168.424,426.002L168.424,426.002z
			"/>
	</defs>
	<defs>
		<path id="SVGID_322_" d="M168.424,427.002l10.001-7.008l4.998-22.996c0,0,23.481-9.635,137.006,8.998
			c-29.902-8.917-57.315-15.329-87.004-18c-42.999-3.855-53.568-1.562-57,2.003C171.402,395.216,168.424,427.002,168.424,427.002
			L168.424,427.002z"/>
	</defs>
	<clipPath id="SVGID_323_">
		<use xlink:href="#SVGID_321_"  overflow="visible"/>
	</clipPath>
	<clipPath id="SVGID_324_" clip-path="url(#SVGID_323_)">
		<use xlink:href="#SVGID_322_"  overflow="visible"/>
	</clipPath>
	<g clip-path="url(#SVGID_324_)">
		<image overflow="visible" width="512" height="512" xlink:href="393F38F5F78D9964.jpg"  transform="matrix(1 0 0 1 0.4233 0)">
		</image>
	</g>
</g>
</svg>
